<svg xmlns="http://www.w3.org/2000/svg" viewBox="0 0 126.24 98.77"><g id="Layer_2" data-name="Layer 2"><g id="Layer_1-2" data-name="Layer 1"><path d="M68.78,65.49,81.66,49.18H97.12M68.78,65.49,97.12,98.12M68.78,65.49h17M97.12,98.12l28.33-32.63M97.12,98.12,85.78,65.49M97.12,98.12l11.33-32.63m17,0L112.57,49.18H97.12m28.33,16.31h-17M97.12,49.18,85.78,65.49M97.12,49.18l11.33,16.31m-22.67,0h22.67" style="fill:none;stroke:#ff7f35;stroke-width:2px"/><path d="M34.78,17.31,47.66,1H63.12M34.78,17.31,63.12,49.94M34.78,17.31h17M63.12,49.94,91.45,17.31M63.12,49.94,51.78,17.31M63.12,49.94,74.45,17.31m17,0L78.57,1H63.12M91.45,17.31h-17M63.12,1,51.78,17.31M63.12,1,74.45,17.31m-22.67,0H74.45" style="fill:none;stroke:#ff7f35;stroke-width:2px"/><path d="M.78,65.49,13.66,49.18H29.12M.78,65.49,29.12,98.12M.78,65.49h17M29.12,98.12,57.45,65.49M29.12,98.12,17.78,65.49M29.12,98.12,40.45,65.49m17,0L44.57,49.18H29.12M57.45,65.49h-17M29.12,49.18,17.78,65.49M29.12,49.18,40.45,65.49m-22.67,0H40.45" style="fill:none;stroke:#ff7f35;stroke-width:2px"/></g></g></svg>