<svg xmlns="http://www.w3.org/2000/svg" xmlns:xlink="http://www.w3.org/1999/xlink" viewBox="0 0 1233.18 798.41"><defs><linearGradient id="Blue" y1="0.65" x2="1.51" y2="0.65" gradientUnits="userSpaceOnUse"><stop offset="0" stop-color="#2bc4f3"/><stop offset="0.5" stop-color="#00aeee"/><stop offset="1" stop-color="#0095da"/></linearGradient><linearGradient id="Blue-2" x1="466.75" y1="543.56" x2="479.13" y2="543.56" xlink:href="#Blue"/><linearGradient id="Magenta" x1="453.39" y1="551.66" x2="459.43" y2="551.66" gradientUnits="userSpaceOnUse"><stop offset="0" stop-color="#d471ad"/><stop offset="0.5" stop-color="#c7158c"/><stop offset="1" stop-color="#9d248e"/></linearGradient><symbol id="New_Symbol_1" data-name="New Symbol 1" viewBox="0 0 1.51 1.31"><polygon points="1.13 0 0.38 0 0 0.65 0.38 1.31 1.13 1.31 1.51 0.65 1.13 0" style="mix-blend-mode:color-dodge;fill:url(#Blue)"/></symbol><symbol id="New_Symbol" data-name="New Symbol" viewBox="0 0 1.26 1.26"><rect width="1.26" height="1.26" style="fill:#0cf"/></symbol></defs><g style="isolation:isolate"><g id="Layer_2" data-name="Layer 2"><g id="Layer_1-2" data-name="Layer 1"><g style="opacity:0.6"><g style="opacity:0.4"><path d="M489,347.3,426.2,292.49l42.07,43.93c35,36.62,35,95.45,0,132.08L426,512.69l63.06-55C524,427.06,524,377.9,489,347.3ZM410.72,531.68l.75-1.64.65-1.46h.06a14.79,14.79,0,0,0,.66,1.46l.82,1.64h4.23l-3.32-5.38,3.3-4.83h-.33l-9.78,10.21Zm88.89-239.09L351.5,138.06v76.41l20.74,21.66V181.54ZM426,512.69l-10.06,8.78h1.65Zm-53.71-267.3,54,47.1-54-56.36ZM507.72,556h4.09V540.71h-4.09Zm-93.9-34.51-.68,1.44c-.23.49-.44,1-.67,1.53h-.06c-.23-.47-.48-1-.75-1.47l-.8-1.5h-4.17l3.33,5-.15.24,6-5.25Zm78.94,22.58v-3.34h-9.91V556h10.23v-3.34h-6.14v-2.82h5.49v-3.3h-5.49v-2.47Zm28.73-22.81a3.71,3.71,0,0,0-3.06,1.53h-.07l-.17-1.3H515c0,.94.08,2.11.08,3.47v6.74h3.75V525.9a2.06,2.06,0,0,1,.1-.75,1.3,1.3,0,0,1,1.23-.9c.89,0,1.3.69,1.3,1.87v5.56h3.74v-6C525.17,522.86,523.87,521.24,521.49,521.24Zm-25.17,3c.9,0,1.3.69,1.3,1.87v5.56h3.75v-6c0-2.8-1.31-4.42-3.68-4.42a3.69,3.69,0,0,0-3.06,1.53h-.07l-.17-1.3h-3.23c0,.94.08,2.11.08,3.47v6.74H495V525.9a2.06,2.06,0,0,1,.1-.75A1.32,1.32,0,0,1,496.32,524.25Zm16.43,1.49c0-2.54-1.21-4.5-4.73-4.5a9.27,9.27,0,0,0-4.22.92l.65,2.37a6.41,6.41,0,0,1,2.88-.76c1.36,0,1.68.45,1.68.87v.1c-3.48,0-5.93,1.22-5.93,4a3.2,3.2,0,0,0,3.37,3.21,3.59,3.59,0,0,0,2.83-1.13h.07l.2.9h3.36a14.34,14.34,0,0,1-.16-2.49Zm-3.63,2.11a2.15,2.15,0,0,1,0,.52,1.39,1.39,0,0,1-1.28,1,.94.94,0,0,1-1.06-1c0-.89.86-1.31,2.38-1.32Zm24-3.76a4.26,4.26,0,0,1,1.61.26l.53-2.76a8,8,0,0,0-2.35-.34c-4,0-6,2.5-6,5.42,0,3.24,2.14,5.23,5.53,5.23a7.53,7.53,0,0,0,2.81-.43l-.4-2.74a4.59,4.59,0,0,1-1.64.26,2.31,2.31,0,0,1-2.47-2.46A2.27,2.27,0,0,1,533.17,524.09Zm-127.79,4.66a9.21,9.21,0,0,1-2.8.4c-1.32,0-2.5-.46-2.62-1.26h6.31a6.86,6.86,0,0,0,.14-1.43c0-2.8-1.42-5.22-4.71-5.22a5.2,5.2,0,0,0-5.3,5.44c0,3.23,2,5.22,5.63,5.22a12.7,12.7,0,0,0,2.11-.18l1.54-1.35Zm-3.87-5.07a1.5,1.5,0,0,1,1.45,1.67h-3A1.69,1.69,0,0,1,401.51,523.68Zm83.67,8h3.75v-8.27l-3.75,3.9Zm56.17-10.44a5.2,5.2,0,0,0-5.29,5.44c0,3.23,2,5.22,5.62,5.22a10.4,10.4,0,0,0,3.83-.65l-.48-2.5a9.12,9.12,0,0,1-2.8.4c-1.32,0-2.49-.46-2.61-1.26h6.31a7,7,0,0,0,.13-1.43C546.06,523.66,544.65,521.24,541.35,521.24Zm-1.78,4.11a1.7,1.7,0,0,1,1.6-1.67,1.51,1.51,0,0,1,1.45,1.67Zm-40.12,24.83h5.38v-3.31h-5.38v-2.82h5.72v-3.34h-9.81V556h4.09ZM833,559.54l-56.72-49.49L833,569.24ZM395.12,524.35a6.15,6.15,0,0,0-2.54-5.38c-1.39-1-3.07-1.39-5.75-1.39a29.94,29.94,0,0,0-4.45.3v13.73a27.19,27.19,0,0,0,3.73.22c2.73,0,5-.53,6.56-1.72A6.92,6.92,0,0,0,395.12,524.35Zm-8.2,4.57a5,5,0,0,1-.8,0v-8.34a5.2,5.2,0,0,1,1.15-.09c2.24,0,3.87,1.28,3.87,4C391.14,527.62,389.35,529,386.92,528.92Zm19.72,2.76,3.23-5-4.19,3.65.17.88a8.5,8.5,0,0,1-1.71.47l-31.9,27.82v9.22l35.52-37.08Zm80.42-14.8a1.78,1.78,0,1,0,1.9,1.78A1.76,1.76,0,0,0,487.06,516.88Zm38.6-201.59-26-22.7,5.31,5.53c55.19,57.58,55.19,151,0,208.6l-5.6,5.85,26.34-23C580.85,441.44,580.85,363.41,525.66,315.29Zm-61.55,206a3.94,3.94,0,0,0-3.3,1.53h0l-.17-1.3h-3.23c.05.95.09,2.11.09,3.47v10.85h3.74v-4.86h0a3,3,0,0,0,2.43,1c2.22,0,4.65-1.72,4.65-5.46C468.32,523.12,466.25,521.24,464.11,521.24Zm-1.39,7.82a1.54,1.54,0,0,1-1.47-1.22,3.05,3.05,0,0,1-.05-.62V526a1.89,1.89,0,0,1,.05-.49,1.57,1.57,0,0,1,1.51-1.31c1.18,0,1.76,1,1.76,2.47S463.83,529.06,462.72,529.06ZM833,235.67l20.29-21.2V138.06L702.89,295,833,181.54ZM776.4,294.79,716.24,347.3c-35,30.6-35,79.76,0,110.37l60,52.38-39.77-41.5c-35-36.63-35-95.46,0-132.08ZM703.22,510.23l150.06,156.6V590.41L833,569.24V623.4Zm-3.36-212.11,3-3.15-23.32,20.32c-55.19,48.12-55.19,126.15,0,174.31l23.65,20.63-3.36-3.51C644.67,449.08,644.67,355.72,699.86,298.12ZM833,245.39v-9.72L776.4,294.79ZM410.53,540.46c-4.68,0-7.59,3.53-7.59,8,0,4.24,2.6,7.79,7.34,7.79s7.67-3.12,7.67-8C418,544.1,415.45,540.46,410.53,540.46Zm0,12.53c-2,0-3.21-1.75-3.21-4.63s1.25-4.66,3.18-4.66,3.17,2,3.17,4.62S412.47,553,410.48,553Zm78.45-29.58,10.39-10.84-10.39,9.06Zm-10.82,7.65v.62h-.71l-10.59,9.23h-.05v0l-7.33,6.38v-6.63h-3.74v3.61a57.78,57.78,0,0,0,.28,6l-.14.12a45.29,45.29,0,0,0-2.29-5.09l-2.42-4.68h-4.83V556h3.23l-77.28,67.37V568.76L351.5,590.41v76.36L457.7,556h1.73v-1.8l7.33-7.64v9.36a27.39,27.39,0,0,0,4.06.25c3,0,5.5-.57,7.17-1.88a7.58,7.58,0,0,0,2.67-6.29,6.68,6.68,0,0,0-2.76-5.87,9.73,9.73,0,0,0-5.45-1.51l.26-.27,12.47-13v-2.42ZM450,555.54v-3.31c0-2.48,0-4.78-.16-6.84H450c.73,1.84,1.73,3.9,2.58,5.52l.86,1.7Zm26.29-7.43c0,3.44-2,4.9-4.61,4.86a5.91,5.91,0,0,1-.87,0v-9.11a5.85,5.85,0,0,1,1.25-.1C474.54,543.72,476.32,545.12,476.32,548.11Zm-53.24-19.29a8.54,8.54,0,0,1-3.63-.87l-.71,3.1a10,10,0,0,0,4.11.85c4.09,0,6-2.06,6-4.48,0-1.94-1.12-3.29-3.64-4.21-1.77-.66-2.51-1-2.51-1.66s.63-1,1.77-1a7.46,7.46,0,0,1,3,.66l.78-3a9,9,0,0,0-3.78-.72c-3.53,0-5.62,1.9-5.62,4.38,0,2.08,1.58,3.38,3.93,4.21,1.58.54,2.21.94,2.21,1.61S424.36,528.82,423.08,528.82Zm32.07-3.08c0-2.54-1.21-4.5-4.72-4.5a9.32,9.32,0,0,0-4.23.92l.66,2.37a6.41,6.41,0,0,1,2.88-.76c1.36,0,1.67.45,1.67.87v.1c-3.47,0-5.93,1.22-5.93,4a3.21,3.21,0,0,0,3.38,3.21,3.59,3.59,0,0,0,2.83-1.13h.07l.2.9h3.36a14.15,14.15,0,0,1-.17-2.49Zm-3.62,2.11a1.74,1.74,0,0,1,0,.52,1.38,1.38,0,0,1-1.28,1,.93.93,0,0,1-1.05-1c0-.89.86-1.31,2.38-1.32Zm37.4-6.38h-3.75v3.42l3.75-3.26ZM430,541.81a7.77,7.77,0,0,0-4.84-1.22,31.79,31.79,0,0,0-5,.33V556h4.05V550.8c.25,0,.6.05,1,.05a7.49,7.49,0,0,0,5.09-1.6,5,5,0,0,0,1.48-3.77A4.55,4.55,0,0,0,430,541.81Zm-4.9,5.91a5.2,5.2,0,0,1-.93-.06v-3.89a5.67,5.67,0,0,1,1.21-.1c1.56,0,2.31.77,2.31,1.91C427.7,546.89,426.71,547.72,425.11,547.72Zm12.76,2.1h5.49v-3.3h-5.49v-2.47h5.82v-3.34h-9.92V556H444v-3.34h-6.13Zm40.24-23.46H483v-3h-4.93v-2.58h5.24v-3.06h-9v14h3l.71-.62Zm-37.43-1.3c-.2,1.16-.38,2.35-.5,3.56h0c-.19-1.22-.44-2.38-.68-3.53l-.78-3.62h-2.92l-.82,3.79c-.2,1-.5,2.14-.68,3.36h0c-.16-1.22-.34-2.38-.51-3.39l-.58-3.76h-3.81l2.93,10.21h3.52l.76-3.06a26.54,26.54,0,0,0,.54-3.08h0c.19,1.3.34,2.16.56,3.11l.7,3h3.53l3-10.21H441.3Zm45.38,34.34h-1.5l-1.22,1.8c-.12.18-.25.38-.37.58h0V559.4h-1.21v5.39H483V563l.46-.56,1.33,2.32h1.41l-1.87-3.09Zm-12.87,0-1.64,5.39h1.26l.38-1.38h1.55l.41,1.38h1.31l-1.67-5.39Zm.17,3.1.33-1.14c.08-.32.16-.73.24-1h0c.08.31.18.72.27,1l.34,1.15Zm-3.71-1h-2V559.4h-1.21v5.39h1.21v-2.25h2v2.25h1.22V559.4h-1.22Zm10.08-1.15a2.45,2.45,0,0,1,1,.2l.25-1a3,3,0,0,0-1.32-.24,2.75,2.75,0,0,0-2.95,2.85,2.57,2.57,0,0,0,2.83,2.71,3.46,3.46,0,0,0,1.38-.24l-.18-.95a3,3,0,0,1-1,.17,1.77,1.77,0,0,1,0-3.54Zm11.2.11h1.46v4.36h1.21v-4.36h1.48v-1h-4.15Zm19.39.54a19.93,19.93,0,0,0,.1,2.25h0a15,15,0,0,0-.89-1.85l-1.11-2H507v5.39h1.11v-1.62c0-.88,0-1.64,0-2.36h0a21.07,21.07,0,0,0,.93,1.91l1.16,2.07h1.28V559.4h-1.12ZM488,559.4l-1.64,5.39h1.26l.38-1.38h1.55l.41,1.38h1.32l-1.68-5.39Zm.18,3.1.32-1.14c.09-.32.17-.73.25-1h0c.09.31.18.72.27,1l.34,1.15Zm15.42-3.19a2.61,2.61,0,0,0-2.62,2.82,2.52,2.52,0,0,0,2.54,2.75,2.57,2.57,0,0,0,2.64-2.84A2.51,2.51,0,0,0,503.61,559.31Zm0,4.6c-.82,0-1.31-.74-1.31-1.8s.48-1.83,1.3-1.83,1.3.83,1.3,1.8S504.41,563.91,503.59,563.91ZM499,561.47h-2V559.4h-1.22v5.39H497v-2.25h2v2.25h1.21V559.4H499Z" style="fill:#fff"/></g></g><g style="opacity:0.6;mix-blend-mode:color-dodge"><path d="M472.45,540.6l-.09.1-.07.08-5.54,5.75v-5.62a32.27,32.27,0,0,1,4.86-.33Z" style="mix-blend-mode:color-dodge;fill:url(#Blue-2)"/></g><g style="opacity:0.6;mix-blend-mode:color-dodge"><polygon points="453.39 552.61 459.43 547.34 459.43 554.18 457.7 555.98 455.12 555.98 453.39 552.61" style="mix-blend-mode:color-dodge;fill:url(#Magenta)"/></g><g style="opacity:0.65;mix-blend-mode:color-dodge"><use width="1.51" height="1.31" transform="translate(488.78 568.29)" xlink:href="#New_Symbol_1"/><use width="1.26" height="1.26" transform="translate(345.2 131.43)" xlink:href="#New_Symbol"/><use width="1.26" height="1.26" transform="translate(356.47 178.61)" xlink:href="#New_Symbol"/><use width="1.26" height="1.26" transform="translate(349.89 142.48)" xlink:href="#New_Symbol"/><use width="1.26" height="1.26" transform="translate(347.68 184.27)" xlink:href="#New_Symbol"/><use width="1.26" height="1.26" transform="translate(347.07 192.02)" xlink:href="#New_Symbol"/><use width="1.26" height="1.26" transform="translate(347.89 164.44)" xlink:href="#New_Symbol"/><use width="1.26" height="1.26" transform="translate(350.66 207.76)" xlink:href="#New_Symbol"/><use width="1.26" height="1.26" transform="translate(359.31 162.87)" xlink:href="#New_Symbol"/><use width="1.26" height="1.26" transform="translate(359.61 223.39)" xlink:href="#New_Symbol"/><use width="1.26" height="1.26" transform="translate(366.21 174.66)" xlink:href="#New_Symbol"/><use width="1.26" height="1.26" transform="translate(366.06 182.07)" xlink:href="#New_Symbol"/><use width="1.26" height="1.26" transform="translate(365.6 199.56)" xlink:href="#New_Symbol"/><use width="1.26" height="1.26" transform="translate(356.24 154.28)" xlink:href="#New_Symbol"/><use width="1.26" height="1.26" transform="translate(372.21 237.93)" xlink:href="#New_Symbol"/><use width="1.26" height="1.26" transform="translate(379.06 183.66)" xlink:href="#New_Symbol"/><use width="1.26" height="1.26" transform="translate(380.06 229.8)" xlink:href="#New_Symbol"/><use width="1.26" height="1.26" transform="translate(394.02 230.58)" xlink:href="#New_Symbol"/><use width="1.26" height="1.26" transform="translate(399.46 208.29)" xlink:href="#New_Symbol"/><use width="1.26" height="1.26" transform="translate(416.01 258.14)" xlink:href="#New_Symbol"/><use width="1.26" height="1.26" transform="translate(411.9 205.07)" xlink:href="#New_Symbol"/><use width="1.26" height="1.26" transform="translate(431.15 280.8)" xlink:href="#New_Symbol"/><use width="1.26" height="1.26" transform="translate(423.77 241.43)" xlink:href="#New_Symbol"/><use width="1.26" height="1.26" transform="translate(424.35 265.57)" xlink:href="#New_Symbol"/><use width="1.26" height="1.26" transform="translate(471.1 337.88)" xlink:href="#New_Symbol"/><use width="1.26" height="1.26" transform="translate(459.83 298.28)" xlink:href="#New_Symbol"/><use width="1.26" height="1.26" transform="translate(470.19 384.81)" xlink:href="#New_Symbol"/><use width="1.26" height="1.26" transform="translate(460.55 342.69)" xlink:href="#New_Symbol"/><use width="1.26" height="1.26" transform="translate(467.86 377.69)" xlink:href="#New_Symbol"/><use width="1.26" height="1.26" transform="translate(482.02 355.82)" xlink:href="#New_Symbol"/><use width="1.26" height="1.26" transform="translate(484.01 360.75)" xlink:href="#New_Symbol"/><use width="1.26" height="1.26" transform="translate(482.65 374.2)" xlink:href="#New_Symbol"/><use width="1.26" height="1.26" transform="translate(502.91 361.95)" xlink:href="#New_Symbol"/><use width="1.26" height="1.26" transform="translate(522.5 409.93)" xlink:href="#New_Symbol"/><use width="1.26" height="1.26" transform="translate(516.68 377.57)" xlink:href="#New_Symbol"/><use width="1.26" height="1.26" transform="translate(515.05 419.59)" xlink:href="#New_Symbol"/><use width="1.26" height="1.26" transform="translate(852.59 135.3)" xlink:href="#New_Symbol"/><use width="1.26" height="1.26" transform="translate(764.07 281.18)" xlink:href="#New_Symbol"/><use width="1.26" height="1.26" transform="translate(808.53 186.25)" xlink:href="#New_Symbol"/><use width="1.26" height="1.26" transform="translate(814.72 184.99)" xlink:href="#New_Symbol"/><use width="1.26" height="1.26" transform="translate(717.43 340.1)" xlink:href="#New_Symbol"/><use width="1.26" height="1.26" transform="translate(795.07 210.72)" xlink:href="#New_Symbol"/><use width="1.26" height="1.26" transform="translate(711.08 324.03)" xlink:href="#New_Symbol"/><use width="1.26" height="1.26" transform="translate(786.18 223.24)" xlink:href="#New_Symbol"/><use width="1.26" height="1.26" transform="translate(681.41 355.08)" xlink:href="#New_Symbol"/><use width="1.26" height="1.26" transform="translate(713.87 260.17)" xlink:href="#New_Symbol"/><use width="1.26" height="1.26" transform="translate(661.31 330.23)" xlink:href="#New_Symbol"/><use width="1.26" height="1.26" transform="translate(656.98 335.92)" xlink:href="#New_Symbol"/><use width="1.26" height="1.26" transform="translate(635.26 384.28)" xlink:href="#New_Symbol"/><use width="1.26" height="1.26" transform="translate(674.65 317.55)" xlink:href="#New_Symbol"/><use width="1.26" height="1.26" transform="translate(702.33 330.27)" xlink:href="#New_Symbol"/><use width="1.26" height="1.26" transform="translate(803.4 217.21)" xlink:href="#New_Symbol"/><use width="1.26" height="1.26" transform="translate(740.3 354.7)" xlink:href="#New_Symbol"/><use width="1.26" height="1.26" transform="translate(775.39 275.59)" xlink:href="#New_Symbol"/><use width="1.26" height="1.26" transform="translate(755.28 336.44)" xlink:href="#New_Symbol"/><use width="1.26" height="1.26" transform="translate(726.68 374.61)" xlink:href="#New_Symbol"/><use width="1.26" height="1.26" transform="translate(713.15 406.57)" xlink:href="#New_Symbol"/><use width="1.26" height="1.26" transform="translate(704.17 428.82)" xlink:href="#New_Symbol"/><use width="1.26" height="1.26" transform="translate(707.2 452.53)" xlink:href="#New_Symbol"/><use width="1.26" height="1.26" transform="translate(723.48 380.93)" xlink:href="#New_Symbol"/><use width="1.26" height="1.26" transform="translate(686.22 435.45)" xlink:href="#New_Symbol"/><use width="1.26" height="1.26" transform="translate(686.13 396.22)" xlink:href="#New_Symbol"/><use width="1.26" height="1.26" transform="translate(456.13 466.67)" xlink:href="#New_Symbol"/><use width="1.26" height="1.26" transform="translate(412.8 532.66)" xlink:href="#New_Symbol"/><use width="1.26" height="1.26" transform="translate(389.03 567.37)" xlink:href="#New_Symbol"/><use width="1.26" height="1.26" transform="translate(374.52 588.96)" xlink:href="#New_Symbol"/><use width="1.26" height="1.26" transform="translate(365.61 600.16)" xlink:href="#New_Symbol"/><use width="1.26" height="1.26" transform="translate(359.43 611.5)" xlink:href="#New_Symbol"/><use width="1.26" height="1.26" transform="translate(351.53 624.16)" xlink:href="#New_Symbol"/><use width="1.26" height="1.26" transform="translate(343.71 643.99)" xlink:href="#New_Symbol"/><use width="1.26" height="1.26" transform="translate(338.44 653.52)" xlink:href="#New_Symbol"/><use width="1.26" height="1.26" transform="translate(333.43 668.29)" xlink:href="#New_Symbol"/><use width="1.26" height="1.26" transform="translate(335.01 672.45)" xlink:href="#New_Symbol"/><use width="1.26" height="1.26" transform="translate(398.16 622.2)" xlink:href="#New_Symbol"/><use width="1.26" height="1.26" transform="translate(452.34 551.91)" xlink:href="#New_Symbol"/><use width="1.26" height="1.26" transform="translate(482.83 498.04)" xlink:href="#New_Symbol"/><use width="1.26" height="1.26" transform="translate(509.51 433.51)" xlink:href="#New_Symbol"/><use width="1.26" height="1.26" transform="translate(528.73 394.45)" xlink:href="#New_Symbol"/><use width="1.26" height="1.26" transform="translate(531.85 388.54)" xlink:href="#New_Symbol"/><use width="1.26" height="1.26" transform="translate(470.91 492.16)" xlink:href="#New_Symbol"/><use width="1.26" height="1.26" transform="translate(415.59 574.23)" xlink:href="#New_Symbol"/><use width="1.26" height="1.26" transform="translate(402.29 600.13)" xlink:href="#New_Symbol"/><use width="1.26" height="1.26" transform="translate(399.59 606.97)" xlink:href="#New_Symbol"/><use width="1.26" height="1.26" transform="translate(428.5 567.2)" xlink:href="#New_Symbol"/><use width="1.26" height="1.26" transform="translate(516.38 478.19)" xlink:href="#New_Symbol"/><use width="1.26" height="1.26" transform="translate(524.21 457.71)" xlink:href="#New_Symbol"/><use width="1.26" height="1.26" transform="translate(487.9 514.28)" xlink:href="#New_Symbol"/><use width="1.26" height="1.26" transform="translate(549.9 412.36)" xlink:href="#New_Symbol"/><use width="1.26" height="1.26" transform="translate(518.91 464.73)" xlink:href="#New_Symbol"/><use width="1.26" height="1.26" transform="translate(531.51 438.08)" xlink:href="#New_Symbol"/><use width="1.26" height="1.26" transform="translate(536.75 427.76)" xlink:href="#New_Symbol"/><use width="1.26" height="1.26" transform="translate(542.53 431.81)" xlink:href="#New_Symbol"/><use width="1.26" height="1.26" transform="translate(558.22 375.31)" xlink:href="#New_Symbol"/><use width="1.26" height="1.26" transform="translate(536.4 444.29)" xlink:href="#New_Symbol"/><use width="1.26" height="1.26" transform="translate(550.36 394.62)" xlink:href="#New_Symbol"/><use width="1.26" height="1.26" transform="translate(539.77 460.12)" xlink:href="#New_Symbol"/><use width="1.26" height="1.26" transform="translate(567.59 356.73)" xlink:href="#New_Symbol"/><use width="1.26" height="1.26" transform="translate(554.55 396.36)" xlink:href="#New_Symbol"/><use width="1.26" height="1.26" transform="translate(547.25 381.16)" xlink:href="#New_Symbol"/><use width="1.26" height="1.26" transform="translate(542.09 365.56)" xlink:href="#New_Symbol"/><use width="1.26" height="1.26" transform="translate(535.08 377.51)" xlink:href="#New_Symbol"/><use width="1.26" height="1.26" transform="translate(531.87 324.2)" xlink:href="#New_Symbol"/><use width="1.26" height="1.26" transform="translate(514.33 368.02)" xlink:href="#New_Symbol"/><use width="1.26" height="1.26" transform="translate(505.77 322.31)" xlink:href="#New_Symbol"/><use width="1.26" height="1.26" transform="translate(495.32 358.82)" xlink:href="#New_Symbol"/><use width="1.26" height="1.26" transform="translate(499.78 252.89)" xlink:href="#New_Symbol"/><use width="1.26" height="1.26" transform="translate(483.48 319.09)" xlink:href="#New_Symbol"/><use width="1.26" height="1.26" transform="translate(460.76 253.95)" xlink:href="#New_Symbol"/><use width="1.26" height="1.26" transform="translate(454.58 280.46)" xlink:href="#New_Symbol"/><use width="1.26" height="1.26" transform="translate(451.39 254.18)" xlink:href="#New_Symbol"/><use width="1.26" height="1.26" transform="translate(447.52 267.45)" xlink:href="#New_Symbol"/><use width="1.26" height="1.26" transform="translate(444.65 254.95)" xlink:href="#New_Symbol"/><use width="1.26" height="1.26" transform="translate(442.89 246.88)" xlink:href="#New_Symbol"/><use width="1.26" height="1.26" transform="translate(425.01 197.83)" xlink:href="#New_Symbol"/><use width="1.26" height="1.26" transform="translate(416.83 192.28)" xlink:href="#New_Symbol"/><use width="1.26" height="1.26" transform="translate(393.15 178.18)" xlink:href="#New_Symbol"/><use width="1.26" height="1.26" transform="translate(379.73 171.38)" xlink:href="#New_Symbol"/><use width="1.26" height="1.26" transform="translate(368.74 166.13)" xlink:href="#New_Symbol"/><use width="1.26" height="1.26" transform="translate(410.9 213.01)" xlink:href="#New_Symbol"/><use width="1.26" height="1.26" transform="translate(475.3 294.81)" xlink:href="#New_Symbol"/><use width="1.26" height="1.26" transform="translate(497.77 329.22)" xlink:href="#New_Symbol"/><use width="1.26" height="1.26" transform="translate(511.83 357.94)" xlink:href="#New_Symbol"/><use width="1.26" height="1.26" transform="translate(523.16 402.09)" xlink:href="#New_Symbol"/><use width="1.26" height="1.26" transform="translate(527.94 421.01)" xlink:href="#New_Symbol"/><use width="1.26" height="1.26" transform="translate(535.76 460.25)" xlink:href="#New_Symbol"/><use width="1.26" height="1.26" transform="translate(533.64 486.98)" xlink:href="#New_Symbol"/><use width="1.26" height="1.26" transform="translate(511.85 506.01)" xlink:href="#New_Symbol"/><use width="1.26" height="1.26" transform="translate(477 549.53)" xlink:href="#New_Symbol"/><use width="1.26" height="1.26" transform="translate(457.74 574.59)" xlink:href="#New_Symbol"/><use width="1.26" height="1.26" transform="translate(422.45 604.77)" xlink:href="#New_Symbol"/><use width="1.26" height="1.26" transform="translate(391.8 618.01)" xlink:href="#New_Symbol"/><use width="1.26" height="1.26" transform="translate(363.86 637.5)" xlink:href="#New_Symbol"/><use width="1.26" height="1.26" transform="translate(339.89 664.01)" xlink:href="#New_Symbol"/><use width="1.26" height="1.26" transform="translate(333.58 650.79)" xlink:href="#New_Symbol"/><use width="1.26" height="1.26" transform="translate(333.33 611.88)" xlink:href="#New_Symbol"/><use width="1.26" height="1.26" transform="translate(333.35 596.94)" xlink:href="#New_Symbol"/><use width="1.26" height="1.26" transform="translate(362.47 578.1)" xlink:href="#New_Symbol"/><use width="1.26" height="1.26" transform="translate(389.55 556.24)" xlink:href="#New_Symbol"/><use width="1.26" height="1.26" transform="translate(416.31 524.54)" xlink:href="#New_Symbol"/><use width="1.26" height="1.26" transform="translate(458.91 459.11)" xlink:href="#New_Symbol"/><use width="1.26" height="1.26" transform="translate(479.26 420.6)" xlink:href="#New_Symbol"/><use width="1.26" height="1.26" transform="translate(481.79 405.97)" xlink:href="#New_Symbol"/><use width="1.26" height="1.26" transform="translate(487.59 365.9)" xlink:href="#New_Symbol"/><use width="1.26" height="1.26" transform="translate(489.63 337.53)" xlink:href="#New_Symbol"/><use width="1.26" height="1.26" transform="translate(869.41 125.41)" xlink:href="#New_Symbol"/><use width="1.26" height="1.26" transform="translate(804.7 177.73)" xlink:href="#New_Symbol"/><use width="1.26" height="1.26" transform="translate(741.43 232.44)" xlink:href="#New_Symbol"/><use width="1.26" height="1.26" transform="translate(705.78 271.61)" xlink:href="#New_Symbol"/><use width="1.26" height="1.26" transform="translate(659.58 323.18)" xlink:href="#New_Symbol"/><use width="1.26" height="1.26" transform="translate(629.04 373.98)" xlink:href="#New_Symbol"/><use width="1.26" height="1.26" transform="translate(628.2 392.96)" xlink:href="#New_Symbol"/><use width="1.26" height="1.26" transform="translate(645.94 425.89)" xlink:href="#New_Symbol"/><use width="1.26" height="1.26" transform="translate(668.09 459.59)" xlink:href="#New_Symbol"/><use width="1.26" height="1.26" transform="translate(713.02 530.94)" xlink:href="#New_Symbol"/><use width="1.26" height="1.26" transform="translate(763.6 596.55)" xlink:href="#New_Symbol"/><use width="1.26" height="1.26" transform="translate(780.13 604.67)" xlink:href="#New_Symbol"/><use width="1.26" height="1.26" transform="translate(817.89 632.52)" xlink:href="#New_Symbol"/><use width="1.26" height="1.26" transform="translate(844.59 656.24)" xlink:href="#New_Symbol"/><use width="1.26" height="1.26" transform="translate(860.63 673.42)" xlink:href="#New_Symbol"/><use width="1.26" height="1.26" transform="translate(865.04 678.42)" xlink:href="#New_Symbol"/><use width="1.26" height="1.26" transform="translate(861.28 664.32)" xlink:href="#New_Symbol"/><use width="1.26" height="1.26" transform="translate(831.13 620.21)" xlink:href="#New_Symbol"/><use width="1.26" height="1.26" transform="translate(791.45 567.68)" xlink:href="#New_Symbol"/><use width="1.26" height="1.26" transform="translate(764.14 539.36)" xlink:href="#New_Symbol"/><use width="1.26" height="1.26" transform="translate(725.01 475.59)" xlink:href="#New_Symbol"/><use width="1.26" height="1.26" transform="translate(711.92 440.19)" xlink:href="#New_Symbol"/><use width="1.26" height="1.26" transform="translate(714.15 370.54)" xlink:href="#New_Symbol"/><use width="1.26" height="1.26" transform="translate(776.06 210.56)" xlink:href="#New_Symbol"/><use width="1.26" height="1.26" transform="translate(810.01 171.41)" xlink:href="#New_Symbol"/><use width="1.26" height="1.26" transform="translate(836.37 158.97)" xlink:href="#New_Symbol"/><use width="1.26" height="1.26" transform="translate(856.12 155.09)" xlink:href="#New_Symbol"/><use width="1.26" height="1.26" transform="translate(861.14 161.07)" xlink:href="#New_Symbol"/><use width="1.26" height="1.26" transform="translate(780.79 260.02)" xlink:href="#New_Symbol"/><use width="1.26" height="1.26" transform="translate(738.16 333.53)" xlink:href="#New_Symbol"/><use width="1.26" height="1.26" transform="translate(851.42 236.24)" xlink:href="#New_Symbol"/><use width="1.26" height="1.26" transform="translate(855.44 234.21)" xlink:href="#New_Symbol"/><use width="1.26" height="1.26" transform="translate(827.81 267.19)" xlink:href="#New_Symbol"/><use width="1.26" height="1.26" transform="translate(893.86 124.46)" xlink:href="#New_Symbol"/><use width="1.26" height="1.26" transform="translate(794.36 239.81)" xlink:href="#New_Symbol"/><use width="1.26" height="1.26" transform="translate(764.42 268.87)" xlink:href="#New_Symbol"/><use width="1.26" height="1.26" transform="translate(793.37 255.82)" xlink:href="#New_Symbol"/><use width="1.26" height="1.26" transform="translate(672.82 434.92)" xlink:href="#New_Symbol"/><use width="1.26" height="1.26" transform="translate(703.23 375.86)" xlink:href="#New_Symbol"/><use width="1.26" height="1.26" transform="translate(627.83 520.72)" xlink:href="#New_Symbol"/><use width="1.26" height="1.26" transform="translate(685.9 449.94)" xlink:href="#New_Symbol"/><use width="1.26" height="1.26" transform="translate(681.98 516.44)" xlink:href="#New_Symbol"/><use width="1.26" height="1.26" transform="translate(705.8 466.41)" xlink:href="#New_Symbol"/><use width="1.26" height="1.26" transform="translate(716.63 552.6)" xlink:href="#New_Symbol"/><use width="1.26" height="1.26" transform="translate(729.89 509.13)" xlink:href="#New_Symbol"/><use width="1.26" height="1.26" transform="translate(741.66 542.99)" xlink:href="#New_Symbol"/><use width="1.26" height="1.26" transform="translate(743.9 487.43)" xlink:href="#New_Symbol"/><use width="1.26" height="1.26" transform="translate(740.53 557.97)" xlink:href="#New_Symbol"/><use width="1.26" height="1.26" transform="translate(740.35 513.19)" xlink:href="#New_Symbol"/><use width="1.26" height="1.26" transform="translate(793.6 592.79)" xlink:href="#New_Symbol"/><use width="1.26" height="1.26" transform="translate(810.2 587.79)" xlink:href="#New_Symbol"/><use width="1.26" height="1.26" transform="translate(814.64 585.66)" xlink:href="#New_Symbol"/><use width="1.26" height="1.26" transform="translate(824.08 635.72)" xlink:href="#New_Symbol"/><use width="1.26" height="1.26" transform="translate(835.52 588.36)" xlink:href="#New_Symbol"/><use width="1.26" height="1.26" transform="translate(858.59 636.58)" xlink:href="#New_Symbol"/><use width="1.26" height="1.26" transform="translate(851.59 612.86)" xlink:href="#New_Symbol"/><use width="1.26" height="1.26" transform="translate(840.16 638.31)" xlink:href="#New_Symbol"/><use width="1.26" height="1.26" transform="translate(847.6 667)" xlink:href="#New_Symbol"/><use width="1.26" height="1.26" transform="translate(849.68 621.99)" xlink:href="#New_Symbol"/><use width="1.26" height="1.26" transform="translate(846.74 679.7)" xlink:href="#New_Symbol"/><use width="1.26" height="1.26" transform="translate(846.95 579.83)" xlink:href="#New_Symbol"/><use width="1.26" height="1.26" transform="translate(854.11 637.13)" xlink:href="#New_Symbol"/><use width="1.26" height="1.26" transform="translate(851.87 608.75)" xlink:href="#New_Symbol"/><use width="1.26" height="1.26" transform="translate(841.68 600.94)" xlink:href="#New_Symbol"/><use width="1.26" height="1.26" transform="translate(878.57 643.77)" xlink:href="#New_Symbol"/><use width="1.26" height="1.26" transform="translate(873.61 615.74)" xlink:href="#New_Symbol"/><use width="1.26" height="1.26" transform="translate(839.82 581.98)" xlink:href="#New_Symbol"/><use width="1.26" height="1.26" transform="translate(877.97 660.22)" xlink:href="#New_Symbol"/><use width="1.26" height="1.26" transform="translate(882.69 661.7)" xlink:href="#New_Symbol"/><use width="1.26" height="1.26" transform="translate(840.58 606.73)" xlink:href="#New_Symbol"/><use width="1.26" height="1.26" transform="translate(788.38 549.4)" xlink:href="#New_Symbol"/><use width="1.26" height="1.26" transform="translate(832.2 581.34)" xlink:href="#New_Symbol"/><use width="1.26" height="1.26" transform="translate(844.26 575.68)" xlink:href="#New_Symbol"/><use width="1.26" height="1.26" transform="translate(779.2 515.25)" xlink:href="#New_Symbol"/><use width="1.26" height="1.26" transform="translate(766.09 495.67)" xlink:href="#New_Symbol"/><use width="1.26" height="1.26" transform="translate(456.22 565.65)" xlink:href="#New_Symbol"/><use width="1.26" height="1.26" transform="translate(477.09 587.05)" xlink:href="#New_Symbol"/><use width="1.26" height="1.26" transform="translate(493.01 580.49)" xlink:href="#New_Symbol"/><use width="1.26" height="1.26" transform="translate(505.53 567.12)" xlink:href="#New_Symbol"/><use width="1.26" height="1.26" transform="translate(533.37 555.34)" xlink:href="#New_Symbol"/><use width="1.26" height="1.26" transform="translate(542.95 583.97)" xlink:href="#New_Symbol"/><use width="1.26" height="1.26" transform="translate(547.59 590.71)" xlink:href="#New_Symbol"/><use width="1.26" height="1.26" transform="translate(570.48 577.47)" xlink:href="#New_Symbol"/><use width="1.26" height="1.26" transform="translate(581.36 561.87)" xlink:href="#New_Symbol"/><use width="1.26" height="1.26" transform="translate(598.62 574.2)" xlink:href="#New_Symbol"/><use width="1.26" height="1.26" transform="translate(612.3 583.41)" xlink:href="#New_Symbol"/><use width="1.26" height="1.26" transform="translate(637.03 558.11)" xlink:href="#New_Symbol"/><use width="1.26" height="1.26" transform="translate(651.47 586.37)" xlink:href="#New_Symbol"/><use width="1.26" height="1.26" transform="translate(676.07 574.13)" xlink:href="#New_Symbol"/><use width="1.26" height="1.26" transform="translate(692.34 558.99)" xlink:href="#New_Symbol"/><use width="1.26" height="1.26" transform="translate(699.4 587.14)" xlink:href="#New_Symbol"/><use width="1.26" height="1.26" transform="translate(713.38 560.26)" xlink:href="#New_Symbol"/><use width="1.26" height="1.26" transform="translate(713.8 586.84)" xlink:href="#New_Symbol"/><use width="1.26" height="1.26" transform="translate(710.76 579.94)" xlink:href="#New_Symbol"/><use width="1.26" height="1.26" transform="translate(702.83 564.97)" xlink:href="#New_Symbol"/><use width="1.26" height="1.26" transform="translate(684.62 578.5)" xlink:href="#New_Symbol"/><use width="1.26" height="1.26" transform="translate(682.66 555.64)" xlink:href="#New_Symbol"/><use width="1.26" height="1.26" transform="translate(675.14 552.79)" xlink:href="#New_Symbol"/><use width="1.26" height="1.26" transform="translate(656.3 566.82)" xlink:href="#New_Symbol"/><use width="1.26" height="1.26" transform="translate(639.83 539.79)" xlink:href="#New_Symbol"/><use width="1.26" height="1.26" transform="translate(594.55 567.52)" xlink:href="#New_Symbol"/><use width="1.26" height="1.26" transform="translate(585.99 561.05)" xlink:href="#New_Symbol"/><use width="1.26" height="1.26" transform="translate(574.56 544.35)" xlink:href="#New_Symbol"/><use width="1.26" height="1.26" transform="translate(538.67 566.14)" xlink:href="#New_Symbol"/><use width="1.26" height="1.26" transform="translate(536.64 549)" xlink:href="#New_Symbol"/><use width="1.26" height="1.26" transform="translate(504.75 558.65)" xlink:href="#New_Symbol"/><use width="1.26" height="1.26" transform="translate(496.1 563.2)" xlink:href="#New_Symbol"/><use width="1.26" height="1.26" transform="translate(494.24 550.8)" xlink:href="#New_Symbol"/><use width="1.26" height="1.26" transform="translate(446.54 579.1)" xlink:href="#New_Symbol"/><use width="1.26" height="1.26" transform="translate(443.93 567.25)" xlink:href="#New_Symbol"/><use width="1.26" height="1.26" transform="translate(437.49 567.5)" xlink:href="#New_Symbol"/><use width="1.26" height="1.26" transform="translate(416.99 589.47)" xlink:href="#New_Symbol"/><use width="1.26" height="1.26" transform="translate(433.97 585.36)" xlink:href="#New_Symbol"/><use width="1.26" height="1.26" transform="translate(464.6 597.67)" xlink:href="#New_Symbol"/><use width="1.26" height="1.26" transform="translate(534.69 575.49)" xlink:href="#New_Symbol"/><use width="1.26" height="1.26" transform="translate(569.95 560.85)" xlink:href="#New_Symbol"/><use width="1.26" height="1.26" transform="translate(586.19 580.49)" xlink:href="#New_Symbol"/><use width="1.26" height="1.26" transform="translate(609.69 568.39)" xlink:href="#New_Symbol"/><use width="1.26" height="1.26" transform="translate(632.46 579.65)" xlink:href="#New_Symbol"/><use width="1.26" height="1.26" transform="translate(648.19 572.48)" xlink:href="#New_Symbol"/><use width="1.26" height="1.26" transform="translate(675.4 565.84)" xlink:href="#New_Symbol"/><use width="1.26" height="1.26" transform="translate(698 571.67)" xlink:href="#New_Symbol"/><use width="1.26" height="1.26" transform="translate(719.49 576.01)" xlink:href="#New_Symbol"/><use width="1.26" height="1.26" transform="translate(732.36 576.32)" xlink:href="#New_Symbol"/><use width="1.26" height="1.26" transform="translate(738.41 578.13)" xlink:href="#New_Symbol"/><use width="1.26" height="1.26" transform="translate(775.17 553.3)" xlink:href="#New_Symbol"/><use width="1.26" height="1.26" transform="translate(748.43 593.01)" xlink:href="#New_Symbol"/><use width="1.26" height="1.26" transform="translate(740.86 567.78)" xlink:href="#New_Symbol"/><use width="1.26" height="1.26" transform="translate(740.71 557.71)" xlink:href="#New_Symbol"/><use width="1.26" height="1.26" transform="translate(732.53 607.42)" xlink:href="#New_Symbol"/><use width="1.26" height="1.26" transform="translate(746.07 570.62)" xlink:href="#New_Symbol"/><use width="1.26" height="1.26" transform="translate(754.07 587.98)" xlink:href="#New_Symbol"/><use width="1.26" height="1.26" transform="translate(752.03 582.19)" xlink:href="#New_Symbol"/><use width="1.26" height="1.26" transform="translate(755.97 581.09)" xlink:href="#New_Symbol"/><use width="1.26" height="1.26" transform="translate(806.03 596.83)" xlink:href="#New_Symbol"/><use width="1.26" height="1.26" transform="translate(761.86 582.16)" xlink:href="#New_Symbol"/><use width="1.26" height="1.26" transform="translate(651.83 570.39)" xlink:href="#New_Symbol"/><use width="1.26" height="1.26" transform="translate(553.02 573.2)" xlink:href="#New_Symbol"/><use width="1.26" height="1.26" transform="translate(506.92 581.77)" xlink:href="#New_Symbol"/><use width="1.26" height="1.26" transform="translate(478.01 582.03)" xlink:href="#New_Symbol"/><use width="1.26" height="1.26" transform="translate(454.21 577.99)" xlink:href="#New_Symbol"/><use width="1.26" height="1.26" transform="translate(343.01 620.86)" xlink:href="#New_Symbol"/><use width="1.26" height="1.26" transform="translate(337.45 623.23)" xlink:href="#New_Symbol"/><use width="1.26" height="1.26" transform="translate(320.57 638.82)" xlink:href="#New_Symbol"/><use width="1.26" height="1.26" transform="translate(299.33 650.72)" xlink:href="#New_Symbol"/><use width="1.26" height="1.26" transform="translate(299.62 654.7)" xlink:href="#New_Symbol"/><use width="1.26" height="1.26" transform="translate(356.32 623.02)" xlink:href="#New_Symbol"/><use width="1.26" height="1.26" transform="translate(367.38 633.23)" xlink:href="#New_Symbol"/><use width="1.26" height="1.26" transform="translate(338.05 672.93)" xlink:href="#New_Symbol"/><use width="1.26" height="1.26" transform="translate(340.93 669.98)" xlink:href="#New_Symbol"/><use width="1.26" height="1.26" transform="translate(389.93 641.4)" xlink:href="#New_Symbol"/><use width="1.26" height="1.26" transform="translate(373.13 678.38)" xlink:href="#New_Symbol"/><use width="1.26" height="1.26" transform="translate(411.85 637.72)" xlink:href="#New_Symbol"/><use width="1.26" height="1.26" transform="translate(867.9 671.34)" xlink:href="#New_Symbol"/><use width="1.26" height="1.26" transform="translate(824.07 633.52)" xlink:href="#New_Symbol"/><use width="1.26" height="1.26" transform="translate(794.87 602.88)" xlink:href="#New_Symbol"/><use width="1.26" height="1.26" transform="translate(768.25 558.74)" xlink:href="#New_Symbol"/><use width="1.26" height="1.26" transform="translate(742.98 527.62)" xlink:href="#New_Symbol"/><use width="1.26" height="1.26" transform="translate(718.52 500.52)" xlink:href="#New_Symbol"/><use width="1.26" height="1.26" transform="translate(695.71 478.21)" xlink:href="#New_Symbol"/><use width="1.26" height="1.26" transform="translate(677.31 467.35)" xlink:href="#New_Symbol"/><use width="1.26" height="1.26" transform="translate(639.58 419.01)" xlink:href="#New_Symbol"/><use width="1.26" height="1.26" transform="translate(657.91 434.81)" xlink:href="#New_Symbol"/><use width="1.26" height="1.26" transform="translate(739.16 519.54)" xlink:href="#New_Symbol"/><use width="1.26" height="1.26" transform="translate(794.46 582.42)" xlink:href="#New_Symbol"/><use width="1.26" height="1.26" transform="translate(826.92 636.42)" xlink:href="#New_Symbol"/><use width="1.26" height="1.26" transform="translate(812.15 607.23)" xlink:href="#New_Symbol"/><use width="1.26" height="1.26" transform="translate(763.87 494.64)" xlink:href="#New_Symbol"/><use width="1.26" height="1.26" transform="translate(698.67 403.2)" xlink:href="#New_Symbol"/><use width="1.26" height="1.26" transform="translate(686.6 376.55)" xlink:href="#New_Symbol"/><use width="1.26" height="1.26" transform="translate(480.14 439.85)" xlink:href="#New_Symbol"/><use width="1.26" height="1.26" transform="translate(410.5 503.98)" xlink:href="#New_Symbol"/><use width="1.26" height="1.26" transform="translate(378.76 542.38)" xlink:href="#New_Symbol"/><use width="1.26" height="1.26" transform="translate(364.84 562.4)" xlink:href="#New_Symbol"/><use width="1.26" height="1.26" transform="translate(362.81 568.83)" xlink:href="#New_Symbol"/><use width="1.26" height="1.26" transform="translate(437.28 495.14)" xlink:href="#New_Symbol"/><use width="1.26" height="1.26" transform="translate(503.81 430.3)" xlink:href="#New_Symbol"/><use width="1.26" height="1.26" transform="translate(520.82 423.76)" xlink:href="#New_Symbol"/><use width="1.26" height="1.26" transform="translate(498.76 527.67)" xlink:href="#New_Symbol"/><use width="1.26" height="1.26" transform="translate(485.9 554.89)" xlink:href="#New_Symbol"/><use width="1.26" height="1.26" transform="translate(505.49 516.3)" xlink:href="#New_Symbol"/><use width="1.26" height="1.26" transform="translate(540.51 450.96)" xlink:href="#New_Symbol"/><use width="1.26" height="1.26" transform="translate(535.39 462.64)" xlink:href="#New_Symbol"/><use width="1.26" height="1.26" transform="translate(518.19 497.02)" xlink:href="#New_Symbol"/><use width="1.26" height="1.26" transform="translate(751.34 563.21)" xlink:href="#New_Symbol"/><use width="1.26" height="1.26" transform="translate(636.37 467.73)" xlink:href="#New_Symbol"/><use width="1.26" height="1.26" transform="translate(604.35 442.12)" xlink:href="#New_Symbol"/><use width="1.26" height="1.26" transform="translate(595.59 424.45)" xlink:href="#New_Symbol"/><use width="1.26" height="1.26" transform="translate(680.88 608.51)" xlink:href="#New_Symbol"/><use width="1.26" height="1.26" transform="translate(690.69 612.12)" xlink:href="#New_Symbol"/><use width="1.26" height="1.26" transform="translate(686.61 527.59)" xlink:href="#New_Symbol"/><use width="1.26" height="1.26" transform="translate(405.44 178.04)" xlink:href="#New_Symbol"/><use width="1.26" height="1.26" transform="translate(467.39 238.81)" xlink:href="#New_Symbol"/><use width="1.26" height="1.26" transform="translate(496.78 274.86)" xlink:href="#New_Symbol"/><use width="1.26" height="1.26" transform="translate(506.52 287.7)" xlink:href="#New_Symbol"/><use width="1.26" height="1.26" transform="translate(518.73 323.91)" xlink:href="#New_Symbol"/><use width="1.26" height="1.26" transform="translate(905.73 131.97)" xlink:href="#New_Symbol"/><use width="1.26" height="1.26" transform="translate(853.25 223.15)" xlink:href="#New_Symbol"/><use width="1.26" height="1.26" transform="translate(776.19 334.79)" xlink:href="#New_Symbol"/><use width="1.26" height="1.26" transform="translate(767.4 402.09)" xlink:href="#New_Symbol"/><use width="1.26" height="1.26" transform="translate(357.54 535.25)" xlink:href="#New_Symbol"/><use width="1.26" height="1.26" transform="translate(370.37 525.28)" xlink:href="#New_Symbol"/><use width="1.26" height="1.26" transform="translate(388.21 508.85)" xlink:href="#New_Symbol"/><use width="1.26" height="1.26" transform="translate(394.35 509.98)" xlink:href="#New_Symbol"/><use width="1.26" height="1.26" transform="translate(389.29 527.94)" xlink:href="#New_Symbol"/><use width="1.26" height="1.26" transform="translate(387.61 533.54)" xlink:href="#New_Symbol"/><use width="1.26" height="1.26" transform="translate(406.76 513.46)" xlink:href="#New_Symbol"/><use width="1.26" height="1.26" transform="translate(419.94 514.59)" xlink:href="#New_Symbol"/><use width="1.26" height="1.26" transform="translate(419.57 531.78)" xlink:href="#New_Symbol"/><use width="1.26" height="1.26" transform="translate(445.64 515.63)" xlink:href="#New_Symbol"/><use width="1.26" height="1.26" transform="translate(457.91 520.17)" xlink:href="#New_Symbol"/><use width="1.26" height="1.26" transform="translate(453.81 539.4)" xlink:href="#New_Symbol"/><use width="1.26" height="1.26" transform="translate(467.14 521.44)" xlink:href="#New_Symbol"/><use width="1.26" height="1.26" transform="translate(468.73 538.93)" xlink:href="#New_Symbol"/><use width="1.26" height="1.26" transform="translate(507.08 511.71)" xlink:href="#New_Symbol"/><use width="1.26" height="1.26" transform="translate(506.68 529.43)" xlink:href="#New_Symbol"/><use width="1.26" height="1.26" transform="translate(514.28 525.1)" xlink:href="#New_Symbol"/><use width="1.26" height="1.26" transform="translate(534.59 511.45)" xlink:href="#New_Symbol"/><use width="1.26" height="1.26" transform="translate(538.67 522.1)" xlink:href="#New_Symbol"/><use width="1.26" height="1.26" transform="translate(541.32 525.88)" xlink:href="#New_Symbol"/><use width="1.26" height="1.26" transform="translate(539.19 529.81)" xlink:href="#New_Symbol"/><use width="1.26" height="1.26" transform="translate(539.66 534.45)" xlink:href="#New_Symbol"/><use width="1.26" height="1.26" transform="translate(549.28 516.04)" xlink:href="#New_Symbol"/><use width="1.26" height="1.26" transform="translate(554.36 509.16)" xlink:href="#New_Symbol"/></g><g style="opacity:0.65;mix-blend-mode:color-dodge"><use width="1.26" height="1.26" transform="translate(0 131.38)" xlink:href="#New_Symbol"/><use width="1.26" height="1.26" transform="translate(13.91 171.03)" xlink:href="#New_Symbol"/><use width="1.26" height="1.26" transform="translate(32.42 204.77)" xlink:href="#New_Symbol"/><use width="1.26" height="1.26" transform="translate(46.7 220.19)" xlink:href="#New_Symbol"/><use width="1.26" height="1.26" transform="translate(69.86 253.85)" xlink:href="#New_Symbol"/><use width="1.26" height="1.26" transform="translate(95.56 279.49)" xlink:href="#New_Symbol"/><use width="1.26" height="1.26" transform="translate(207.46 355.83)" xlink:href="#New_Symbol"/><use width="1.26" height="1.26" transform="translate(218.86 359.63)" xlink:href="#New_Symbol"/><use width="1.26" height="1.26" transform="translate(259.32 317.26)" xlink:href="#New_Symbol"/><use width="1.26" height="1.26" transform="translate(301.45 313.74)" xlink:href="#New_Symbol"/><use width="1.26" height="1.26" transform="translate(408.59 504.66)" xlink:href="#New_Symbol"/><use width="1.26" height="1.26" transform="translate(445.08 425.01)" xlink:href="#New_Symbol"/><use width="1.26" height="1.26" transform="translate(450.89 448.78)" xlink:href="#New_Symbol"/><use width="1.26" height="1.26" transform="translate(450.94 382.92)" xlink:href="#New_Symbol"/><use width="1.26" height="1.26" transform="translate(452.05 365.86)" xlink:href="#New_Symbol"/><use width="1.26" height="1.26" transform="translate(3.45 563.12)" xlink:href="#New_Symbol"/><use width="1.26" height="1.26" transform="translate(121.5 566.84)" xlink:href="#New_Symbol"/><use width="1.26" height="1.26" transform="translate(207.11 518.16)" xlink:href="#New_Symbol"/><use width="1.26" height="1.26" transform="translate(282.54 473.02)" xlink:href="#New_Symbol"/><use width="1.26" height="1.26" transform="translate(331.15 442.91)" xlink:href="#New_Symbol"/><use width="1.26" height="1.26" transform="translate(351.07 431.24)" xlink:href="#New_Symbol"/><use width="1.26" height="1.26" transform="translate(362.73 417.98)" xlink:href="#New_Symbol"/><use width="1.26" height="1.26" transform="translate(382.65 370.2)" xlink:href="#New_Symbol"/><use width="1.26" height="1.26" transform="translate(382.65 408.78)" xlink:href="#New_Symbol"/><use width="1.26" height="1.26" transform="translate(389.96 395.58)" xlink:href="#New_Symbol"/><use width="1.26" height="1.26" transform="translate(395.13 385.51)" xlink:href="#New_Symbol"/><use width="1.26" height="1.26" transform="translate(395.09 419.81)" xlink:href="#New_Symbol"/><use width="1.26" height="1.26" transform="translate(27.84 386.45)" xlink:href="#New_Symbol"/><use width="1.26" height="1.26" transform="translate(159.17 433.04)" xlink:href="#New_Symbol"/><use width="1.26" height="1.26" transform="translate(254.53 388.8)" xlink:href="#New_Symbol"/><use width="1.26" height="1.26" transform="translate(288.44 393.36)" xlink:href="#New_Symbol"/><use width="1.26" height="1.26" transform="translate(1231.92 372.41)" xlink:href="#New_Symbol"/><use width="1.26" height="1.26" transform="translate(1107.59 547.08)" xlink:href="#New_Symbol"/><use width="1.26" height="1.26" transform="translate(1050.01 616.89)" xlink:href="#New_Symbol"/><use width="1.26" height="1.26" transform="translate(1010.52 601.69)" xlink:href="#New_Symbol"/><use width="1.26" height="1.26" transform="translate(943.47 521.71)" xlink:href="#New_Symbol"/><use width="1.26" height="1.26" transform="translate(926.98 502.75)" xlink:href="#New_Symbol"/><use width="1.26" height="1.26" transform="translate(880.1 533.66)" xlink:href="#New_Symbol"/><use width="1.26" height="1.26" transform="translate(809.1 433.01)" xlink:href="#New_Symbol"/><use width="1.26" height="1.26" transform="translate(772.85 408.38)" xlink:href="#New_Symbol"/><use width="1.26" height="1.26" transform="translate(1215.48 146.59)" xlink:href="#New_Symbol"/><use width="1.26" height="1.26" transform="translate(958.55 270.18)" xlink:href="#New_Symbol"/><use width="1.26" height="1.26" transform="translate(965.54 366.6)" xlink:href="#New_Symbol"/><use width="1.26" height="1.26" transform="translate(858.13 440.24)" xlink:href="#New_Symbol"/><use width="1.26" height="1.26" transform="translate(861.33 384.8)" xlink:href="#New_Symbol"/><use width="1.26" height="1.26" transform="translate(875 389.72)" xlink:href="#New_Symbol"/><use width="1.26" height="1.26" transform="translate(877.18 423.72)" xlink:href="#New_Symbol"/><use width="1.26" height="1.26" transform="translate(1097.06 310.52)" xlink:href="#New_Symbol"/><use width="1.26" height="1.26" transform="translate(1077.06 361.99)" xlink:href="#New_Symbol"/><use width="1.26" height="1.26" transform="translate(1110.03 359.64)" xlink:href="#New_Symbol"/><use width="1.26" height="1.26" transform="translate(1221.38 233.93)" xlink:href="#New_Symbol"/><use width="1.26" height="1.26" transform="translate(1101.69 516.55)" xlink:href="#New_Symbol"/><use width="1.26" height="1.26" transform="translate(1193.67 527.18)" xlink:href="#New_Symbol"/><use width="1.26" height="1.26" transform="translate(1097.33 608.75)" xlink:href="#New_Symbol"/><use width="1.26" height="1.26" transform="translate(1066.96 619.34)" xlink:href="#New_Symbol"/><use width="1.26" height="1.26" transform="translate(975.59 650.95)" xlink:href="#New_Symbol"/><use width="1.26" height="1.26" transform="translate(943.99 627.52)" xlink:href="#New_Symbol"/><use width="1.26" height="1.26" transform="translate(880.17 506.44)" xlink:href="#New_Symbol"/><use width="1.26" height="1.26" transform="translate(814.88 469.56)" xlink:href="#New_Symbol"/><use width="1.26" height="1.26" transform="translate(766.92 444.93)" xlink:href="#New_Symbol"/><use width="1.26" height="1.26" transform="translate(763.68 347.81)" xlink:href="#New_Symbol"/><use width="1.26" height="1.26" transform="translate(867.41 260.89)" xlink:href="#New_Symbol"/><use width="1.26" height="1.26" transform="translate(972.7 191.98)" xlink:href="#New_Symbol"/><use width="1.26" height="1.26" transform="translate(1013.15 153.87)" xlink:href="#New_Symbol"/><use width="1.26" height="1.26" transform="translate(1024.03 141.11)" xlink:href="#New_Symbol"/><use width="1.26" height="1.26" transform="translate(1025.36 133.7)" xlink:href="#New_Symbol"/><use width="1.26" height="1.26" transform="translate(106.72 563.11)" xlink:href="#New_Symbol"/><use width="1.26" height="1.26" transform="translate(108.43 618.17)" xlink:href="#New_Symbol"/><use width="1.26" height="1.26" transform="translate(46.83 650.4)" xlink:href="#New_Symbol"/><use width="1.26" height="1.26" transform="translate(24.49 670.2)" xlink:href="#New_Symbol"/><use width="1.26" height="1.26" transform="translate(16.25 691.54)" xlink:href="#New_Symbol"/><use width="1.26" height="1.26" transform="translate(43.37 736.87)" xlink:href="#New_Symbol"/><use width="1.26" height="1.26" transform="translate(234.1 647.29)" xlink:href="#New_Symbol"/><use width="1.26" height="1.26" transform="translate(237.59 768.15)" xlink:href="#New_Symbol"/><use width="1.26" height="1.26" transform="translate(411.95 797.16)" xlink:href="#New_Symbol"/><use width="1.26" height="1.26" transform="translate(581.57 690.25)" xlink:href="#New_Symbol"/><use width="1.26" height="1.26" transform="translate(770.86 699.61)" xlink:href="#New_Symbol"/><use width="1.26" height="1.26" transform="translate(876.68 749.7)" xlink:href="#New_Symbol"/><use width="1.26" height="1.26" transform="translate(982.6 734.74)" xlink:href="#New_Symbol"/><use width="1.26" height="1.26" transform="translate(1044.4 695.33)" xlink:href="#New_Symbol"/><use width="1.26" height="1.26" transform="translate(1064.46 669.55)" xlink:href="#New_Symbol"/><use width="1.26" height="1.26" transform="translate(1077.15 475.83)" xlink:href="#New_Symbol"/><use width="1.26" height="1.26" transform="translate(953.81 213.19)" xlink:href="#New_Symbol"/><use width="1.26" height="1.26" transform="translate(743.83 177.98)" xlink:href="#New_Symbol"/><use width="1.26" height="1.26" transform="translate(632.61 151.15)" xlink:href="#New_Symbol"/><use width="1.26" height="1.26" transform="translate(536.33 119.68)" xlink:href="#New_Symbol"/><use width="1.26" height="1.26" transform="translate(471.23 131.36)" xlink:href="#New_Symbol"/><use width="1.26" height="1.26" transform="translate(398.03 98.58)" xlink:href="#New_Symbol"/><use width="1.26" height="1.26" transform="translate(156.21)" xlink:href="#New_Symbol"/><use width="1.26" height="1.26" transform="translate(63.14 15.08)" xlink:href="#New_Symbol"/><use width="1.26" height="1.26" transform="translate(29.26 54.72)" xlink:href="#New_Symbol"/><use width="1.26" height="1.26" transform="translate(94.59 169.74)" xlink:href="#New_Symbol"/><use width="1.26" height="1.26" transform="translate(788.07 162.85)" xlink:href="#New_Symbol"/><use width="1.26" height="1.26" transform="translate(871.88 106.39)" xlink:href="#New_Symbol"/><use width="1.26" height="1.26" transform="translate(798.63 135.61)" xlink:href="#New_Symbol"/><use width="1.26" height="1.26" transform="translate(861.23 186.15)" xlink:href="#New_Symbol"/><use width="1.26" height="1.26" transform="translate(944.66 89.96)" xlink:href="#New_Symbol"/><use width="1.26" height="1.26" transform="translate(869.75 208.66)" xlink:href="#New_Symbol"/><use width="1.26" height="1.26" transform="translate(923.44 110.97)" xlink:href="#New_Symbol"/><use width="1.26" height="1.26" transform="translate(876.79 170.76)" xlink:href="#New_Symbol"/><use width="1.26" height="1.26" transform="translate(910.35 144.22)" xlink:href="#New_Symbol"/><use width="1.26" height="1.26" transform="translate(925.02 137.02)" xlink:href="#New_Symbol"/><use width="1.26" height="1.26" transform="translate(373.5 131.39)" xlink:href="#New_Symbol"/><use width="1.26" height="1.26" transform="translate(299.02 90.54)" xlink:href="#New_Symbol"/><use width="1.26" height="1.26" transform="translate(315.3 176.73)" xlink:href="#New_Symbol"/></g></g></g></g></svg>