<svg xmlns="http://www.w3.org/2000/svg" viewBox="0 0 416.09 72.53"><g style="isolation:isolate"><g id="Layer_2" data-name="Layer 2"><g id="Layer_4" data-name="Layer 4"><path d="M0,2.45V1.51H.25l.26.09.34.08.26.09.34.08.25.08L2.05,2l.25.09.34.09L3,2.27l.27.09.33.09.27.08.33.09.25.09.36.07L5,2.87,5.35,3l.33.09L6,3.13l.33.08.25.09.35.08.25.09.34.09.26.07.34.09.25.09.35.09L9,4l.25.09.33.08.27.08.34.09.24.09.36.09.24.07.34.09.34.09.26.08.34.09.26.08.34.08.25.09.34.09.26.09.34.08.25.08.35.09.33.08.25.09.35.09.25.07.34.09.26.09.34.09.25.08.34.08.35.09.25.08.33.09.27.09L19,6.8l.24.07.36.09.24.09.34.08.27.09.33.07.34.09.25.09.35.09.25.09.34.07.26.09.34.09.25.08.35.09.33.07.25.09.35.09.25.09L25,8.5l.25.08.35.08.25.09.34.08.26.09.34.09.33.07.27.09.33.09.25.09.09.16.09.17.07.09.11.09.07.16.09.09.08.09.09.07.08.17.08.09.09.09.09.18.09.07.07.09.09.08.09.18.08.09.09.07.08.18.08.07.09.1.09.08.09.17.08.09.08.09.09.16.08.09.09.09.09.07.07.17.09.09.09.09.09.18.08.07.08.09.09.08.08.18.09.07.09.09.07.18.09.07.09.09.09.09.08.17.09.08.08.1.08.16.09.09.09.08.09.08.07.17.09.09.09.09.08.16.08.09.08.09.09.08.09.18.09.07.07.09.1.16.08.09.09.09.08.09.08.17.08.08.09.08.09.18.09.09.09.07.07.18.09.08.08.09.09.07.09.18.07.09.09.09.09.16.09.26.07.34.09.25.09.26.08.25.08.26.09.25.08.27.09.33.09.25.07.27.09.24.09.27.09.23.08.27.08.26.09.34.08.25.09.25.09.26.09.26.07.25.09.25.09.26.08.34.09.26.07.25.09.25.09.27V26l-.09.33-.09.18-.07.09-.09.08-.08.17-.09.08-.09.09-.07.16-.09.1-.09.08-.09.17-.08.08-.09.08-.08.18-.08.09-.09.09-.09.16-.09.09-.07.08-.09.16-.09.09-.08.09-.09.18L35,29l-.08.09-.09.17-.09.09-.07.09-.09.16-.09.09-.09.09-.07.16-.09.08-.09.09-.08.18-.09.07-.07.09-.09.18-.09.08-.09.09-.09.16-.08.09-.08.09-.08.16-.09.09-.08.08-.1.18-.07.07-.09.09-.09.18-.09.09-.08.07-.08.17-.08.09-.09.09-.09.16-.07.09-.09.09-.09.17-.09.08-.08.08-.08.18-.09.09-.08.07-.09.18-.09.08-.09.09-.07.16-.09.09-.09.09-.08.18-.09.07-.08.09-.08.17-.09.09-.09.07-.09.18-.07.09-.09.08-.09.17-.08.08-.09.09-.08.18-.08.07-.09.09-.09.17-.09.09-.08.08-.08.17-.09.09-.08.18-.09.07-.09.09-.07.17-.09.09-.09.07-.09.18-.08.09-.08.08-.09.17-.08.08-.09.09-.07.16-.11.09-.07.09-.09.17-.09.09-.07.08-.09.17-.09.09-.08.09-.09.16-.09.09-.07.08-.09.17-.09.08-.09.09-.08.18-.08.08-.08.08-.09.17-.09.08-.09.1-.07.16-.09.09-.09.09-.09.16-.08.09-.09.08-.07.18-.09.09-.09.07-.09.18-.09.07-.07.1-.09.16-.08.09-.09.09-.09.16-.07.09-.09.09-.09.16-.09.1-.07.07-.1.18-.08.07-.08.1-.09.16-.08.09-.1.09-.07.16-.09.09-.09.09L24,43.8l-.07.09L23.8,44l-.08.18-.09.07-.09.11-.07.16-.09.09-.09.07-.09.17-.08.09L23,45l-.09.16-.08.09-.09.09-.09.17-.09.08-.07.1-.09.16-.09.09-.08.07-.09.18-.08.08-.08.09-.09.16-.09.09-.09.09-.07.18-.09.07-.09.1-.08.16-.09.09-.09.16-.07.09-.09.09-.09.17-.07.08-.1.08-.08.18-.09.09-.08.07-.09.18-.07.08-.09.09-.09.16-.09.09-.09.09-.07.17-.09.08-.09.09-.08.17-.09.09-.07.07-.09.18-.09.09-.09.08-.16.08h-.94L16.57,50,15,49.94l-1.62-.09-1.62-.09-1.61-.09H8.67L8.5,49.6l-.18-.09-.16-.09L8,49.34l-.17-.09-.16-.08-.18-.08L7.31,49l-.18-.09-.08-.09-.17-.08-.17-.08-.18-.09-.16-.08L6.2,48.4,6,48.31l-.16-.07-.18-.09-.16-.09L5.35,48l-.16-.08L5,47.81l-.17-.09-.18-.08-.16-.09-.17-.09-.17-.09L4,47.3l-.16-.09-.18-.09-.17-.07L3.33,47l-.18-.07L3,46.79l-.16-.09-.17-.09-.16-.09-.18-.07-.18-.09L2,46.27l-.17-.08-.18-.09L1.45,46l-.16-.07-.18-.09-.17-.09-.16-.07-.18-.1-.18-.08-.17-.09-.16-.08L0,45.25v-1l.09-3.56.09-3.57L.25,33.5l.1-3.57.07-3.58.09-.67H1.88v-1.1L2,23.12l.09-1.53.07-1.43V19L2,19l-.08-.09-.09-.08-.18-.08-.07-.09-.09-.09-.16-.09-.1-.07-.08-.09-.17-.09-.09-.08-.07-.17L.69,16.23.6,14.53.51,12.74.42,11,.35,9.35.25,7.56.18,5.86.09,4.15ZM11.25,45.12,12.6,43.3c.45-.59.91-1.21,1.37-1.84.91-1.24,1.82-2.45,2.72-3.65l2.75-3.64,2.1-2.8,3.71-5,3.53-4.73c1-1.41,1.57-2.11,1.57-2.12a14.69,14.69,0,0,0-.65-2.3c-.43-1.33-.71-2.17-.83-2.52s-.43-1.26-.84-2.46a13.61,13.61,0,0,1-.67-2.3L.78,2.45l.74,15.23,1.47,1-.44,7.73H1.2L.78,44.81l7.79,3.93A11.71,11.71,0,0,1,9.83,47C10.42,46.23,10.89,45.62,11.25,45.12Zm-.59-14.24L9.84,15.29a12,12,0,0,1,2.28.7l2.46.87q.43.16,2.49.84c1.37.44,2.06.75,2.06.92v3.06s-.41.49-1.24,1.41S16.15,25,15.12,26.15s-2,2.17-2.87,3.13A16.47,16.47,0,0,1,10.66,30.88ZM29.88,1.42,30,1.33h.34l.52.09.52.09.53.09.51.08.53.09.49.08.53.1.51.07.52.09.52.09.43.09.51.08.53.09.51.09.53.09.51.07.53.1.51.08.53.08.51.09.53.09.51.09.51.09.53.07.51.1.52.07.52.11.52.07.52.09.43.09.53.08.51.09.53.09.51.07.51.11.53.07.51.1.53.07.51.09.51.09.53.09.51.09.52.08.52.09.27.09.07.07.1.09.08.18.08.08.09.09.09.18.09.09.09.16.08.08.09.09.08.18.1.09.07.17.09.09.09.09.08.16.09.09.09.17.09.09.09.09.08.17.09.09L55.2,8l.08.09.09.18.09.08.09.09.08.35.09.17.09.26.09.18.09.26.07.17.09.25.09.18.08.26.09.18.09.25.09.17.08.27.09.17.09.25.09.18.07.16.09.26.09.18.09.26.08.18.09.25.09.17.09.27.08.17.09.25.08.18.08.26.09.18.09.25.09.17.09.26.08.18.09.25.07.18.11.26.07.17.1.25.08.18.08.26.09.18.09.25.09.17.09.18.07.26.1.18.07.25.09.17.09.27.09.17.09.25.08.18.09.26v.51l-.09.09-.08.09-.09.18-.09.08-.09.17-.09.08-.07.09-.1.18-.07.08-.09.09-.09.16-.09.09L59,22l-.08.09-.08.08-.1.16-.07.11-.11.16-.07.09-.09.08-.08.18-.09.09-.09.16-.09.1-.09.07-.08.18-.08.09-.09.09-.08.17-.09.09-.09.16-.09.09-.08.09-.09.17-.09.09-.09.18-.07.08-.09.09-.09.16-.09.09-.08.18-.09.08-.09.09-.09.18-.08.09-.09.07-.09.17-.07.09-.09.18-.09.09-.09.08-.09.18-.08.07-.09.18-.34.09-.09.08h-.17L54.59,27l-.33-.09L54,26.84h-.26l.09.07.09.17.08.18.09.09.08.17.1.08.07.17.09.09.09.18.08.17.09.09.09.16.09.1.09.17.08.08.09.18.08.18.08.08.09.18.09.07.09.18.08.09.09.17.09.18.09.07.09.18.07.08.09.18.09.09.08.17.09.16.09.09.09.18.08.09.09.17.09.18.09.09L57,32l.09.08.09.18.09.09.08.17.09.18.09.09.09.16.08.09.09.17.08.09.08.18.09.17.09.08.09.17.09.09.08.26v5.79l-.08.09-.09.26-.18.09-.09.09-.16.08-.17.08-.09.09-.18.08-.17.09-.09.09-.16.09-.18.08-.09.09-.17.09-.18.09-.08.07-.18.09-.16.09-.09.09-.18.08-.17.09-.09.09-.17.09L55,42.3l-.08.09-.18.08-.09.1-.17.07-.18.09-.07.09-.18.09-.17.08-.09.09-.18.09-.17.09-.08.07-.17.1-.18.08-.09.08-.17.09-.18.09-.07.09-.18.09-.17.07-.09.1-.18.07-.17.11-.07.07-.18.09-.18.09-.08.08-.18.09-.09.09-.17.09-.17.09-.08.07-.18.09-.17.08-.09.09-.18.09-.16.09-.09.09-.17.08-.18.09-.09.09-.17.07-.18.09-.07.09-.18.09-.17.08-.09.09-.18.09-.17.09-.08.09-.17.08-.18.08-.09.09-.17.08-.18.09-.07.09-.18.09-.08.08-.18.09-.18.09-.07.09-.17.09-.18.07-.09.09-.17.09L45.6,48l-.09.09-.16.09-.17.09-.09.08-.18.09-.17.09-.09.07-.16.09-.18.09-.09.09-.17.09-.18.08-.09.09-.17.09-.16.09-.09.08-.18.08-.17.09-.09.08h-.51l-.35-.08-.34-.09-.35-.08L41,49.31l-.34-.09-.35-.09L40,49,39.55,49l-.34-.09L39,48.78l-.18-.09-.17-.09-.18-.07-.25-.09-.17-.09-.18-.08-.18-.09-.17-.09L37.4,48l-.18-.08L37,47.83l-.18-.09-.17-.07-.18-.09-.16-.09-.18-.09-.25-.09-.17-.08-.18-.09-.17-.09L35.14,47,35,46.88l-.17-.09-.26-.08-.17-.08-.18-.09L34,46.45l-.16-.09-.17-.09-.18-.08-.26-.09L33.06,46l-.14-.09-.18-.07-.18-.09-.17-.09-.25-.08L32,45.5l-.17-.09-.18-.09-.17-.09-.17-.08-.17-.09L30.83,45l-.17-.09-.18-.09-.17-.09-.16-.09L30,44.55l-.18-.09-.24-.09-.18-.07-.18-.11-.08-1.37L29,41l-.09-1.73-.09-1.81-.09-1.73-.07-1.82-.1-1.82-.07-1.72-.09-1.81-.09-1.72L28.24,25l-.09-1.81-.08-1.72L28,19.66l-.09-1.82-.09-1.73-.07-1.81-.09-1.73-.09-1.82-.08-1.81-.09-1.73-.09-1.82V4.44l.09-.07.09-.18.08-.09L27.64,4l.09-.08.07-.09.09-.09L28,3.68l.09-.18.08-.1.09-.07.09-.09.09-.09.09-.09.07-.17.1-.08.07-.1.09-.07.09-.09L29,2.46l.09-.17.08-.09.09-.09L29.37,2,29.44,2l.11-.1.07-.08.09-.17.08-.09Zm3.8,43.13c.73-.39,1.52-.85,2.36-1.38l2.37-1.5c1.43-.89,3-1.85,4.74-2.85L45,37.72c1-.59,2.07-1.21,3.18-1.88s2.1-1.29,3-1.86,1.33-.9,1.33-1l0-6.2L38.16,33l-1.38-8.68,4.09.22,1.3-1.32L40.94,17l-4.73-.24L35,11.66l10.65,2.21-.19,1.36L49,16.29c.07-.05.4-.48,1-1.28s1.23-1.68,1.91-2.63,1.3-1.8,1.86-2.59.84-1.18.84-1.19a3.82,3.82,0,0,0-.67-1.1c-.45-.62-.73-1-.85-1.19a1.63,1.63,0,0,0-1.28-.62c-.62-.06-1.17-.14-1.66-.23-1.09-.17-2.19-.35-3.3-.55l-3.29-.54L40.86,4c-1.35-.21-2.77-.43-4.26-.68s-2.85-.48-4.08-.7a14.74,14.74,0,0,1-2.11-.47,4.88,4.88,0,0,0-.75.76c-.29.36-.54.65-.74.87a8.1,8.1,0,0,0-.71.86A2.26,2.26,0,0,0,28.08,6c.1.87.17,1.86.22,3s.09,2.12.12,3,.09,2,.16,3,.1,2,.09,3c0,.7,0,1.71.09,3s.15,2.3.24,2.93a10,10,0,0,1,.1,1.49c0,.67,0,1.18,0,1.52s0,1,.08,1.51A13.44,13.44,0,0,1,29.28,30c0,1,0,2,.13,3s.12,2,.12,3c0,.66,0,1.67.1,3s.15,2.34.24,3c.14.9.15,1.38,0,1.43s.27.19,1.25.41l1.29.33ZM47.42,24.14v-.07l-.11.07Zm0,0,.08.18.09.08.09.09.09.18.09.09.08.08L48,25l.1.09.07.09.09.18.09.08.09.18.08.09.09.09.09.17.09.07.07.09.1.18.08.09.09.26.08.42.09.18.26-.09.18-.09.16-.08.27-.09.17-.07.18-.11.25-.07.17-.09.18-.09.26-.08.16-.09.18-.09.19,0-.26-.05L51.49,26,51.4,26l-.09-.1-.08-.07-.09-.18-.09-.09L51,25.36l-.09-.09-.08-.18-.08-.16-.09-.09-.35-.08-.35-.09-.42-.09-.44-.09-.43-.09-.44-.08-.42-.09ZM77.55,1.25l.28-.09H78l.09.09.1.1.09.09.09.08.09.18.1.1.09.09.09.09.08.09.11.1.08.17.09.09.09.09.1.1.09.09.09.18.09.1.1.09.09.08.08.09.09.19.1.09.09.09.09.09.09.1.1.17.09.09.09.1.08.09.11.09.08.19.09.09.09.09.1.17.09.19.09.18.09.19.08.17.11.2.09.17.08.19.09.18.1.19.09.17.09.19.09.18.1.19.09.18.09.19.08.17.11.28.08.19.09.18.09.17.1.19.09.18.09.19.09.18.1.19.09.17.08.19.09.18.1.19.09.17.09.19.09.18.1.19.09.18.09.17.08.19.11.18.08.19.09.17.09.19.1.18.09.19.09.18.09.17.08.19.11.18.09.19.08.17.09.2.1.17.09.19.09.18.09.19.1.17.09.19.09.18.08.19.11.18.08.19.09.17.09.19.1.18.09.19.09.17.09.2v.73l-.09.17-.09.19-.09.27-.1.19-.09.17-.09.19-.08.27-.11.19-.08.17-.09.28-.09.18-.1.19-.09.17-.09.28-.09.18-.1.19-.09.28-.08.17-.09.19-.11.18-.08.28-.09.17-.09.19-.09.27-.1.19-.09.17-.09.19-.08.27-.11.19-.08.17-.09.28-.09.18-.1.19-.09.17-.09.28-.09.18-.1.19-.09.28-.08.17-.09.18-.1.19-.09.28-.09.17-.09.19-.1.27-.09.19-.09.17-.08.19-.11.28-.08.18-.09.19-.09.17-.1.28-.09.18L82,29l-.09.28-.1.17-.09.18-.08.19-.09.28-.11.17-.08.19-.09.27V31l.09.08.08.11.11.08.09.09.08.09.09.09.1.1.09.09.09.09.09.19.1.08.09.09.09.09.08.09.11.1.08.09.09.09.09.08.1.11.09.08.09.09.09.09.1.09.09.1.08.09.09.09.1.08.09.11.09.08.09.09.1.09.09.1.09.09.08.09.11.09.08.08.09.11.09.08.1.09.09.09.09.1.09.18.08.09.11.1.09.09.08.09.09.08.1.11.09.08.09.09.09.09.1.1.09.09.09.09.08.09.11.1.08.09.09.08.09.09.1.1.09.09.09.09.09.09.1.1.09.09.08.09.09.08.1.11.09.08.09.09.09.09.1.1.09.09.09.18.08.08.11.11.08.08.09.09.09.09.1.1.09.09.09.09.09.09L89,39l.11.09.09.09.08.19.09.08.1.09.09.09.09.19.09.09.1.09.09.08.09.11.08.17.11.09.08.1.09.09.09.09.1.17.09.11.09.08.09.09.1.09.09.19.08.09.09.09.1.1.09.09.09.17.09.09.1.1.09.09.09.18.08.1.11.09.08.08.09.09.09.19.1.09.09.09.09.09.09.1.08.18.11.08.09.11.08.08.09.09.1.19.09.09.09.09.09.19.1.45.09.37.09.45.08.46.11.36L94,47l.09.47.09.36v.37L94,48.3l-.08.26-.65.1-1.55.09-1.55.09-1.56.09-1.56.1-1.56.09h-1L84.32,49l-.09-.1L84,48.84,84,48.75l-.18-.09-.1-.1-.17-.09-.09-.09-.19-.08-.09-.09-.19-.1L82.85,48l-.17-.09-.11-.09-.17-.1-.09-.09-.19-.09L82,47.48l-.19-.11-.09-.08-.17-.09-.11-.09L81.3,47l-.09-.09L81,46.83l-.09-.09-.17-.1-.11-.09-.17-.09-.09-.08-.19-.09-.09-.1-.19-.09L79.83,46l-.17-.09-.1-.1-.09-.09-.18-.09-.1-.08L79,45.45l-.08-.08-.19-.09-.09-.09-.19-.1L78.37,45l-.18-.09-.1-.09-.26-.1-.11-.09-.08-.17-.09-.19-.09-.09L77.37,44l-.1-.09-.09-.17-.09-.19L77,43.45l-.11-.19-.08-.18L76.73,43l-.09-.19-.1-.09-.09-.17-.09-.19-.09-.09-.1-.19L76.08,42,76,41.81l-.09-.19-.1-.09-.09-.18-.09-.19-.18-.1v.19l-.09.19-.09.18-.08.1-.11.17-.08.18-.09.19-.09.18-.1.19-.09.17-.09.19-.09.18-.1.19-.09.09-.08.17-.09.19L74,44l-.08.19-.09.18-.09.19-.09.17-.1.19-.09.18-.09.19-.08.09-.11.19-.08.17-.09.19-.09.18-.1.19-.09.17-.09.18-.09.19-.1.18-.09.1-.08.18-.28.08-.09.11h-.64l-1.73-.11-1.66-.08-1.73-.09-1.56-.09-.27-.1-.19-.09-.17-.09-.28-.09-.19-.1-.18-.09L63,46.46l-.17-.08-.19-.09-.27-.1-.19-.09L62,46l-.28-.09-.19-.1-.18-.09-.28-.09-.17-.08-.28-.11-.19-.08-.18-.09L60,45.19l-.18-.1L59.62,45l-.28-.09-.17-.09-.2-.1-.26-.09-.19-.08-.18-.09-.27-.1-.16-.09-.2-.09-.27-.09-.18-.1-.19-.09-.26-.09-.19-.08-.18-.11-.28-.08L56,43.45l-.26-.09-.19-.1-.18-.09-.28-.09L54.89,43l-.19-.1-.28-.09-.18-.09-.19-.08-.26-.09-.19-.1-.18-.09-.28-.09L53,42.17l-.26-.1-.1-.35-.09-.56-.09-.45-.09-.54-.1-.56-.09-.45-.08-.55L52,38.06l-.1-.46-.09-.54-.09-.56v-.36l.09-.09.09-.09.1-.1.09-.09.08-.09.09-.08.1-.11.09-.08.09-.09.09-.09.19-.1.09-.09L53,35l.11-.09.08-.1.09-.09.09-.09.1-.08.09-.11.09-.08.09-.09.1-.09.09-.09.08-.1.09-.09.11-.09.08-.08.09-.11.09-.08.1-.09.09-.09.09-.1.09-.09.1-.09.09-.09.08-.08.09-.11.09-.08.1-.09.09-.09.09-.1.09-.09.1-.09.09-.09.08-.08.09-.11.1-.08.09-.09.09-.09.09-.1.1-.09.18-.09.08-.09.11-.08.08-.11L57,31l.09-.09.1-.09.09-.1.09-.09.09-.09.1-.09.09-.1.08-.09.09-.08.11-.09L58,30l.09-.08.08-.09.11-.09.08-.1.09-.09.09-.09.1-.09.09-.08.09-.11.09-.08L59,29l.11-.09.09-.1.08-.09.09-.09.1-.09.09-.1.09-.09.09-.08.1-.09.09-.1L60,28l.08-.09.11-.09.08-.1.18-.09.1-.09.09-.08.09-.11.09-.08.1-.09L61,27.1l.08-.1.09-.09.1-.09.09-.09.09-.1.09-.09.1-.08.09-.09.09-.11.08-.08.11-.09.08-.09.09-.1.09-.09.1-.09.09-.09.09-.08.09-.11.08-.08.11-.09.09-.09.08-.1.09-.09v-.28L63,24.62l-.08-.08-.09-.09-.11-.09-.08-.1-.09-.09L62.46,24l-.09-.1-.1-.09-.09-.08-.09-.09L62,23.54l-.11-.1-.08-.09-.09-.18-.09-.1-.1-.09-.09-.08-.09-.09-.09-.1-.1-.09-.09-.18L61,22.35l-.09-.1-.1-.09-.09-.08L60.63,22l-.09-.11-.1-.08-.09-.18-.09-.09-.08-.1-.11-.09L60,21.25l-.09-.08-.09-.11-.1-.17-.09-.09-.09-.1-.09-.09-.1-.09-.09-.09-.08-.08-.09-.11L59,20.07,58.89,20l-.09-.1-.09-.09-.09-.09-.1-.09-.09-.08-.09-.19-.08-.09-.11-.09-.08-.1L58,19l-.07-.09-.11-.09-.09-.19-.08-.08-.09-.09-.1-.09-.09-.1-.09-.09-.09-.09-.1-.09L57,17.78l-.09-.08-.08-.09-.11-.11-.08-.08-.09-.09-.09-.09-.1-.19L56.25,17l-.09-.08-.09-.11-.1-.09-.09-.08-.08-.09-.09-.09-.1-.19-.09-.09-.09-.09-.09-.1-.1-.09-.09-.08-.09-.09L55,15.5l-.09-.09-.1-.09-.09-.1-.09-.09L54.52,15l-.1-.08-.09-.11-.09-.17-.08-.09-.11-.1L54,14.4l-.08-.09-.09-.09-.1-.1L53.6,14l-.09-.09-.09-.11-.1-.08-.09-.09-.09-.09V13.3l.09-.54.09-.65.1-.54.09-.64.09-.54.09-.55.1-.64.09-.56L54,8.47l.09-.09.19-.09.18-.1.19-.09L54.7,8l.19-.09.17-.1.18-.09.19-.08.18-.09.19-.1.08-.09.19-.09.18-.09.19-.1L56.62,7l.19-.09L57,6.83l.09-.11.19-.08.18-.09.19-.09.17-.1L58,6.27l.17-.09.11-.09.17-.1.19-.09.18-.08L59,5.73l.2-.11.17-.08.1-.09.18-.09.19-.1L60,5.17l.19-.09L60.35,5h.28l.09.17.09.19.1.09.09.09.08.08.09.11.1.17.09.09.09.1.09.09.1.09.09.19.09.09.08.09.11.08.08.11.09.17.09.09.1.1.09.09.09.09.09.19.08.09.11.08.09.09.08.1.09.18.1.09.09.1.09.09.09.09.1.17.09.11.09.08.08.09.11.09L64,9.2l.09.09.09.09.1.1.09.09.09.17.09.1.1.09.09.09.08.09.09.19.1.09.09.08.09.09.09.1.1.18.09.09.09.1.08.09.11.09.08.17.09.1.09.09.1.09.09.09.09.19.09.09.08.08.11.09.09.1.08.18.09.09.1-.27L67,12l.09-.37.09-.37.1-.36.09-.27.09-.36.08-.37.11-.36.08-.28.09-.37.09-.37.1-.26.09-.37.09-.36.09-.37.1-.28.09-.36.08-.37.09-.28.1-.36.09-.37L69,4.8,69,4.54l.1-.37.18-.1L69.59,4l.28-.08.27-.09.28-.1.27-.09L71,3.53l.28-.09.27-.09.18-.1L72,3.16l.28-.08L72.52,3l.27-.1.28-.09.27-.09.28-.09.18-.1.28-.09.26-.09.28-.08.28-.09.28-.1L75.44,2l.28-.09L76,1.8l.17-.1.28-.09.28-.09L77,1.44l.26-.09ZM69.77,4.82,66.52,16.9,60.25,6,54.64,9,54,13.18,64.34,25,52.53,36.59l.79,4.75,8.51.47,6.94-13.2.08,0L78.3,44l.07-.08L89,43.26a15.5,15.5,0,0,0-.32-1.86c-.2-.91-.34-1.55-.45-1.92a6.55,6.55,0,0,0-1-1.21L86,37c-.79-.78-1.56-1.55-2.3-2.32s-1.49-1.55-2.27-2.34S79.88,30.82,79.14,30s-1.49-1.58-2.25-2.35c-.22-.2-1-1-2.44-2.48S72.33,23,72.33,23a35.86,35.86,0,0,1,1.76-4.18c1.17-2.58,1.87-4.17,2.1-4.75s.89-2.1,2.11-4.77,1.81-4.07,1.81-4.2A6,6,0,0,0,79,3.55a16.7,16.7,0,0,0-1.34-1.47Zm36.74-3.37.26-.06.27.05,0,.33.07.11.07.17.06.19.07.18.06.08.08.2,0,.17.08.19.07.09.06.19.06.18.07.17.07.1L108,4l.06.18.09.1.06.17,0,.18.27-.06.26,0,.35,0,.35,0,.36,0,.35,0,.35,0,.26,0,.35,0,.25,0,0,.25,0,.17.08.18.06.18.07.1.07.19.06.17.06.18.07.19.06.18.07.17.06.18.06.19.08.17,0,.19.08.09.06.19.07.18.06.17.06.18.07.19.06.18.06.19.07.17.06.18.07.19.06.09.07.17.06.19.08.18,0,.17.06.19.08.18,0,.19.06.18.08.17.07.1.06.18.06.18.07.19.06.17.06.19.07.18.06.17.06.18.07.19.06.18.07.1.08.17.05.18.08.19.06.18,0,.17.08.19.06.18.06.17,0,.2.09.08.06.18.06.19.07.17.06.2.06.17.07.18.06.17.06.19.07.18.06.19.07.09.06.19.08.17.06.18.07.18.06.19.06.17.07.19,0,.27,0,.24-.26,1.44-.28,1.44-.26,1.43L115,23.76l-.13,1L115,25l.06.18.09.1.06.18.07.1.06.19.07.17.06.09.07.19.08.09,0,.19.08.18.07.08.06.19.07.09.08.19.05.18.08.09.06.19.08.08.06.18.06.19.08.1.07.18.07.1.06.18.07.17.06.11.08.17.07.1.06.18.06.18.08.1.06.17.08.11,0,.17.08.18.07.1,0,.44-.28,2.9L117,35.24l-.12.25-.1.08-.1.16-.09.07-.1.07-.1.08-.09.07-.1.07-.11.16-.1.08-.09.07-.09.07-.1.09-.09.06-.11.18-.09.06-.1.07-.09.09-.1.07-.11.16-.1.07-.09.06-.1.09-.1.07-.09.08-.1.16-.1.07-.09.07-.11.08-.08.07-.11.07-.1.17-.1.07-.09.07-.1.08-.09.07-.1.16-.1.07-.09.09-.1.06-.11.07-.09.09-.11.15-.09.09-.1.07-.11.16-.1.07-.09.06-.1.18-.1.06-.1.16-.11.07-.1.16-.09.07-.11.17-.09.07-.1.16-.11.07-.08.09-.12.15-.09.07-.12.16-.08.08-.11.16-.1.07-.1.16-.1.07-.11.16-.1.08-.09.07-.1.16-.1.08-.11.16-.1.07-.1.16-.1.07-.11.17-.1.07-.1.16-.09.07-.1.08-.1.16-.11.07-.1.16-.09.08-.1.16-.1.07-.1.16-.11.07-.1.17-.1.07-.09.07-.12.16-.08.08-.11.16-.1.07-.18.06-.1.07-.09.08-.1.08-.09.08-.1.06-.09.08-.1.08-.1.07-.09.07-.1.08-.09.07-.1.07-.09.08-.1.07-.09.07-.1.09-.11.06-.08.07-.11.09-.08.07-.18.06-.1.08L105,47l-.08.07-.11.07-.08.09-.11.06-.08.09-.11.07-.08.08-.11.07-.08.07-.11.08-.09.07-.1.07-.09.08-.1.07-.09.07-.1.07-.1.08-.09.09-.18.05-.1.08-.1.07-.09.07-.1.08-.09.07-.1.09-.09.06-.1.07-.09.09-.1.07-.1.07-.09.08-.1.07-.09.07-.11.08-.08.07-.11.07-.08.08-.11.07-.1.07-.26.06-.34,0-.23-.12-.16-.1-.17-.1-.24-.14-.17-.1-.16-.1-.23-.12-.16-.1-.16-.1-.25-.13-.16-.11-.15-.1-.25-.12-.16-.1-.16-.1-.25-.13L97.37,48l-.15-.1L97,47.75l-.16-.11-.16-.09-.25-.13-.16-.11-.15-.1-.25-.12L95.68,47l-.16-.1-.25-.12-.16-.1L95,46.55l-.23-.11-.16-.12-.17-.1-.24-.12L94,46l-.18-.11-.23-.11-.16-.12-.16-.1L93,45.44l-.15-.1-.17-.11-.24-.11L92.3,45l-.16-.1L92,44.79l-.16-.1-.16-.11-.24-.12-.16-.1-.16-.11-.16-.1L90.78,44l-.16-.1-.17-.1-.14-.1-.16-.12-.15-.1-.16-.11-.16-.1-.16-.12-.16-.1-.17-.1L89,42.86l-.16-.1-.14-.1-.17-.11-.24-.11-.17-.12-.16-.1-.16-.11L87.67,42l-.16-.11-.15-.1-.16-.1L87,41.57l-.16-.1-.16-.1-.16-.11-.16-.11L86.25,41l-.18-.1-.14-.1-.16-.12-.16-.1-.17-.1-.16-.1.08-.52.13-.42.13-.41.15-.41.14-.5.13-.41.15-.43.15-.49.14-.41.14-.43.14-.5.15-.41.13-.41.13-.41.16-.51.14-.41.14-.41.15-.5.15-.42L88,31.6l.13-.41.16-.5.13-.43.15-.41.12-.33.17-.06.27,0v-.16l-.16,0L89,29.21l-.17-.12L88.71,29l-.07-.08-.16-.12-.08-.09-.16-.12-.07-.08L88,28.39l-.08-.09-.16-.1-.07-.1L87.54,28l-.07-.1-.17-.1-.07-.09-.07-.1L87,27.5l-.08-.11-.16-.1-.07-.09-.16-.12L86.46,27l-.17-.11-.16-.11-.07-.09L86,26.5l-.09-.09-.06-.17-.07-.11L85.72,26l-.07-.11-.07-.17-.08-.1-.06-.18,0-.19-.08-.09L85.24,25l-.07-.11-.06-.17-.08-.1L85,24.39l-.07-.1-.06-.18-.07-.1-.08-.18-.07-.08-.06-.2-.07-.08-.06-.18-.09-.1L84.27,23l-.07-.1-.06-.18-.09-.1L84,22.46l-.07-.11-.06-.17-.07-.1-.07-.18-.06-.18-.08-.1,0-.17-.08-.09-.07-.19-.07-.09-.06-.19-.08-.09-.07-.18-.07-.1L83,20.35l-.07-.11-.08-.17-.06-.1-.07-.18-.07-.09-.06-.19-.07-.09,0-.26.09-.07.11-.08.08-.07.11-.07.1-.16.09-.08.1-.07.1-.07.1-.16.11-.08.08-.07.11-.07.1-.17.1-.07L84,17.8l.1-.09.1-.15.09-.08.11-.06.08-.08.12-.16.09-.07.1-.09.09-.07.12-.16.08-.08.11-.07.08-.07.11-.08.1-.16.09-.07.1-.07.1-.08.1-.16.09-.07.1-.07.11-.08.1-.16.09-.07.1-.08.09-.07.12-.16.08-.07.11-.08.08-.07.12-.16.09-.07.1-.09.09-.06.1-.07.1-.16.09-.08.1-.09.09-.07.12-.16.09-.07.1-.06.09-.09.12-.15.08-.08.11-.08.1-.07.09-.16.1-.08.1-.07L89,13l.12-.16.08-.08.11-.07.08-.07.11-.08.1-.16.1-.07.09-.07.1-.08L90,12l.08-.07.09-.07.09-.08.12-.16.08-.07.11-.07.08-.09.12-.15.09-.07.1-.08L91,11l.1-.16.11-.07.1-.09.09-.07.1-.17.1-.07.1-.06.09-.09.1-.07L92,10l.08-.07.11-.08.08-.07.12-.16.09-.07.1-.08.09-.07.12-.16.09-.07.1-.08L93.11,9l.1-.16.1-.08.09-.07.1-.07.1-.16.11-.08.08-.07.11-.07.1-.08L94.1,8l.09-.07.1-.07.1-.08.11-.16.08-.07.11-.07.09-.09.11-.15L95,7.16l.1-.07L95.17,7l.12-.16.09-.06.1-.09.09-.07.1-.17.1-.07.09-.07.1-.08.1-.16L96.17,6,96.25,6l.11-.08.09-.07.11-.16.09-.07.1-.08.09-.07.1-.16.11-.07.1-.08L97.24,5l.11-.16.09-.08.1-.07.09-.07.1-.16.11-.08.08-.07L98,4.26l.1-.14.1-.08L98.32,4l.1-.09.09-.07.12-.15.09-.09.1-.07.09-.07.1-.16.1-.08.09-.07.1-.07.1-.16.11-.08.1-.07.09-.07.1-.08.26,0,.27-.06.35,0,.26-.06.27-.05.35,0,.26-.06.28-.06.26,0,.35-.05.27,0,.26-.06.35,0,.27-.06.26,0,.35-.05.27-.06.27,0,.34,0,.28-.06.26-.05.27-.06ZM83.42,19.54s.51,1,1.51,3.07,1.58,3.17,1.73,3.43L104,25.93a9.7,9.7,0,0,1-1.12.86l-2.37,1.68c-.85.6-1.64,1.15-2.36,1.64s-1.08.73-1.08.72c-.19,0-.39-.27-.6-.75s-.38-.73-.49-.75a28.74,28.74,0,0,0-3.46.39,25.47,25.47,0,0,0-3.28.57l-3.15,9.76,6.12,4a10.47,10.47,0,0,0,1.31-.9c.6-.45,1-.8,1.34-1l1.3-1,1.32-1c.27-.2.73-.53,1.39-1a8,8,0,0,0,1.27-1q1-1.14,2.19-2.49,2.46-2.83,4.47-4.92a22.72,22.72,0,0,1,2.46-2.21,17.36,17.36,0,0,0,2.39-2.23c.07-.62.12-1.19.16-1.72s.1-1.1.18-1.7a14,14,0,0,0,.15-1.64c0-.14-.51-.21-1.5-.19a12.93,12.93,0,0,1-1.64,0l-1.61-.1c-.53,0-1.09-.05-1.68-.05a14.7,14.7,0,0,1-1.59-.1,25.17,25.17,0,0,0-3.29-.14,19.92,19.92,0,0,1-3.24-.18,22.49,22.49,0,0,0-3.24-.14,20.91,20.91,0,0,1-3.31-.19l11.6-8-.94,6,6.38-.69,2.27-12.48-3.61.47-.36-3.24a10.21,10.21,0,0,0-2,.26c-.9.19-1.58.32-2.05.38l-1,.18-1,.15a1.26,1.26,0,0,0-.77.47c-.24.27-.46.49-.65.67-.89.8-1.77,1.63-2.64,2.5L93.76,9.45c-.26.26-.94.92-2.05,2l-3.49,3.34C87,15.94,85.89,17,84.91,18A11.93,11.93,0,0,0,83.42,19.54ZM147.76.34,148,.25h.16l.09.17.08.17.09.26.08.23.08.18.09.25.09.16.07.25.09.26.07.16.09.25.09.25.09.16.07.25.09.18.09.25.07.25.09.16.09.25.07.24.09.18L150,5l.08.17.09.25.08.25.09.25.07.17.09.25.08.25.08.25.09.16.09.25.07.25.09.25.09.25.09.17.07.25.09.25.07.25.09.16.09.25.08.25.08.25.09.17.08.25.09.25.07.25.09.16.08.25.08.25.09.26.09.24.07.17.09.25.09.25.07.25.09.16.09.25.07.25.09.26.09.17.07.25.09.24.09.25.08.16.08.27.08.23.08.27.09.24L154,16l.09.25.07.24.09.25.09.18.09.25.07.25v.5l-.07.24-.09.25-.09.33-.09.26-.07.25-.09.32-.08.26-.09.24-.08.34-.08.26-.08.23-.08.34-.09.25-.09.25-.07.32-.09.26-.09.25-.07.33-.09.24-.09.27-.07.32-.09.25-.09.25-.07.34-.09.24-.09.25-.08.34-.08.25-.09.25-.07.34-.09.24-.08.25-.09.34-.08.25-.08.25-.09.32-.09.26-.07.24-.09.34-.07.24-.09.25-.09.34-.09.25-.07.25v.25l.07.09.09.16.09.17.09.09.07.16.09.16.07.09.09.16.09.34v.16l-.09.18-.09.24-.07.25-.09.25-.07.25-.09.25-.09.25-.09.25-.07.25-.09.17-.09.24-.08.26-.08.25-.09.25-.07.25-.09.25-.08.25-.09.25-.08.16-.08.25-.09.24-.07.25-.09.25-.09.27-.07.23-.09.26-.09.17-.07.24-.09.25-.09.25-.09.25-.07.25-.09.25-.07.25-.09.09-.17.08-.08.09-.09.08H148v.24l-.08.25-.08.25-.09.18-.09.25-.07.25-.09.16-.09.25-.09.25-.07.24-.09.18-.07.25-.09.25-.09.25-.08.16-.08.25-.09.25-.08.26-.08.16-.08.25-.09.25-.08.25-.08.16-.09.25-.07.25-.09.25-.09.17-.09.25-.07.25-.09.16-.07.25-.09.25-.09.26h-.25v.16l-.16.08-.25.09-.33.08-.25.09-.34.07-.25.09-.32.08-.27.08-.33.09-.24.09L142,49l-.25.09-.34.09-.25.09-.34.07-.24.09-.34.07-.25.09-.34.09-.25.08h-.58l-.16-.08-.16-.09-.18-.09-.16-.07-.16-.09-.18-.07-.16-.09-.16-.09-.09-.09-.17-.07-.17-.09-.16-.09-.17-.08-.16-.08-.18-.09-.16-.07-.16-.09-.18-.08-.16-.09-.17-.08-.17-.08-.07-.08-.17-.08L135,47.8l-.17-.09-.16-.07-.16-.09-.18-.09-.16-.09L134,47.3l-.07.07-.09.27-.07.25-.09.08-.09.16-.16.08-.09.09-.17.08-.07.09-.09.07-.16.09-.09.08-.16.08-.09.09-.18.09-.07.07-.09.09-.16.09-.09.09-.16.07-.09.09-.08.07-.16.09-.09.09-.16.08-.09.08-.16.09-.09.07-.09.09-.16.08h-.5l-.17-.08-.24-.09-.17-.07-.25-.09-.16-.08-.25-.08-.18-.09-.16-.09-.25-.07-.17-.09-.25-.07-.16-.09-.25-.09-.16-.09L127,49l-.16-.09-.25-.09-.16-.08-.26-.08-.16-.09-.25-.07-.16-.09-.27-.08-.16-.09-.25-.08-.16-.08-.25-.08-.17-.08-.25-.09-.16-.09-.25-.07-.16-.09-.27-.09-.16-.09-.25-.07-.16-.09-.26-.07-.16-.09L122,47l-.16-.08-.27-.08-.16-.09-.25-.08-.16-.08-.25-.09-.17-.08-.25-.08-.16-.08H120l-.07.08h-.18l-.09-.25-.07-.33-.09-.34-.07-.32-.09-.34-.09-.34-.08-.33-.08-.32-.09-.34-.08-.34-.09-.34-.08-.32-.08-.33-.08-.34-.08-.34-.09-.32-.09-.34-.07-.33-.09-.34-.09-.32-.07-.34-.09-.34-.09-.33-.07-.33-.09-.33-.09-.34-.07-.34-.09-.32-.09-.34-.08-.33-.08-.33-.09-.33-.07-.34-.09-.34-.08-.32-.09-.34-.08-.33-.08-.34-.09-.32-.09-.34-.07-.34-.09-.33-.07-.32-.09-.34-.09-.34-.09-.34-.07-.32-.09-.33-.09-.34-.07-.34-.09-.32-.08-.34-.08-.33-.09-.34-.08-.32-.09-.34-.06-.34-.09-.32-.09-.34-.07-.33-.09-.33-.09-.33-.07-.34-.09-.34-.08-.32-.08-.34-.09-.33-.08-.34-.08-.32-.08-.34-.09-.34-.08-.33-.08-.34-.09-.32-.09-.34-.07-.32-.09-.34-.09-.33-.07-.34-.09-.41-.09-.34-.07-.32-.09-.34-.09-.33-.08-.34-.08-.32-.09-.34-.07-.34-.09-.33-.08-.33-.09-.33-.08-.34-.08-.34-.09-.32-.09-.34-.07-.33-.09-.34-.07-.32-.09-.34-.09-.34-.09-.32-.07-.34-.09-.33-.09-.33-.07-.33-.09-.34-.09-.34-.07-.32-.09-.34-.08-.33-.08-.34L110.43,9l-.08-.34-.09-.34L110.19,8l-.09-.32L110,7.34,109.94,7l-.09-.33-.09-.33L109.69,6l-.09-.34-.09-.34L109.42,5l-.07-.33-.09-.33L109.19,4l-.09-.32L109,3.34,108.93,3l-.08-.32V2.42h.25l.92.08.82.09.93.09.83.07.91.09.92.09.82.07.93.09.83.09.91.07.91.09.83.09.93.07.08.25.09.09.07.09.09.16.09.08.07.09.09.08.09.16.07.08.09.09.09.09.07.07.09.17.09.08.09.09.07.09.09.07.07.18.09.09.09.07.08.09.08.16.08.09.09.08.09.08.07.08.09.17.08.08.08.09.09.08.09.08.07.18.09.07.09.09.09.07.07.18.09.09.07.07.09.09.09.09.08.16.08.08.08.08.09.09.08.08.08.16.09.09.07.08.09.08.09.17.07.08.09.09L125,9l.09.07.07.16.09.09.07.09.09.09.09.07.09.18.07.07.09.09.08.08.09.17.08.08.08.09.08.08.08.08.09.16.09.09.07.09.09.07.09.09.07.16.09.09.09.09.07.07.09.18.09.08.09.08.07.09.09.07.08.17.08.09.09.08.08.08.08.09.08.16.09.09.08.07.08.09.09.16.07.09.09.09.09.07.07.09.09.16.09.09.09.09.07.08.09.08.09.16.07.09.09.09.09.08.07.16.09.09.08.08h.09l.32-.08.34-.09.34-.08.34-.08.41-.08.33-.09.34-.09h.32l.09.34.09.08.07.09.09.16.09.09.08.07L133,15l.09.09.07.07.09.09.08.16.09.09.08.09.08.16.09.08.09.08.07.17.09.08.07.09.09.17.09-.26.09-.41.07-.34.09-.32.09-.43.07-.33.09-.34.09-.41.07-.34.09-.32.08-.42.08-.33.09-.33.08-.43.09-.32.07-.34.09-.41.08-.34.08-.33.09-.43.09-.32.07-.34.09-.41.09-.33.09-.34.07-.41.09-.34.07-.33.09-.41.09-.34.08-.34.08-.41.09-.34.08-.32.09-.17.16-.09.16-.07.25-.09.25-.09.25-.07.25-.09.26-.09.24-.07.26-.09.25-.09.16-.07.25-.09L140,3l.25-.07.25-.09.26-.09.24-.07.26-.09.25-.09.16-.08.25-.08.25-.08.25-.08.25-.09.24-.08.27-.09.23-.07.27-.09.25-.09.16-.09.25-.07.24-.09.25-.07.25-.09.25-.09.25-.09.25-.07.25-.09.17-.07.25-.09.25-.09L147,.59l.25-.08.25-.09ZM132,28.56l-.25-13.74a14.22,14.22,0,0,1-2.26.64c-1.24.29-2.06.47-2.47.55a.83.83,0,0,0-.72.72c-.07.39-.14.81-.23,1.26s-.18.82-.26,1.22-.18.82-.27,1.25c-.16.83-.34,1.65-.53,2.45s-.35,1.61-.51,2.42c-.12.56-.31,1.4-.58,2.5a11.08,11.08,0,0,0-.41,2.4h-.14l-3.45-26-10.17-1,10.42,41.81a2.81,2.81,0,0,0,1-.57l1-.74q.67-.45,1-.69a2.16,2.16,0,0,0,.55-1.11q.33-1.32.75-2.58c.27-.85.53-1.72.79-2.62.08-.29.27-1,.58-2s.65-2.2,1-3.39.68-2.26,1-3.23a12.31,12.31,0,0,1,.55-1.6l2.76,18.24a11,11,0,0,0,2.1-.51l2.2-.69,1.07-.29,1.07-.31a1,1,0,0,0,.65-.75,7.73,7.73,0,0,1,.32-1c.23-.67.48-1.34.74-2s.5-1.33.74-2a19.13,19.13,0,0,1,.77-2,11.72,11.72,0,0,0,.68-2h.5c.17,0,.49-.72,1-2.15s.75-2.3.87-2.59.42-1.14.9-2.52.74-2.19.77-2.39l-1.58.16a42.14,42.14,0,0,1,1.28-4.5c.52-1.53,1-3,1.41-4.54.18-.64.67-2.24,1.49-4.77a34.59,34.59,0,0,0,1.22-4.25,7.48,7.48,0,0,0-.72-2,14.89,14.89,0,0,1-.86-2.29,10.26,10.26,0,0,0-1.93.6c-1,.37-1.67.62-2.06.75l-2,.7c-.68.25-1.35.48-2,.69a15.69,15.69,0,0,0-2,.75,5.79,5.79,0,0,0-.64,2.05c-.16.75-.34,1.5-.52,2.23s-.34,1.46-.49,2.16c-.09.45-.35,1.6-.77,3.44s-.86,3.79-1.34,5.84-.91,3.91-1.31,5.57A22.94,22.94,0,0,1,132,28.56ZM163.48,1.48l.07-.07H164l.41.07.25.09.34.07.25.09.34.09.32.08.26.08.32.09.25.08.43.08.32.08.26.09.34.08.32.08.25.09.34.09.25.07.34.09.33.07.32.09.34.09.25.09.25.07.09.09.07.09.09.08.09.17.08.07.08.09.09.08.08.17.09.08.07.08.09.08.08.09.08.16.09.09.09.09.07.07.09.18.09.07.09.09.07.09.09.16.07.09.09.08.09.08.08.16.08.09.09.08.08.09.08.08.08.17.09.07.08.09.08.09.09.07.07.18.09.09.09.07.07.09.09.16.09.09.07.09.09.07.09.09.09.17.07.08.09.08.07.16.09.09.09.16.08.09.08.09.09.07.08.09.09.16.07.09.09.09.08.07.08.18.09.07.09.09.07.09.09.07.09.17.09.09.07.08.09.08.07.16.09.09.09.09.08.07.08.09.09.16.08.09.08.09.08.16.09.09.08.09.08.07.09.09.07.16.09.09.09.08.07.08.09.17.09.09.07.07.09.09.09.07.09.18.07.09.09.07.07.09.09.16.09.09.08.09.08.16.09.25.08.33.09.25.07.25.09.34.08.34.08.23.09.26.09.33.07.24.09.34.09.25.09.34.07.33.09.25.07.33.09.24.09.27.08.32.08.25.09.34.08.33.08.25.08.34.09.25.08.32.08.26.08.25.08.25.09.32.09.34.07.25.09.34.08.25.08.32.09.25.09.33.07.34.09.25.09.34.07.25.09.25.09.32.07.26.09.34.09.32.07.25.09.25.08.34.09.24.08.34.08.25.08.32.08.27.09.33.09.24.07.33.09.25.09.34.07.25.09.34.09.33.07.25.09.33.09.24.09.25.07.27.09.32.07.25.09.33.09.34.08.25.08.34.08.25.09.32.09.26.07.32.09.25.07.34.09.25.09.34.09.25.07.33.09.25.09.32.07.27.09.32.09.25.07.34.09.25.09.24.07.34.09.25.08.34.09.32.08.26.08.33.08.24.08.34.09.25.09.34.07.25.09.24.09.34.07.34.09.25.09.25.07.32.09.26.09.33.09.33.07.25v.59l-.07.25-.09.08-.09.08-.09.09L188,47l-.09.09-.09.07-.07.17-.09.08-.09.09-.07.09-.09.07-.09.09-.08.07-.08.09-.08.09-.08.09-.09.07h-.74l-.52-.07-.41-.09-.49-.09-.43-.09-.41-.07-.5-.09-.49-.07-.43-.09-.5-.09-.5-.08-.41-.08-.41-.09-.26-.07-.16-.09-.25-.08-.25-.09-.25-.08-.25-.08-.25-.09-.26-.09-.23-.07-.18-.09-.25-.07-.25-.09-.25-.09L177.3,46l-.24-.07-.25-.09-.25-.09-.16-.07-.34-.09-.26-.09-.24-.07-.26-.09-.25-.08-.25-.09-.16-.08-.25-.08-.25-.08-.25-.09-.25-.08-.25-.09-.25-.07-.26-.09-.16-.09-.25-.07-.25-.09-.25-.09-.25-.07-.25-.09-.16-.1v.35l-.09.41-.07.34-.09.33-.07.09-.09.16-.09.09-.09.07-.16.09-.25.09-.16.07L170,46l-.25.09-.16.09-.25.07-.18.09-.16.07-.25.09-.16.09-.18.08-.25.08-.16.09-.25.08-.17.09-.16.07-.25.09-.18.08-.25.08-.16.09-.25.09-.16.07-.17.09-.25.07-.25.09-.09.09-.25.09-.25.07-.16.09-.17.09-.24.07-.17.09-.25.08-.18.08-.23.09-.18.08-.16.08-.25.09-.18.08-.24.09-.08.07-.26.09-.24.08-.17.08-.16.09-.25.09-.18.07h-1.67l-1.58-.07-1.49-.09-1.59-.09-1.5-.08-1.59-.08-1.48-.09-1.75-.07-.16-.09-.09-.08-.08-.09-.08-.16-.09-.09-.07-.08-.09-.17-.09-.07-.07-.18-.09-.07-.09-.18-.07-.09-.09-.07-.09-.16-.09-.09-.07-.17-.09-.08-.07-.16-.09-.09-.09-.08-.08-.17-.08-.08-.09-.18-.08-.07-.09-.16-.07-.09-.09-.09-.08-.16v-.43l.08-.24.09-.17.07-.25.09-.24.08-.18.09-.25.08-.16.08-.16.09-.26.09-.24.07-.18.09-.24.07-.17.09-.24.09-.18.09-.25.07-.16.09-.18.09-.33.07-.16.09-.17.09-.24.07-.17.09-.26.08-.16.08-.25.09-.16.08-.25.08-.26.08-.16.09-.25.08-.16.08-.18.09-.25L149,38l.07-.16.09-.16.07-.26.09-.25.09-.16.09-.25.07-.18.09-.16.09-.25.08-.25.08-.16.09-.25.07-.25.09-.17.08-.25.09-.16.08-.18.08-.25.09-.25.09-.16.07-.25.09-.16.07-.26L151,33l.09-.16.09-.16.07-.18.09-.34.09-.16.07-.16.09-.25.09-.17.05-.25.09-.16.09-.25.07-.16.09-.27.09-.25.09-.16.07-.25.09-.17.07-.16.09-.25.09-.25.08-.18.08-.23.09-.18L153,28l.08-.16.08-.25.09-.17.08-.16.08-.34.09-.16.09-.18.07-.23.09-.18.07-.25.09-.25.09-.16.09-.17.07-.25.09-.25.09-.16.08-.26.08-.17.09-.16.07-.33.09-.17.08-.17.09-.25.08-.25.08-.16.09-.16.07-.27.09-.16.09-.25.07-.24.09-.17.09-.16.07-.25.09-.26.09-.16.09-.25.07-.16.09-.18.07-.25.09-.24.09-.17.08-.24.08-.18.09-.25.08-.25.08-.16.08-.18L157,18l.08-.33.08-.16.09-.17.09-.24.07-.18.09-.25.07-.25.09-.16.09-.18.09-.24.07-.25.09-.16.09-.25.08-.16.08-.27.09-.25.07-.16.09-.16.08-.26.09-.16.08-.25.08-.25.09-.16.07-.18.09-.25.09-.25.07-.16.09-.16.09-.26.07-.25.09-.16.09-.25.09-.18.07-.25.09-.25.07-.16.09-.17.09-.24.08-.17.08-.25.09-.25.08-.16.08-.18.08-.25.09-.25.08-.16.08-.17.09-.24.09-.17.07-.25.09-.25.09-.16.07-.18.09-.25.09-.25.07-.16.09-.26.09-.16.08-.25.08-.25.09-.16.07-.18.09-.25.08-.16.09-.25.08-.25.08-.17.09-.16.07-.25.09-.25.09-.18.07-.16.09-.25.09-.16.07-.25.09-.25.09-.17ZM147,45.54a4.09,4.09,0,0,0,.75,1.25c.5.68.81,1.13.92,1.33l0,.09,11.72-4.84,2.08-9.24-.76-.92,1.77-8.63,4.64,1.8a9.41,9.41,0,0,0,.25,1.67l.36,1.73c.26,1.34.47,2.49.64,3.44.18,1.13.37,2.27.59,3.42s.45,2.29.67,3.39c.06.28.11.56.15.86s.1.58.16.84c.08.41.12.71.14.89s.18.33.52.45,1,.38,1.52.55l1.52.5c.9.3,1.92.68,3.06,1.13a21,21,0,0,0,3,1l1.39-1.52a16.59,16.59,0,0,1-.94-2.8c-.35-1.32-.59-2.33-.73-3s-.44-1.81-.78-2.94-.65-2.11-.92-2.95c-.65-1.91-1.22-3.86-1.73-5.87s-1-4-1.64-5.91-1.17-3.91-1.69-5.87-1.08-3.9-1.66-5.85c-.15-.47-.29-1-.42-1.45s-.27-1-.42-1.46-.26-.84-.42-1.5S170.36,4,170,3.93q-1.32-.36-3.12-.72a11.85,11.85,0,0,1-2.85-.9,7.87,7.87,0,0,1-.5,1.32c-.24.53-.43,1-.57,1.37-.35,1-.7,1.86-1,2.71l-1.09,2.73-1,2.68q-1.05,2.64-2.22,5.38c-.78,1.83-1.47,3.63-2.07,5.42s-1.34,3.63-2.16,5.42-1.52,3.58-2.13,5.36c-.12.37-.41,1.12-.87,2.23s-.94,2.28-1.43,3.5-.95,2.34-1.34,3.35A10.06,10.06,0,0,0,147,45.54Zm19.34-32.49.89,7.93-2.31-.75ZM203.92.62l.65-.09H205l.07.09.09.07.07.16.09.09.07.07.09.09.09.09.07.16.09.07.07.09.09.07.07.18.09.07.07.09.09.07.09.09.07.16.09.09.07.07.09.09.07.07.09.16.09.09.07.09L207,3l.07.09.09.16.09.08.07.08.09.09.08.16.08.08.08.08.08.33.09.41.08.32.08.41.08.32.08.41.08.4.09.33.08.41.08.4.08.34.08.41.09.32.07.41.09.41.07.32.09.4.07.41.09.32.09.41.07.32.09.41.07.41.09.32.07.41.09.33.07.41.09.41.09.32.07.41.09.41.07.32v.49l-.07.33-.09.24-.07.32-.09.25-.09.25-.07.32-.09.25-.07.23-.09.34-.07.23-.09.25-.07.32-.09.25-.09.25-.07.33-.09.24-.07.24-.09.34-.07.23-.09.23-.08.34-.08.24-.08.24-.08.33-.09.25-.08.24-.08.33-.08.25-.08.23-.08.34-.09.23-.08.25-.08.32-.08.25-.08.24-.09.33-.07.24-.09.33-.09.24-.07.25-.09.32-.07.25-.09.25-.09.32-.07.25-.09.23-.07.34-.09.24-.07.24-.09.33-.09.25-.07.24-.09.33-.07.23-.09.25-.07.32-.09.25-.07.25-.09.32-.09.24-.07.25-.09.32-.07.25-.09.25L205,34l-.09.25-.08.25-.08.32-.08.25-.08.23-.09.25h-.16v.16l-.16.09-.24.07-.25.09-.32.08-.25.08-.25.08-.23.08-.34.08-.23.09-.25.07-.25.09-.32.08-.25.08-.25.09-.32.07-.24.09-.25.07-.25.09-.32.07-.25.09-.23.09-.25.07-.32.09v.07l.07.57.09.5.08.57.08.49.09.57.07.48.09.5.07.55.09.5.07.57.09.49.09.57.07.48.09.5.07.57.09.48.07.58.09.48v.25l-.09.09-.07.07-.09.25-.32.07-.25.09-.32.07-.25.09-.32.09-.24.07-.33.09-.33.07-.25.09-.32.07-.25.09-.32.08-.25.08-.32.08-.25.08-.32.09-.32.08-.25.08-.33.08-.24.08-.33.08-.23.09h-.5l-.23-.09-.18-.08-.16-.08-.25-.08-.16-.08-.16-.08-.25-.09-.16-.08-.16-.08-.16-.08-.17-.08-.16-.09-.16-.07-.09-.09-.16-.07-.16-.09-.16-.07-.16-.09-.16-.09-.18-.07-.07-.09-.16-.07-.16-.09-.16-.07-.16-.09-.18-.07-.07-.09-.16-.09L188,47.2l-.16-.09-.17-.07-.16-.09-.08-.07-.16-.09-.17-.08-.17-.08-.14-.08-.16-.09-.09-.08-.16-.08-.16-.08-.16-.08-.17-.09-.16-.07-.17-.09-.08-.07-.16-.09-.16-.09-.16-.07-.16-.09-.18-.07-.07-.09-.16-.07-.16-.09-.16-.09-.18-.07-.16-.09-.07-.07-.25-.09-.07-1.23-.09-2.11-.08-2.11-.08-2.12L183,35l-.07-2.12-.09-2.11-.08-2.13-.08-2.12V25.37l.16-.09.16-.07.17-.09.17-.07.16-.09.16-.09h.16V23.82l.07-3.17V18.53l-.07-.09-.09-.16-.07-.07-.09-.09-.07-.16-.09-.09-.07-.07-.09-.09-.08-.16-.08-.07-.09-.09-.07-.08-.09-.17-.08-.07-.08-.09-.08-.16-.09-.08-.07-.08-.09-.08-.08-.16-.08-.09-.16-.08-.09-.56-.08-1.47-.08-1.39-.09-1.46-.07-1.47-.09-1.39-.07-1.46-.09-1.47-.09-1.38V3.38l.58-.08.74-.08.65-.09.64-.07.66-.09.65-.07.73-.09.66-.09.64-.07.65-.09.66-.07.64-.09.73-.07.65-.09.66-.09.64-.07.66-.09.73-.07.66-.09.65-.07.64-.09.66-.09.73-.07.66-.09.65-.07.65-.09.65-.07.73-.09.65-.09.66-.07.64-.09.66-.07.66-.09ZM199.8,27.88,206.91,4.1l-2.32-2.87L182,4l.65,11.57h2.12l-.28,9.61-1.1.6.68,18.37,1.92.89,7.73-2.16-1.93-12.65Zm-10.31-17.6,8.56-1.07a26.69,26.69,0,0,1-.38,4.36,33.91,33.91,0,0,0-.44,4.3c0,.29,0,.67,0,1.13s-.15.72-.41.78l-1.87.48-1.85.49-1.84.48Zm56-10.19L246,0h.27l.09.26.09.37.09.26.09.37.1.28.09.35.08.37.09.27.09.36.1.27.09.36.09.36.09.28.08.35.09.37.11.36.08.36.09.45.09.37.09.36.08.44.09.37.1.45.09.37.09.35.09.45.09.37.08.45.11.36.08.36.09.46.09.36.09.46.1.35.09.45.09.37.08.36.09.44.09.37.09.45.1.37.09.35.09.46.08.36.09.46.09.35v.54l-.09.19-.09.18-.08.17-.09.19-.09.18-.1.19-.09.09-.09.17-.09.18-.08.19-.09.17-.09.18-.1.18-.09.19-.09.17-.09.19-.08.18-.11.17-.08.19-.09.18-.09.19-.09.16-.09.1-.1.18-.09.18-.08.17-.09.19-.09.18-.09.19-.08.17-.11.18-.09.19-.08.18-.09.17-.09.18-.09.19-.1.17-.09.19-.09.09-.08.18-.09.17-.1.19-.09.18-.09.18-.09.19-.09.17-.08.19-.09.18-.1.17-.09.18-.09.19-.09.18-.09.19-.27.08-.09.18-3,.09.08.19.09.17.09.18.09.18.08.27.11.19V29l-.11.28-.08.18-.09.28-.09.26-.09.28-.08.26-.09.18-.11.28-.08.27-.09.27-.09.17-.1.28-.09.27-.09.27-.09.28-.08.18-.09.26-.09.28-.1.28L241,34l-.09.27-.09.09-.08.1h-.18v.17h-4.25V35.7l-.1,1.17L236.13,38,236,39.14,236,40.21l-.09,1.19-.09,1.08-.09,1.08-.1,1.18-.09.45-.08.09-.09.09-.09.19-.09.08-.09.18-.1.09-.09.1-.08.18-.09.08-.11.18-.08.1-.09.09-.09.18-.09.08-.08.18-.09.1-.11.18-.08.09-.18.1-.17.09-.28.08-.28.09-.26.09-.37.09-.26.09-.27.1-.28.09-.36.08-.27.09-.28.09-.26.09-.36.1-.27.09-.28.09-.36.08-.27.09-.26.1-.28.09-.35.09-.28.09-.28.09-.26.08h-.54l-.18-.08-.19-.09-.17-.09-.2-.09-.17-.09-.18-.1-.17-.09-.19-.08-.09-.09-.18-.09-.17-.1-.19-.09-.18-.09-.19-.09-.17-.08-.18-.09-.19-.1-.16-.09-.18-.09-.17-.09-.19-.09-.09-.08-.18-.09-.19-.1-.17-.09-.18-.09-.19-.09-.18-.1-.17-.09-.19-.09-.18-.08-.17-.09-.18-.09-.19-.09-.09-.1-.19-.09-.17-.09-.18-.08-.18-.09-.19-.09-.17-.1-.18-.09-.19-.09-.17-.09-.19-.08-.18-.11-.18-.08-.08-.09h-.55v-.46l.09-.8.09-.82.09-.81.09-.91.1-.8.09-.82.08-.82.09-.81.09-.82.09-.8.09-.82.1-.82.09-.9.08-.82.09-.8.1-.82.09-.81.09-.82.09-.81.09-.82.08-.8.09-.91.1-.82.09-.81.09-.82.09-.8.09-.82.08-.81.09-.82.1-.89.09-.82.09-.81.09-.82.1-.8.09-.82.09-.81.08-.82.09-.81.09-.9.09-.82.1-.81.09-.82.09-.81.08-.82.09-.82.09-.8.09-.91.1-.81.09-.45.45-.09.46-.1.35-.09.44-.09.45-.08.46-.09.44-.09.45-.09.45-.1.46-.09.45-.09.44-.08.47-.11.44-.08.45-.09.46-.09.45-.09.46-.09.43-.08.46-.11.45-.08L232,2.8l.45-.09.44-.09.45-.09.46-.08.45-.11.46-.08.45-.09.44-.09L236,2l.46-.09L237,1.8l.46-.09.44-.08.47-.09.43-.09.46-.1.45-.09.46-.09.45-.09L241,1l.45-.11.46-.08.45-.09.46-.09.44-.09.45-.09.45-.1.46-.09.45-.08Zm.17.79L222.89,5.46l-4.26,38.73a11.48,11.48,0,0,0,2.75-.74c1.28-.46,2.23-.78,2.86-1l1.45-.4a1.88,1.88,0,0,0,1.05-.79l.76-1.08a11.84,11.84,0,0,0,.75-1.1l1.12-13.55h5.69a9.59,9.59,0,0,1,.49-1.56c.22-.53.41-1.05.57-1.53q.1-.31.63-1.62c.35-.88.47-1.34.35-1.4l-3.76-.29c-2.49-.19-3.87-.28-4.14-.28l.44-7.42,7.83.53-1.34,4.44h4.79c.13-.23.51-1,1.13-2.17l2-3.87,2.76-5.34a6.26,6.26,0,0,0-.54-2A6.86,6.86,0,0,1,245.71.88Zm22,.34.38-.08h.23l.09.6.07.35.08.36.08.35.08.33.07.27.07.35.09.35.07.35.08.35.07.34.09.35.07.27.08.35.08.35.08.35.07.34.09.35.07.35.07.35.09.27.08.35.07.34.09.35.07.35.07.35.09.35.07.34.08.26.07.35.07.36.09.35.07.35.08.34.09.35.07.26v1.23L271,16.48l-.09,1.76-.08,1.83-.07,1.73-.09,1.75L270.6,25l-.15.09-.07.18-.09.07-1.55.1-2,.08-1.72.08-.07.18-.07.26-.09.18-.06.26-.09.18-.07.26-.07.27-.09.17-.07.25-.08.18-.08.26-.08.18-.07.26-.09.18-.07.26-.08.16-.08.26-.08.27-.07.17-.09.27-.07.17-.07.27-.08.17-.09.27-.07.17-.07.25-.09.19-.07.25-.08.18-.08.26-.08.26-.07.18-.07.26-.09.16-.08.27-.07.17-.09.27-.07.17-.07.27-.08.17-.08.27-.08.26-.07.18-.09.25h.24l.3.08.24.09.23.09.31.09.23.08.24.09.23.09.08.35.08.09.08.09.07.09.09.08.07.16.08.11.08.07.08.09.07.17.09.11.07.07.07.09.09.17.06.09.09.09.07.09.07.17.09.09.08.09.07.09.09.17.07.09.07.09.09.09.07.17.08.08.09.08.07.11.07.16.09.08.07.09.08.09.07.18.09.08.07.09.07.09.08.18.09.08.07.09.07.09.09.18.07.07.08.1.08.07.08.18.07.09v.53l-.07.35-.08.35-.08.26-.08.34-.07.35-.09.26-.07.36-.07.35-.09.33-.08.27-.07.35-.07.35-.09.26-.07.36-.08.33-.07.35-.09.27-.07.35-.07.35-.09.27-.08.35-.07.33-.09.36-.07.17-.07.09h-.24v.17h-.38l-.55-.08-.55-.09-.54-.09-.54-.09-.54-.08-.54-.09-.56-.09-.53-.09L259.8,49l-.54-.07-.54-.1-.54-.08-.54-.08-.55-.09-.55-.09-.53-.09-.56-.08-.54-.09-.54-.09-.54-.09-.54-.09-.55-.08-.55-.09-.53-.09-.56-.09-.54-.09-.54-.08-.54-.09-.24-.09-.16-.09-.22-.09L248.7,47l-.16-.09-.23-.07-.15-.11-.16-.07-.24-.09-.14-.09-.16-.08-.24-.09-.14-.09-.17-.09-.22-.09-.16-.08-.14-.09-.24-.09L246,45.7l-.17-.08-.23-.09-.16-.09-.15-.09-.23-.09-.16-.07-.16-.1-.22-.08-.16-.08-.17-.11-.22-.07-.16-.1-.16-.07-.23-.09-.15-.09-.16-.09-.23-.09-.15-.08-.16-.09-.24-.09-.16-.09-.14-.09-.24-.08-.14-.09-.17-.09-.23-.09-.23-.09V43l.07-.69.09-.61.07-.69.07-.61.09-.71.07-.6.08-.61.09-.71.07-.61.07-.69.08-.62.07-.68.09-.62.07-.61.07-.69.09-.62.07-.26H243l.78.09.78.08.77.09.78.09h.07l.76-.09.78-.09h.23v-.26l.08-.61.09-.69.07-.62.07-.61.08-.69.08-.62.08-.61.07-.69.09-.62.07-.61.07-.69.09-.62.08-.7v-.6l-.08-.09-.09-.08L248.7,23l-.07-.09-.09-.09-.07-.09-.08-.08-.08-.09-.08-.09-.07-.09-.07-.09-.09-.08-.08-.18-.07-.09-.09-.09-.07-.08-.07-.08-.08-.1-.08-.07-.08-.09-.07-.09-.09-.09-.07-.08-.07-.09L247,21l-.08-.09,0-.17-.09-.09-.08-.07-.07-.11-.09-.07-.07-.09-.07-.09-.09-.08-.07-.09-.08-.09-.07-.09L246,19.8l-.09-.08-.08-.18-.07-.09-.09-.08-.07-.09-.07-.09-.09-.09-.07-.09-.08-.08-.09-.09-.07-.09-.07-.07-.09-.11-.07-.07-.08-.17-.08-.09-.08-.09-.07-.09-.07-.09-.09-.08-.07-.09-.08-.09-.09-.09-.07-.09-.07-.08-.24-.09-.07-1.83-.09-1.75L243.59,12l-.07-1.83-.09-1.74V7.06l.32-.07.38-.11.31-.07.39-.09.38-.1.33-.07.38-.09.38-.09.32-.09L247,6.2l.39-.09.31-.09.4-.09.38-.09.39-.08.31-.09.38-.09.4-.09.3-.08.38-.09.4-.09.31-.09.39-.07.38-.1.31-.08.4-.09.39-.08.31-.09.38-.09.4-.09.3-.08.39-.09.39-.09.31-.09.39-.09.38-.08.31-.09.4-.09.39-.09.31-.09.38-.08.4-.09.31-.09.38-.09.39-.09.31-.08.39-.08.39-.1.3-.07.4-.09.39-.09.31-.09.38-.08.4-.09.31-.09.38-.09.39-.09.31-.08.38-.09.4-.09.3-.09.4-.08.38-.09.31-.09.39-.09.4-.07ZM244.15,7.71c0,1.25,0,2.51.15,3.77s.15,2.49.14,3.7c0,.93.15,1.4.47,1.4h1.78c.51,0,1.07,0,1.68,0s1.21-.05,1.81-.05h.37l-2,16.74-2.39.27a5.38,5.38,0,0,1-1.58-.13,10.84,10.84,0,0,0-1.65-.21l-1.12,9.59a9.45,9.45,0,0,1,1.72.22c.7.14,1.29.24,1.77.31,1.27.19,2.42.38,3.44.57s2.32.42,3.46.57,2.31.33,3.48.53c.55.1,1.12.2,1.73.29l1.73.28c.94.17,1.44.17,1.51,0s.22-.79.45-1.84c.16-.72.47-2,.94-3.69a20.39,20.39,0,0,0,.73-3.43l-8.86-3,6.3-18c.76,0,1.53,0,2.3-.08s1.56-.08,2.36-.1l1.17,0c.62,0,1-.1,1-.24s0-.48.05-1.23,0-1.22,0-1.39c0-1.66.08-3.38.23-5.16s.23-3.53.23-5.24Zm47.28-6.26.18-.07h.16l.09.17.07.16.06.18.09.16.07.18.07.16.07.09.08.17.07.16.07.18.08.16.07.18.09.07.07.17.08.17.07.17.07.16.08.1.07.17.09.16.07.17.06.16.09.09.07.18.07.16.08.17.07.17.09.08.07.18L294,6l.08.18.07.16.07.09.08.16.07.17.09.16.06.18.08.09.08.16.07.17.07.17.08.17L295,8l.09.09.07.16.07.18.08.16.07.17.07.09.08.16.09.18.07.16.06.18.09.07.07.17L296,10l.07.17.08.16.09.11.05.16.09.16.08.17.07.16.07.09.08.18.07.16.09.17.06.17.07.16.09.1.07.16.07.18.08.16.07.16.07.09.08.17.08.16.08.18.07.16.07.09.08.17.07.17.07.17.08.16.07.18.09.16.06.17.07.24.07.18.08.16.07.17.07.25.08.16.07.18.07.16.06.25.09.17.07.17-.48,8.3.09.09.05.17.09.08.08.17.07.08.07.17.09.09.07.18.08.07.07.18.09.16-.12,1.55L299.06,31l-.28,2.84-.22,2.2-.17.07-.1.24-.36.06-.33,0-.27,4-.45,5.36-.34,3.66-.17.07-.16.08-.11.07-.25,0-.24-.1-.17-.09-.24-.1-.18-.09-.25-.1-.16-.09-.25-.1-.25-.09-.16-.09-.25-.1-.16-.09-.26-.1-.25-.1-.16-.09-.25-.1-.16-.09-.25-.09-.25-.1-.18-.09-.23-.1-.18-.09-.25-.1-.16-.09-.16-.09-.16-.1-.18-.09-.16-.08-.16-.11-.16-.08-.18-.09-.16-.11-.16-.08-.16-.09-.16-.09-.18-.1-.16-.09-.16-.09-.16-.09-.16-.1-.18-.09-.16-.08-.16-.09-.16-.1-.18-.09-.16-.09-.16-.09-.17-.1-.16-.09-.17-.09-.16-.1-.16-.09-.17-.08-.15-.12.06.28.06.32.06.34,0,.23H286l0,.32-.09.08-.17.07-.18.07-.09.08-.17.07-.18.07-.09.08-.17.05-.18.08-.09.09-.17.07-.18.06-.1.07-.16.07-.18.08-.1.07-.17.07-.18.08-.09.07-.17.07-.09.08-.18.07-.17.07-.09.08-.18.07-.17.07-.09.08-.18.07-.17.06-.09.09-.19.07-.16.07-.1.07-.17.06-.17.08-.09.08-.19.08-.18.06-.08.07-.18.07-.18.08-.08.07-.18.07-.09.08-.17.07-.18.07-.09.08-.17.07-.18.07-.09.08-.17.07-.19.07-.09.08-.18.07-.49,0-.27-.1-.32-.11-.25-.1-.34-.1-.33-.09-.25-.1-.34-.1-.25-.11-.33-.1-.25-.09-.34-.1-.32-.1-.25-.1-.34-.11-.25-.1-.33-.1-.34-.1-.25-.09-.34-.11-.25-.1-.33-.1-.25-.1-.34-.11-.34-.1-.23-.09-.34-.1-.25-.1-.33-.1-.25-.11-.32-.1-.34-.1-.25-.09-.34-.1-.25-.1-.33-.11-.5,0h-.18l-.08-.09,0-.57,0-.57-.05-.59,0-.48-.06-.59,0-.57-.05-.57,0-.5-.06-.57,0-.57-.05-.57-.06-.5,0-.57,0-.59-.05-.57,0-.57-.06-.5,0-.57-.05-.57,0-.59-.06-.48,0-.58-.05-.58,0-.57-.06-.5,0-.57,0-.57-.06-.57,0-.58-.05-.49,0-.58-.06-.58,0-.57-.05-.49,0-.58-.05-.58,0-.57-.05-.5-.06-.57,0-.57,0-.58-.05-.49-.06-.57,0-.58,0-.57-.05-.58-.06-.49,0-.57,0-.58-.05-.58-.06-.49,0-.57,0-.58-.05-.58-.06-.49,0-.58,0-.57-.05-.57-.06-.57,0-.5-.05-.57-.05-.58,0-.58-.06-.48-.05-.59-.05-.57-.05-.57,0-.5L263.16,8l0-.57-.05-.59,0-.48L263,5.8l-.05-.57,0-.57,0-.57-.06-.5,0-.41.17-.07.09-.08.19-.07.09-.07.18-.08.08-.07.18-.07.09-.08.08-.07.18-.07.09-.08.17-.07.09-.07.18-.08.09-.07L265,2l.08-.08.18-.07.09-.09.17-.06.09-.07.18-.07.09-.09.17-.06.09-.07.09-.09.17-.07.11-.08.17-.06.09-.08.17-.08L267,.82l.18-.07.09-.08.17-.07.09-.07h.18l.07.18.09.07.06.18.08.08.09.09.07.08.08.1.07.07.09.09.09.09.07.09.07.08.09.09.07.09.08.09.07.08.09.09.07.09.08.07.08.18.08.09.07.09.09.07.07.1.09.07.07.11.07.07.09.09.08.09.08.08.08.09.09.09.07.09.07.09.09.08.07.16.08.09.08.09.08.09.08.09.08.08.07.09.09.09.07.07.09.09.07.09.08.09.08.08.09.09.08.09.07.09.09.09.07.16.07.08.08.09.08.09.09.09.08.09.07.08.09.09.07.09.09.09.07.07.09.09.07.09.08.09.08.08.08.09.08.09.08.16.07.1.09.08.07.08.08.09.08.09.08.09.08.09.08.08.09.09L274,8l.07.09.09.08.07.08.09.09.07.08.08.18.09.07.07.11.07.07.09.1.07.07.09.09.07.09.08.09.09.09.07.08.09.09.07.09.09.09.07.07.07.1.09.08.08.17.07.09.09.09.08.07.08.1.07.08.07.08.09.09.09.09.07.09.08.09.08.08.08.09.09.09.07.09.09.09.07.16.07.08.08.09.08.09.08.09.09.09.07.07.09.1.07.08.07.08.09.09.07.09.09.09.08.08.07.09.09.09.07.09.07.16.09.09.07.09.09.08.08.09.07.09.09.16.07.18.07.08.08.17.07.17.07.16.08.18.08.07.08.18.07.16.07.17.08.16.08.09.06.18.08.16L280,16l.08.16-.06-.57-.05-.5,0-.57-.06-.5,0-.57-.05-.5-.05-.57-.05-.57,0-.5-.06-.57,0-.5-.06-.57-.05-.5,0-.57-.06-.5,0-.57-.05-.5-.06-.57,0-.32.18-.08.17-.07.18-.07.18-.08.17,0,.25-.08.19-.07.18-.07.16-.08.19-.06.17-.07.18-.07.16-.08.19-.07.18-.06.16-.07L282.3,5l.2-.08.16-.07.17-.07.18-.06.26-.08.18-.07.17-.07.18-.08.17,0,.18-.08.18-.07.17-.07.18-.08.17-.07.18-.06.18-.07.17-.08.18-.07.17-.07.27-.06.17-.07.18-.08.16-.07.19-.07.18-.06.16-.08.17-.07L287.4,3l.18-.07.16-.08.18-.06.19-.07.16-.07.17-.08.27-.06.17-.07.18-.07.17-.07.18-.08.17-.07.18-.06.18-.07.17-.08.18-.07.17-.07.18-.08.18-.05.17-.08.18-.07ZM267.16,45.37l9.14-4.49-2.65-15.61a8.72,8.72,0,0,1,.85,1.35c.3.57.57,1.05.8,1.43s.54.91.79,1.36.52.91.78,1.38l1.58,2.78c.53.93,1.07,1.85,1.63,2.76s1.08,1.85,1.59,2.76,1,1.83,1.59,2.76a2.35,2.35,0,0,0,.47.67,7.78,7.78,0,0,1,.8.34c.26.13.53.25.79.35l.84.35,1.59.77a9.57,9.57,0,0,0,1.59.63l0-.65,1.24-15.54,1.19-.26,1-10.64-1.26.59c.09-1.44.18-2.88.28-4.32s.2-2.88.31-4.31q.06-1,.15-2.16c.07-.74.11-1.46.14-2.16a3.9,3.9,0,0,0-.53-1.6,3.75,3.75,0,0,1-.54-1.57L280.08,6.65l2.27,25.44-15-30.57-3.75,2.11ZM310,1.48l.07-.07h.43l.41.07.25.09.34.07.24.09.34.09.32.08.27.08.32.09.25.08.42.08.33.08.26.09.34.08.32.08.25.09.33.09.25.07.34.09.34.07.32.09.34.09.25.09.24.07.09.09.08.09.08.08.09.17.09.07.07.09.09.08.09.17.09.08.07.08.09.08.07.09.09.16.09.09.08.09.08.07.09.18.08.07.09.09.07.09.09.16.08.09.08.08.09.08.09.16.07.09.09.08.09.09.07.08.09.17.09.07.07.09.09.09.09.07.07.18.09.09.08.07.08.09.09.16.08.09.08.09.09.07.08.09.09.17.07.08.09.08.08.16.08.09.09.16.09.09.07.09.09.07.09.09.09.16.07.09.09.09.07.07.09.18.09.07.08.09.08.09.09.07.08.17.09.09L323,10l.09.08.08.16.08.09.09.09.09.07.07.09.09.16.09.09.07.09.09.16.09.09.07.09.09.07.09.09.07.16.09.09.09.08.07.08.09.17.08.09.08.07.09.09.08.07.09.18.07.09.09.07.08.09.08.16.09.09.09.09.07.16.09.25.09.33.09.25.07.25.09.34L326,15l.09.23.09.26.08.33.08.24.09.34.08.25.09.34.07.33.09.25.08.33.08.24.09.27.09.32.07.25.09.34.09.33.07.25.09.34.09.25.07.32.09.26.07.25.09.25.09.32.08.34.08.25.09.34.07.25.09.32.09.25.08.33.08.34.08.25.09.34.08.25.08.25.09.32.07.26.09.34.09.32.07.25.09.25.09.34.09.24.07.34.09.25.07.32.09.27.09.33.09.24.07.33.09.25.08.34.08.25.09.34.08.33.08.25.08.33.09.24.09.25.07.27.09.32.07.25.09.33.09.34.09.25.07.34.09.25.09.32.09.26.07.32.09.25.07.34.09.25.09.34.08.25.08.33.08.25.09.32.08.27.08.32.09.25.07.34.09.25.09.24.07.34.09.25.09.34.09.32.07.26.09.33.07.24.09.34.09.25.09.34.07.25.09.24.08.34.08.34.09.25.08.25.08.32.08.26.09.33.09.33.07.25v.59l-.07.25-.09.08-.09.08-.08.09-.08.08-.08.09-.09.07-.08.17-.08.08-.09.09-.07.09-.09.07-.09.09-.09.07-.07.09-.09.09-.07.09-.09.07h-.75l-.51-.07L331.7,48l-.5-.09-.42-.09-.41-.07-.5-.09-.5-.07-.42-.09-.5-.09-.5-.08-.41-.08-.41-.09-.26-.07L326.7,47l-.24-.08-.25-.09-.25-.08-.25-.08-.25-.09-.26-.09-.24-.07-.17-.09-.25-.07-.25-.09L324,46l-.25-.09-.25-.07-.25-.09L323,45.7l-.16-.07-.34-.09-.26-.09-.23-.07-.27-.09-.25-.08-.25-.09-.16-.08-.25-.08-.25-.08-.24-.09-.25-.08-.25-.09-.25-.07-.26-.09-.17-.09L319,44.3l-.25-.09-.25-.09-.25-.07L318,44l-.16-.1,0,.35-.08.41-.08.34-.09.33-.07.09-.09.16-.08.09-.09.07-.16.09-.25.09-.16.07-.18.09-.25.09-.16.09-.25.07-.17.09-.17.07-.24.09-.17.09-.17.08-.25.08-.16.09-.25.08-.18.09-.16.07-.25.09-.17.08-.25.08-.16.09-.25.09-.16.07-.18.09-.25.07-.25.09-.08.09-.25.09-.25.07-.16.09-.18.09-.23.07-.18.09-.25.08-.17.08-.24.09-.17.08-.17.08-.24.09-.18.08-.25.09-.07.07-.27.09-.23.08-.18.08-.16.09-.25.09-.17.07H306l-1.58-.07-1.5-.09-1.58-.09-1.51-.08-1.58-.08-1.48-.09L295,49.13,294.8,49l-.09-.08-.07-.09-.09-.16-.09-.09-.07-.08-.09-.17-.09-.07-.07-.18-.09-.07-.09-.18-.07-.09-.09-.07-.08-.16-.09-.09-.08-.17-.08-.08-.08-.16-.08-.09-.09-.08-.09-.17-.07-.08-.09-.18-.09-.07-.09-.16-.07-.09-.09-.09-.07-.16v-.43l.07-.24.09-.17.07-.25.09-.24.09-.18.09-.25.07-.16.09-.16.09-.26.08-.24.08-.18.08-.24.08-.17.09-.24.08-.18.09-.25.07-.16.09-.18.09-.33.07-.16.09-.17.09-.24.07-.17.09-.26.09-.16.07-.25.09-.16.09-.25.07-.26.09-.16.09-.25.07-.16.09-.18.09-.25.08-.25.08-.16.08-.16.08-.26.09-.25.08-.16.09-.25.07-.18.09-.16.09-.25.09-.25.07-.16.09-.25.07-.25.09-.17.09-.25.09-.16.07-.18.09-.25.09-.25.08-.16.08-.25.08-.16.08-.26.09-.25.08-.16.09-.16.07-.18.09-.34.09-.16.07-.16.09-.25.09-.17.06-.25.09-.16.08-.25.08-.16.09-.27.08-.25.09-.16.07-.25.09-.17.08-.16.08-.25.09-.25.09-.18.07-.23.09-.18.09-.25.07-.16.09-.25.09-.17.07-.16.09-.34.09-.16.08-.18.08-.23.09-.18.07-.25.09-.25.08-.16.09-.17.08-.25.08-.25.09-.16.09-.26.07-.17.09-.16.07-.33.09-.17.09-.17.09-.25.07-.25.09-.16.09-.16.07-.27.09-.16.09-.25.07-.24.09-.17.08-.16.08-.25.09-.26.08-.16.09-.25.07-.16.09-.18.08-.25.08-.24.09-.17.09-.24L303,19l.09-.25.09-.25.07-.16.09-.18.09-.16.07-.33.09-.16.09-.17.08-.24.08-.18.09-.25.07-.25.09-.16.08-.18.09-.24.08-.25.08-.16.09-.25.09-.16.07-.27.09-.25.07-.16.09-.16.09-.26.09-.16.07-.25.09-.25.09-.16.07-.18.09-.25.08-.25.08-.16.09-.16.08-.26.08-.25.09-.16.08-.25.09-.18.07-.25.09-.25.08-.16.08-.17.09-.24.09-.17.07-.25.09-.25.09-.16.07-.18.09-.25.09-.25.07-.16.09-.17.09-.24.08-.17.08-.25.09-.25.08-.16.08-.18.08-.25.09-.25.08-.16.08-.26.09-.16.09-.25.07-.25.09-.16.07-.18.09-.25.09-.16.09-.25L309,4l.09-.17.09-.16.07-.25.09-.25.09-.18.07-.16.09-.25.08-.16.08-.25.09-.25.08-.17ZM293.47,45.54a4.18,4.18,0,0,0,.74,1.25c.5.68.81,1.13.93,1.33l0,.09,11.71-4.84L309,34.13l-.76-.92L310,24.58l4.64,1.8a9.16,9.16,0,0,0,.24,1.67l.36,1.73c.26,1.34.48,2.49.64,3.44q.27,1.7.6,3.42t.66,3.39c.06.28.11.56.16.86s.09.58.15.84a7.79,7.79,0,0,1,.14.89c0,.18.19.33.52.45.49.19,1,.38,1.52.55l1.53.5c.9.3,1.91.68,3.05,1.13a21,21,0,0,0,3,1l1.39-1.52a16.79,16.79,0,0,1-.93-2.8c-.36-1.32-.6-2.33-.74-3s-.43-1.81-.77-2.94-.65-2.11-.93-2.95c-.64-1.91-1.22-3.86-1.72-5.87s-1.06-4-1.65-5.91-1.16-3.91-1.69-5.87-1.07-3.9-1.66-5.85c-.15-.47-.29-1-.42-1.45s-.27-1-.41-1.46-.26-.84-.43-1.5-.43-1.06-.76-1.15q-1.33-.36-3.12-.72a12.1,12.1,0,0,1-2.86-.9,7.08,7.08,0,0,1-.5,1.32c-.24.53-.43,1-.57,1.37-.35,1-.7,1.86-1,2.71s-.73,1.83-1.08,2.73-.7,1.79-1.06,2.68q-1,2.64-2.22,5.38c-.77,1.83-1.46,3.63-2.07,5.42s-1.34,3.63-2.15,5.42-1.52,3.58-2.14,5.36c-.12.37-.41,1.12-.86,2.23l-1.44,3.5c-.5,1.22-.94,2.34-1.34,3.35A9.55,9.55,0,0,0,293.47,45.54ZM312.8,13.05l.9,7.93-2.32-.75Zm43.08-11.6.18-.07h.16l.09.17.07.16.06.18.09.16.07.18.07.16.08.09.07.17.07.16L357,3l.07.16.07.18.09.07.08.17.07.17.07.17.08.16.07.1.07.17.09.16.07.17.06.16.09.09.07.18.08.16.07.17.07.17.09.08.07.18.08.16.07.18.07.16.08.09.07.16.07.17.09.16.06.18.09.09.07.16.07.17.08.17.07.17.07.16.09.09.07.16.08.18.07.16.07.17.08.09.07.16.09.18.07.16.06.18.09.07.07.17.07.17.08.17.07.16.09.11.06.16.09.16.07.17.07.16.08.09.07.18.07.16.09.17.06.17.07.16.09.1.07.16.08.18.07.16.07.16.08.09.07.17.09.16.07.18.07.16.08.09.07.17.07.17.08.17.07.16.07.18.09.16.06.17.07.24.08.18.07.16.07.17.08.25.07.16.07.18.08.16.05.25.09.17.07.17-.48,8.3.09.09.06.17.09.08.07.17.07.08.08.17.08.09.08.18.07.07.07.18.09.16-.12,1.55L363.52,31l-.28,2.84-.22,2.2-.18.07-.1.24-.35.06-.34,0-.26,4-.46,5.36L361,49.41l-.18.07-.16.08-.1.07-.25,0-.25-.1-.16-.09-.25-.1-.18-.09-.25-.1-.16-.09-.25-.1-.25-.09-.16-.09-.25-.1-.16-.09-.26-.1-.25-.1-.16-.09-.25-.1-.16-.09-.25-.09-.25-.1-.17-.09-.24-.1-.17-.09-.25-.1-.16-.09-.17-.09-.16-.1-.17-.09-.16-.08-.17-.11-.16-.08-.17-.09-.16-.11-.16-.08-.17-.09-.16-.09-.17-.1-.16-.09-.16-.09-.17-.09-.16-.1-.17-.09-.16-.08-.17-.09-.16-.1L352,45.5l-.16-.09-.16-.09-.18-.1-.16-.09-.16-.09-.16-.1-.16-.09-.18-.08-.15-.12.06.28.06.32.06.34,0,.23h-.16l0,.32-.08.08-.18.07-.18.07-.08.08-.18.07-.18.07-.08.08-.18.05-.17.08-.09.09-.18.07-.17.06-.11.07-.16.07-.17.08-.11.07-.17.07-.18.08-.09.07-.17.07-.09.08-.17.07-.18.07-.09.08-.17.07-.18.07-.09.08-.17.07-.18.06-.09.09-.19.07-.16.07-.1.07-.16.06-.18.08-.09.08-.19.08-.17.06-.09.07-.18.07-.17.08-.09.07-.18.07-.08.08-.18.07-.18.07-.08.08-.18.07-.17.07-.09.08-.18.07-.19.07-.09.08-.17.07-.5,0-.26-.1-.33-.11-.25-.1-.33-.1-.34-.09-.25-.1-.34-.1-.24-.11-.34-.1-.25-.09-.34-.1-.32-.1-.25-.1-.34-.11-.24-.1-.34-.1-.34-.1-.25-.09-.33-.11-.25-.1-.34-.1-.25-.1-.34-.11-.33-.1-.24-.09-.33-.1-.25-.1-.34-.1-.25-.11-.32-.1-.34-.1-.25-.09-.33-.1-.25-.1-.34-.11-.5,0H331l-.09-.09-.05-.57,0-.57,0-.59,0-.48-.06-.59,0-.57,0-.57,0-.5-.06-.57,0-.57,0-.57-.06-.5,0-.57,0-.59,0-.57,0-.57-.06-.5,0-.57L330,35.8l0-.59-.06-.48,0-.58-.05-.58,0-.57-.06-.5,0-.57-.05-.57-.05-.57-.05-.58,0-.49-.05-.58-.06-.58,0-.57,0-.49-.06-.58-.05-.58,0-.57,0-.5-.06-.57-.05-.57,0-.58,0-.49-.06-.57-.05-.58,0-.57,0-.58-.06-.49-.05-.57,0-.58,0-.58-.06-.49-.05-.57,0-.58-.05-.58,0-.49-.05-.58,0-.57-.05-.57,0-.57-.05-.5,0-.57-.06-.58,0-.58-.06-.48,0-.59-.06-.57-.05-.57,0-.5L327.61,8l0-.57-.05-.59,0-.48-.06-.59,0-.57-.05-.57,0-.57-.06-.5,0-.41.18-.07.08-.08.19-.07.09-.07.18-.08.09-.07.17-.07.09-.08.09-.07.17-.07.09-.08.18-.07.09-.07.17-.08.09-.07L329.4,2l.09-.08.17-.07.09-.09.18-.06.08-.07.18-.07.09-.09.17-.06.09-.07.09-.09.18-.07.1-.08.17-.06.09-.08.18-.08.09-.07.17-.07.09-.08.18-.07L332,.53h.18l.07.18.09.07.06.18.09.08.08.09.08.08.07.1.07.07.09.09.09.09.07.09.08.08.08.09.08.09.07.09.07.08.09.09.07.09.08.07.09.18.07.09.07.09.09.07.07.1.09.07.07.11.08.07.09.09.07.09.09.08.07.09.09.09.07.09.07.09.09.08L335,4l.07.09.09.09.07.09.09.09.07.08.07.09.09.09.08.07.08.09.08.09.07.09.09.08.09.09.07.09.07.09.09.09.07.16.08.08.07.09.09.09.09.09.07.09.07.08.09.09.07.09.09.09.07.07.09.09.08.09.07.09.09.08.07.09.09.09.07.16.07.1.09.08.08.08.07.09.09.09.07.09.09.09.07.08.09.09.07.09.08.09.08.08.08.08.08.09.08.08.07.18.09.07.07.11.08.07.08.1.08.07.08.09.08.09.07.09.09.09.07.08.09.09.07.09.09.09.07.07.08.1.09.08.07.17.07.09.09.09.09.07.07.1.07.08.08.08.09.09.08.09.08.09.07.09.09.08.07.09.09.09.07.09.09.09.07.16.08.08.07.09.09.09.07.09.09.09.07.07.09.1.07.08.08.08.08.09.08.09.09.09.07.08.07.09.09.09.07.09.08.16.08.09.08.09.08.08.08.09.07.09.09.16.07.18.08.08.07.17.07.17.08.16.07.18.09.07.07.18.07.16.08.17.07.16.09.09.06.18.07.16.09.18.07.16-.06-.57,0-.5,0-.57-.05-.5-.05-.57,0-.5-.06-.57,0-.57-.05-.5-.06-.57,0-.5L344,9.7l0-.5-.05-.57-.06-.5,0-.57,0-.5-.06-.57,0-.32.17-.08.18-.07.17-.07.18-.08.18,0,.24-.08.19-.07.18-.07.16-.08.19-.06.18-.07.17-.07.16-.08.2-.07.17-.06.16-.07.18-.07.19-.08.16-.07.18-.07.17-.06.26-.08.18-.07.18-.07.17-.08.18,0,.17-.08.18-.07.18-.07.17-.08.18-.07.17-.06.18-.07.17-.08.18-.07.18-.07.26-.06.17-.07.18-.08.16-.07.19-.07.18-.06.16-.08.18-.07.19-.07.17-.07.16-.08.18-.06.19-.07.16-.07.18-.08.26-.06.17-.07.18-.07.18-.07.17-.08.18-.07.17-.06.18-.07.18-.08.17-.07.18-.07.17-.08.18-.05.17-.08.18-.07ZM331.61,45.37l9.14-4.49L338.1,25.27a8,8,0,0,1,.85,1.35c.3.57.57,1.05.81,1.43l.79,1.36.77,1.38,1.59,2.78q.78,1.4,1.62,2.76t1.59,2.76q.75,1.36,1.59,2.76c.25.43.41.65.48.67a8.18,8.18,0,0,1,.79.34c.27.13.53.25.8.35l.83.35,1.59.77a9.57,9.57,0,0,0,1.59.63l0-.65,1.25-15.54,1.18-.26,1-10.64-1.26.59c.08-1.44.18-2.88.27-4.32s.2-2.88.31-4.31c0-.7.09-1.42.16-2.16s.11-1.46.13-2.16a3.76,3.76,0,0,0-.53-1.6,3.7,3.7,0,0,1-.53-1.57l-11.3,4.31,2.27,25.44-15-30.57L328,3.63ZM376,1.22l.18-.08h.16l.09.16.07.16.09.09.09.16.08.09.08.09.08.16.09.09.08.07.08.09.09.18.07.07.09.09.09.08.09.17.07.08.09.08.07.17.09.09.09.07.09.09.07.16.09.09.09.09.07.16.09.09.08.07.08.09.09.16.08.09.08.09.08.07.09.17.09.09.07.08.09.16.09.08.07.09.09.09.09.16.07.09.09.09.09.16L380,6l.07.09.09.09.07.16.09.09.09.08.08.09.08.16.08.08.09.08.09.18.07.07.09.09.07.09.09.16.09.09.09.07.07.18.09.07.09.09.07.09.09.16.09.09.07.07.09.09.09.17.07.08.09.08.08.16.09.09.08.09.08.07.08.18.08.09.09.07.09.09.07.16.09.09.09.09.09.16.07.08.09.09.07.08.09.16.09.08.09.09.07.16.09.09.08.16.09.18.08.25.08.16.08.17.08.17.09.24.09.17.07.17.09.25.09.16.07.18.09.16.09.25.07.16.09.17.09.25.07.16.09.18.09.16.08.25.08.16.09.18.07.25.09.16.08.16.09.17.08.25.08.18.09.16.09.25.07.16.09.18.07.16.09.25.09.17L387,18l.07.25.09.16.09.18.08.16.08.25.09.16.07.18.09.16.08.25.09.17.08.16.08.25.09.16.07.18.09.16.09.26.07.17.09.16.09.25.07.16.09.16.09.17.09.25.07.18.09.16.07.25.09.16.09.18.08.16.08.25.09.16.08.17v.16l-.08.25-.09.25-.16.09-.18.09L389,25l-.16.07-.18.09-.16.07-.16.09-.18.09-.16.08-.08.08-.17.08-.17.09-.16.08-.16.08-.18.09-.16.07-.18.09-.16.09-.16.09-.09.07-.16.09-.17.07-.16.09-.17.09-.17.09-.16.07-.18.09-.16.09-.16.07-.18.09-.07.08-.09.08.09.09.07.08.18.08.07.08.09.09.16.09.09.07.09.09.16.07.09.09.16.09.09.09.07.07.17.09.09.09.08.09.17.07.09.09.07.07.16.09.09.09.09.08.16.08.09.08.09.09.16.09.09.07.07.09.17.07.09.09.08.09.17.09.07.07.09.09.09.09.16.07.09.09.07.09.18.07.09.09.07.09.16.07.09.09.09.08.16.08.09.09.08.08.09.08.16.08.08.09.08.09.18.07.07.09.09.09.18.07.07.09.09.09.07.07.18.09.08.09.08.09.17.07.08.09.08.07.17.09.08.09.09.24v.34l-.09.16-.08.18-.08.16-.09.16-.08.09-.08.16-.08.18-.09.16-.08.17-.08.16-.09.16-.09.09-.07.16-.09.18-.07.16-.09.16-.09.18-.09.09-.07.16-.09.16-.09.17-.08.16-.08.18-.09.16-.07.07-.09.18-.08.16-.09.18-.08.16-.08.16-.09.09-.09.16-.07.17-.09.17-.07.16-.09.17-.09.09-.09.16-.07.18-.09.16-.09.16-.07.18-.09.16-.09.08-.07.17-.09.16-.08.17-.08.16-.09.18-.08.07-.09.18-.07.16-.09.16-.08.18-.08.16-.09.16-.09.09-.07.17-.09.16-.09.16-.09.18-.07.16-.09.09-.07.16-.09.16-.09.18-.08.16-.08.17-.09.17-.08.08-.09.16-.07.18-.09.16-.08.16-.08.18-.09.07-.09.18-.07.16-.09.17-.09.17-.07.16-.09.08-.09.17-.07.17-.09.16-.09.16-.07.18-.09.16-.09.09-.08.16-.08.18-.08.16-.08.17L384,48l-.08.08-.09.17-.07.16-.09.18-.09.16-.09.16-.07.18-.09.07-.07.18-.09.08-.09.08-.16.09h-7.76l-.66-.09-.68-.08-.66-.08-.67-.09-.59-.09-.65-.07-.66-.09-.68-.09-.67-.07-.66-.09-.67-.09-.66-.07-.59-.09-.67-.09-.66-.07-.68-.09-.66-.09-.67-.08-.67-.08-.65-.08-.66-.08-.58-.09-.68-.08-.67-.09-.66-.07-.66-.09-.67-.09-.59-.09V46.8l.09-.66.07-.67.09-.66.09-.67.09-.68.07-.75.09-.65.09-.68.08-.66.08-.67.08-.66.08-.67.09-.66.08-.68.09-.66.07-.67.09-.66.09-.67.07-.75.09-.66.09-.67.07-.68.09-.66.09-.67.07-.66.09-.67.09-.66.09-.68.07-.66.09-.67.07-.66.09-.76.09-.66.08-.67.08-.66.08-.66.09-.68.09-.65.07-.68.09-.66.25-.09.66-.08.59-.08.17-.08.07-.34.09-.34.09-.32.07-.34.09-.33.09-.34.09-.32.07-.34.09-.34.06-.33.08-.41.09-.34.09-.34.07-.32.09-.34.09-.33.09-.34.07-.32.09-.34.07-.34.09-.41.09-.33.09-.34.07-.34.09-.32.08-.34.09-.33.08-.34.08-.34.08-.32.08-.34.09-.41.09-.33.07-.34.09-.34.09-.32.07-.34.09-.33.09-.08.16-.09.16-.08.18-.09.16-.07.16-.09.17-.09.17-.09.17-.07.16-.09.16-.07.18-.09.16-.09.18-.09.16-.07.16-.09.26-.09.16-.08.16-.08.18-.08.16-.08.16-.09.18-.08.16-.09.16-.07.18-.09.16-.09.17-.07.16-.09.17-.09.17-.07.16-.09.18-.09.16-.07.16-.09.18-.09.16-.07.17-.09.16-.09.17-.07.24-.09.18-.09.16-.08.16-.08.18-.08.16-.08.18-.09.16-.08.16-.09.17-.07.16-.09.18-.09.16-.09.16-.07.18-.09L374.4,2l.18-.09.16-.09.16-.09.17-.07.16-.09.18-.09.16-.08.25-.08Zm-5.71,12.51A6.17,6.17,0,0,1,371.35,15c.62.79,1.28,1.66,2,2.59s1.37,1.8,2,2.57a5.18,5.18,0,0,0,1,1.17,15.41,15.41,0,0,0,3-1.58A17.82,17.82,0,0,1,382.82,18l-6.9-15.85a18.73,18.73,0,0,0-2.79,1.26l-2.92,1.48-1.41.71-1.37.68-.72.33-.7.33c-.25.12-.47.59-.66,1.42-.3,1.15-.57,2.27-.82,3.37s-.53,2.21-.82,3.34c-.14.53-.28,1.08-.44,1.65s-.28,1.14-.38,1.69a11.27,11.27,0,0,1-.42,1.69c-.11.26-.66.39-1.64.39l-3.22,26.09L375,48.76l10.62-19.54-5.28-3.94L368.72,37.56ZM385.84,1.42l.09-.09h.33l.53.09.51.09.53.09.51.08.53.09.5.08.53.1.51.07.51.09.53.09.43.09.51.08.53.09.51.09.53.09.51.07.53.1.51.08L396,3l.51.09.53.09.51.09.51.09.53.07.51.1.51.07.53.11.51.07.53.09.43.09.52.08.52.09.52.09.52.07.51.11.53.07.51.1.53.07.51.09.51.09.53.09.51.09.51.08.53.09.26.09.08.07.1.09.07.18.09.08.09.09.09.18.09.09.08.16.09.08.09.09.07.18.1.09.08.17.09.09.08.09.09.16.09.09.09.17.09.09.08.09.09.17.09.09.07.16.09.09.09.18.09.08.08.09.09.35.09.17.09.26.09.18.08.26.08.17.08.25.09.18.09.26.09.18.09.25.08.17.09.27.09.17.09.25.09.18.07.16.09.26.08.18.09.26.09.18.09.25.09.17.08.27.09.17.09.25.07.18.09.26.09.18.09.25.08.17.09.26.09.18.09.25.07.18.1.26.08.17.1.25.07.18.09.26.09.18.09.25.08.17.09.18.08.26.1.18.07.25.09.17.09.27.09.17.08.25.09.18.09.26v.51l-.09.09-.09.09-.08.18-.09.08-.09.17-.09.08-.07.09-.1.18-.08.08-.09.09-.08.16-.09.09L415,22l-.09.09-.07.08-.1.16-.08.11-.1.16-.07.09-.09.08-.09.18-.09.09-.08.16-.09.1-.09.07-.09.18-.07.09-.09.09-.09.17-.08.09-.09.16-.09.09-.09.09-.09.17-.08.09-.09.18-.07.08-.09.09-.09.16-.09.09-.09.18-.08.08-.09.09-.09.18-.09.09-.09.07L412,26l-.08.09-.08.18-.09.09-.09.08-.09.18-.09.07-.08.18-.34.09-.09.08h-.17l-.27-.08-.34-.09-.26-.07h-.26l.09.07.08.17.09.18.09.09.07.17.1.08.08.17.09.09.08.18.09.17.09.09.09.16.09.1.08.17.09.08.09.18.07.18.09.08.09.18.09.07.08.18.09.09.09.17.09.18.09.07.08.18.08.08.08.18.09.09.09.17.09.16.09.09.08.18.09.09.09.17.09.18.09.09L413,32l.09.08.08.18.09.09.09.17.09.18.09.09.08.16.09.09.09.17.07.09.09.18.09.17.09.08.08.17.09.09.09.26v5.79l-.09.09-.09.26-.17.09-.09.09-.16.08-.18.08-.08.09-.18.08-.18.09-.08.09-.16.09-.18.08-.09.09-.17.09-.18.09-.09.07-.17.09-.16.09-.09.09-.18.08-.17.09-.09.09-.18.09-.16.08-.09.09-.17.08-.09.1-.18.07-.17.09-.08.09-.17.09-.18.08-.08.09-.18.09-.18.09-.07.07-.18.1-.17.08-.09.08-.17.09-.18.09-.07.09-.18.09-.18.07-.08.1-.18.07-.17.11-.08.07-.17.09-.18.09-.09.08-.17.09-.09.09-.18.09-.16.09-.09.07-.17.09-.18.08-.09.09-.17.09-.16.09-.09.09-.18.08-.17.09-.09.09-.18.07-.17.09-.07.09-.18.09-.18.08-.08.09-.18.09-.18.09-.07.09-.17.08-.18.08-.09.09-.17.08-.18.09-.07.09-.18.09-.09.08-.17.09-.18.09-.07.09-.18.09-.17.07-.09.09-.18.09-.17.08-.09.09-.16.09-.18.09-.09.08-.17.09-.18.09-.08.07-.17.09-.17.09-.09.09L400,49l-.17.08-.09.09-.17.09-.17.09-.08.08-.18.08-.18.09-.08.08h-.52l-.35-.08-.33-.09-.36-.08-.35-.08-.33-.09-.36-.09L396,49l-.44-.08-.34-.09-.17-.09-.18-.09-.18-.09-.17-.07-.25-.09-.18-.09-.17-.08-.18-.09-.17-.09-.17-.09-.17-.08-.26-.09-.18-.09-.18-.07-.17-.09-.16-.09-.18-.09-.25-.09-.17-.08-.18-.09-.18-.09L391.1,47l-.18-.08-.16-.09-.26-.08-.18-.08-.17-.09-.18-.09-.16-.09-.18-.09-.17-.08-.27-.09L389,46l-.15-.09-.17-.07-.18-.09-.18-.09-.24-.08-.18-.09-.18-.09-.17-.09-.18-.09-.16-.08-.17-.09-.27-.07-.17-.09-.18-.09-.18-.09-.16-.09-.17-.08-.18-.09-.25-.09-.17-.07-.18-.11-.09-1.37L385,41l-.09-1.73-.09-1.81-.09-1.73-.07-1.82-.1-1.82-.08-1.72-.08-1.81-.09-1.72L384.2,25l-.09-1.81L384,21.47l-.08-1.81-.09-1.82-.09-1.73-.07-1.81-.09-1.73-.09-1.82-.09-1.81-.09-1.73-.08-1.82V4.44l.08-.07.09-.18.09-.09L383.6,4l.09-.08.07-.09.09-.09.09-.07L384,3.5l.09-.1.09-.07.09-.09.09-.09.08-.09.08-.17.1-.08.07-.1.09-.07.09-.09.09-.09.08-.17.09-.09.09-.09.09-.09L385.4,2l.1-.1.08-.08.08-.17.09-.09Zm3.79,43.13c.74-.39,1.52-.85,2.37-1.38l2.37-1.5c1.43-.89,3-1.85,4.74-2.85l1.88-1.1c1-.59,2.07-1.21,3.18-1.88s2.11-1.29,3-1.86,1.33-.9,1.33-1l0-6.2L394.12,33l-1.38-8.68,4.09.22,1.3-1.32L396.9,17l-4.73-.24-1.23-5.05,10.65,2.21-.19,1.36,3.54,1.06c.07-.05.4-.48,1-1.28s1.23-1.68,1.91-2.63,1.3-1.8,1.86-2.59.84-1.18.84-1.19a3.82,3.82,0,0,0-.67-1.1c-.45-.62-.73-1-.85-1.19a1.64,1.64,0,0,0-1.28-.62c-.62-.06-1.18-.14-1.67-.23-1.08-.17-2.18-.35-3.29-.55l-3.3-.54L396.82,4c-1.35-.21-2.77-.43-4.26-.68s-2.85-.48-4.08-.7a14.36,14.36,0,0,1-2.11-.47,4.13,4.13,0,0,0-.75.76q-.44.54-.75.87a9.22,9.22,0,0,0-.7.86A2.19,2.19,0,0,0,384,6c.1.87.17,1.86.22,3s.09,2.12.12,3,.09,2,.16,3,.09,2,.08,3c0,.7,0,1.71.1,3A29.05,29.05,0,0,0,385,24a10,10,0,0,1,.1,1.49V27a13.13,13.13,0,0,0,.09,1.51,13.44,13.44,0,0,1,.09,1.52c0,1,0,2,.12,3s.13,2,.13,3c0,.66,0,1.67.1,3s.15,2.34.24,3c.14.9.14,1.38,0,1.43s.28.19,1.25.41l1.29.33Zm13.74-20.41v-.07l-.1.07Zm0,0,.09.18.09.08.09.09.09.18.08.09.09.08L404,25l.11.09.07.09.09.18.09.08.08.18.09.09.09.09.09.17.09.07.07.09.1.18.07.09.09.26.09.42.09.18.26-.09.18-.09.16-.08.26-.09.18-.07.17-.11.25-.07.18-.09.17-.09.27-.08.16-.09.18-.09.19,0-.27-.05-.17-.09-.09-.07-.09-.1-.09-.07-.09-.18-.08-.09-.09-.17-.09-.09-.09-.18-.07-.16-.09-.09-.35-.08-.35-.09-.43-.09-.44-.09-.42-.09-.44-.08-.42-.09Zm-353,40.39A2.91,2.91,0,0,1,49,65.67a5.53,5.53,0,0,1-2.09.37H45.84v3.31H43.48V59.4h3.13a5.23,5.23,0,0,1,3.15.81,2.82,2.82,0,0,1,1.1,2.42A3.42,3.42,0,0,1,50.37,64.53ZM48,61.46a2.07,2.07,0,0,0-1.35-.38h-.8v3.25h.92A1.71,1.71,0,0,0,48,63.91a1.68,1.68,0,0,0,.43-1.27A1.47,1.47,0,0,0,48,61.46Zm11.29.26-.42,3.19H57.44V63.5a1.93,1.93,0,0,0-1.12.69,4.25,4.25,0,0,0-.77,1.45v2.19h1.51v1.52H52.28V67.83h1v-4.6h-1V61.72H55l.42,1.72a3.49,3.49,0,0,1,1-1.47A2.52,2.52,0,0,1,58,61.49,3.39,3.39,0,0,1,59.28,61.72Zm6.83.25a3.19,3.19,0,0,1,1.28,1.41,5.46,5.46,0,0,1,0,4.32,3.09,3.09,0,0,1-1.27,1.4,3.84,3.84,0,0,1-2,.49,3.91,3.91,0,0,1-2-.48,3.17,3.17,0,0,1-1.28-1.4,5,5,0,0,1-.43-2.18,4.77,4.77,0,0,1,.44-2.13A3.27,3.27,0,0,1,62.14,62a3.72,3.72,0,0,1,2-.51A3.82,3.82,0,0,1,66.11,62Zm-3,1.75a3.78,3.78,0,0,0-.33,1.81,3.84,3.84,0,0,0,.33,1.83,1.21,1.21,0,0,0,2.06,0,5,5,0,0,0,0-3.63,1.2,1.2,0,0,0-2.06,0ZM76.3,68.9a4.43,4.43,0,0,1-1.12.51,5,5,0,0,1-1.38.18,3,3,0,0,1-2.21-.75,2.83,2.83,0,0,1-.73-2.09V63.29H69.25V61.72h1.61V60.07l2.26-.27v1.92h2.46l-.22,1.57H73.12v3.46a1.08,1.08,0,0,0,.26.81,1.19,1.19,0,0,0,.83.24,2.66,2.66,0,0,0,1.33-.34Zm7-6.93a3.19,3.19,0,0,1,1.28,1.41,5.46,5.46,0,0,1,0,4.32,3.09,3.09,0,0,1-1.27,1.4,3.81,3.81,0,0,1-2,.49,3.91,3.91,0,0,1-2-.48,3.17,3.17,0,0,1-1.28-1.4,5,5,0,0,1-.43-2.18,4.77,4.77,0,0,1,.44-2.13A3.27,3.27,0,0,1,79.37,62a3.72,3.72,0,0,1,2-.51A3.82,3.82,0,0,1,83.34,62Zm-3,1.75A3.78,3.78,0,0,0,80,65.53a3.84,3.84,0,0,0,.33,1.83,1.1,1.1,0,0,0,1,.57,1.13,1.13,0,0,0,1-.58,3.84,3.84,0,0,0,.33-1.84,3.7,3.7,0,0,0-.34-1.79,1.2,1.2,0,0,0-2.06,0Zm11.23,3.92a5.15,5.15,0,0,0,.86-.49l1,1.44a4.34,4.34,0,0,1-1.26.73,4.52,4.52,0,0,1-1.58.27,4.26,4.26,0,0,1-2.1-.5,3.36,3.36,0,0,1-1.36-1.41,4.38,4.38,0,0,1-.48-2.09,4.58,4.58,0,0,1,.49-2.13A3.62,3.62,0,0,1,88.52,62a4.11,4.11,0,0,1,2.11-.53,4.55,4.55,0,0,1,1.53.24,4.19,4.19,0,0,1,1.26.72l-1,1.36a3,3,0,0,0-1.72-.57,1.53,1.53,0,0,0-1.26.56A2.92,2.92,0,0,0,89,65.59a2.56,2.56,0,0,0,.45,1.7,1.6,1.6,0,0,0,1.25.51A2.2,2.2,0,0,0,91.55,67.64Zm9-5.67a3.19,3.19,0,0,1,1.28,1.41,4.91,4.91,0,0,1,.44,2.13,5.06,5.06,0,0,1-.44,2.19,3.17,3.17,0,0,1-1.28,1.4,3.81,3.81,0,0,1-2,.49,3.91,3.91,0,0,1-2-.48,3.09,3.09,0,0,1-1.27-1.4,4.87,4.87,0,0,1-.44-2.18,4.77,4.77,0,0,1,.44-2.13A3.27,3.27,0,0,1,96.6,62a3.72,3.72,0,0,1,2-.51A3.82,3.82,0,0,1,100.57,62Zm-3,1.75a3.78,3.78,0,0,0-.33,1.81,3.84,3.84,0,0,0,.33,1.83,1.1,1.1,0,0,0,1,.57,1.13,1.13,0,0,0,1-.58,3.84,3.84,0,0,0,.33-1.84,3.7,3.7,0,0,0-.34-1.79,1.2,1.2,0,0,0-2.06,0ZM107.87,67a.79.79,0,0,0,.26.65,1.11,1.11,0,0,0,.73.2,2.68,2.68,0,0,0,1.07-.23l.55,1.52a4.74,4.74,0,0,1-2.21.5,2.47,2.47,0,0,1-2-.77,3.15,3.15,0,0,1-.67-2.15V60.24h-2.24V58.69h4.51Zm20.09.18A3.92,3.92,0,0,1,126.6,69a3.62,3.62,0,0,1-2.17.64,3.67,3.67,0,0,1-2.18-.63,3.73,3.73,0,0,1-1.35-1.8,8.63,8.63,0,0,1,0-5.56,3.86,3.86,0,0,1,1.35-1.81,3.65,3.65,0,0,1,2.18-.64,3.78,3.78,0,0,1,2.18.62A3.89,3.89,0,0,1,128,61.58a7.77,7.77,0,0,1,.45,2.79A7.68,7.68,0,0,1,128,67.13Zm-2.12-4.77a2.33,2.33,0,0,0-.51-1.13,1.29,1.29,0,0,0-1.81,0,2.24,2.24,0,0,0-.5,1.13,12.64,12.64,0,0,0,0,4,2.16,2.16,0,0,0,.51,1.13,1.16,1.16,0,0,0,.9.37,1.19,1.19,0,0,0,.92-.37,2.42,2.42,0,0,0,.5-1.14,10.68,10.68,0,0,0,.15-2A9.93,9.93,0,0,0,125.84,62.36Zm10.24.16a5.64,5.64,0,0,1,.67,3,6,6,0,0,1-.35,2.11,3.24,3.24,0,0,1-1,1.45,2.44,2.44,0,0,1-1.57.52A2.29,2.29,0,0,1,132,68.8v3.49l-2.27.24V61.72h2l.1.86a3,3,0,0,1,1-.84,2.53,2.53,0,0,1,1.12-.27A2.34,2.34,0,0,1,136.08,62.52Zm-3.51.85A2.21,2.21,0,0,0,132,64v3.21a1.58,1.58,0,0,0,.51.52,1.09,1.09,0,0,0,.61.17,1,1,0,0,0,1-.57,3.77,3.77,0,0,0,.33-1.82,6,6,0,0,0-.14-1.44,1.29,1.29,0,0,0-.38-.74.91.91,0,0,0-.63-.22A1.14,1.14,0,0,0,132.57,63.37Zm12.65,5.53a4.28,4.28,0,0,1-1.12.51,5,5,0,0,1-1.38.18,3,3,0,0,1-2.2-.75,2.79,2.79,0,0,1-.74-2.09V63.29h-1.6V61.72h1.6V60.07l2.27-.27v1.92h2.45l-.22,1.57h-2.23v3.46a1.08,1.08,0,0,0,.25.81,1.19,1.19,0,0,0,.83.24,2.72,2.72,0,0,0,1.34-.34Zm2.05-7.18h4.36V67.8h1.94v1.55H147.2V67.8h2.16V63.27h-2.09ZM151,57.9a1.22,1.22,0,0,1,.47.46,1.33,1.33,0,0,1,0,1.3,1.21,1.21,0,0,1-.48.47,1.39,1.39,0,0,1-.68.16,1.47,1.47,0,0,1-.7-.16,1.35,1.35,0,0,1-.48-.47,1.33,1.33,0,0,1,0-1.3,1.32,1.32,0,0,1,.48-.46,1.48,1.48,0,0,1,.7-.17A1.41,1.41,0,0,1,151,57.9ZM162.43,62a2.92,2.92,0,0,1,.39,1.7v5.65h-1.95V64a1.49,1.49,0,0,0-.08-.57.29.29,0,0,0-.3-.16.76.76,0,0,0-.38.11,1.46,1.46,0,0,0-.41.39v5.62h-1.59V64a1.49,1.49,0,0,0-.08-.57.31.31,0,0,0-.3-.16.82.82,0,0,0-.39.11,1.44,1.44,0,0,0-.4.39v5.62h-2V61.72h1.67l.15.74a2.93,2.93,0,0,1,.74-.75,1.51,1.51,0,0,1,.85-.24,1.23,1.23,0,0,1,.74.22,1.21,1.21,0,0,1,.43.69,2.21,2.21,0,0,1,1.68-.91A1.41,1.41,0,0,1,162.43,62Zm2.07-.28h4.36V67.8h1.94v1.55h-6.37V67.8h2.16V63.27H164.5Zm3.68-3.82a1.22,1.22,0,0,1,.47.46,1.26,1.26,0,0,1,0,1.3,1.25,1.25,0,0,1-.47.47,1.59,1.59,0,0,1-1.39,0,1.35,1.35,0,0,1-.48-.47,1.33,1.33,0,0,1,0-1.3,1.32,1.32,0,0,1,.48-.46,1.48,1.48,0,0,1,.7-.17A1.41,1.41,0,0,1,168.18,57.9Zm11.09,5.42-3.75,4.31h3.82l-.21,1.72h-6.28v-1.6l3.78-4.32h-3.47V61.72h6.11Zm4.13,2.88a2,2,0,0,0,.59,1.32,1.81,1.81,0,0,0,1.24.42,3.57,3.57,0,0,0,2-.63l.91,1.23a4,4,0,0,1-1.33.77,5,5,0,0,1-1.71.28,4.33,4.33,0,0,1-2.17-.51,3.28,3.28,0,0,1-1.34-1.42,4.76,4.76,0,0,1-.45-2.12,4.69,4.69,0,0,1,.44-2.07A3.46,3.46,0,0,1,182.8,62a3.64,3.64,0,0,1,2-.54,3.73,3.73,0,0,1,1.89.47,3.07,3.07,0,0,1,1.24,1.35,4.57,4.57,0,0,1,.44,2.09,6.5,6.5,0,0,1,0,.82Zm.41-2.75a2.53,2.53,0,0,0-.44,1.38h2.8c0-1.22-.47-1.84-1.36-1.84A1.21,1.21,0,0,0,183.81,63.45Zm13.32-1.73-.43,3.19h-1.42V63.5a2,2,0,0,0-1.12.69,4.43,4.43,0,0,0-.77,1.45v2.19h1.51v1.52h-4.78V67.83h1v-4.6h-1V61.72h2.73l.42,1.72a3.42,3.42,0,0,1,1-1.47,2.49,2.49,0,0,1,1.55-.48A3.48,3.48,0,0,1,197.13,61.72Zm17.61-2.78-.62,1.48a4.42,4.42,0,0,0-1.64-.29,1.5,1.5,0,0,0-1,.24,1,1,0,0,0-.29.81v1h2.48l-.25,1.58h-2.23v5.57H209V63.78h-1.6V62.2H209V61.1a2.58,2.58,0,0,1,.36-1.36,2.49,2.49,0,0,1,1.08-.94,3.94,3.94,0,0,1,1.72-.34A6.61,6.61,0,0,1,214.74,58.94Zm6.45,3a3.17,3.17,0,0,1,1.27,1.41,4.91,4.91,0,0,1,.44,2.13,5.06,5.06,0,0,1-.44,2.19,3.17,3.17,0,0,1-1.28,1.4,3.78,3.78,0,0,1-2,.49,3.92,3.92,0,0,1-2-.48,3.09,3.09,0,0,1-1.27-1.4,5,5,0,0,1-.44-2.18,4.91,4.91,0,0,1,.44-2.13A3.33,3.33,0,0,1,217.21,62a3.75,3.75,0,0,1,2-.51A3.84,3.84,0,0,1,221.19,62Zm-3,1.75a3.65,3.65,0,0,0-.34,1.81,3.84,3.84,0,0,0,.33,1.83,1.22,1.22,0,0,0,2.07,0,3.84,3.84,0,0,0,.33-1.84,3.72,3.72,0,0,0-.33-1.79,1.13,1.13,0,0,0-1-.58A1.11,1.11,0,0,0,218.17,63.72Zm13.42-2-.43,3.19h-1.42V63.5a2,2,0,0,0-1.12.69,4.43,4.43,0,0,0-.77,1.45v2.19h1.51v1.52h-4.78V67.83h1v-4.6h-1V61.72h2.74l.41,1.72A3.42,3.42,0,0,1,228.78,62a2.49,2.49,0,0,1,1.55-.48A3.44,3.44,0,0,1,231.59,61.72Zm16.95-2.32.56,9.95H247l-.12-4.26c0-.45,0-.76,0-.93,0-.44,0-.83,0-1.19s.05-.83.09-1.42V61.4l-1.12,6.25h-1.78l-1.2-6.25c.05.56.09,1.05.11,1.48s0,.9,0,1.43c0,.35,0,.62,0,.82L243,69.35h-2l.56-9.95H244l1.11,6.43,1.05-6.43Zm4.08,7.54a1.1,1.1,0,0,0,.2.75.72.72,0,0,0,.58.22,1.28,1.28,0,0,0,.7-.22,1.88,1.88,0,0,0,.59-.6V61.72H257v7.63h-2l-.1-.89a2.59,2.59,0,0,1-1,.84,3.15,3.15,0,0,1-1.33.29A2.09,2.09,0,0,1,250.9,69a2.6,2.6,0,0,1-.55-1.75v-5.5h2.27ZM263,67a.78.78,0,0,0,.25.65,1.11,1.11,0,0,0,.73.2,2.76,2.76,0,0,0,1.08-.23l.54,1.52a4.7,4.7,0,0,1-2.2.5,2.48,2.48,0,0,1-2-.77,3.2,3.2,0,0,1-.66-2.15V60.24h-2.25V58.69H263Zm11.5,2a4.43,4.43,0,0,1-1.12.51,5,5,0,0,1-1.38.18,3,3,0,0,1-2.2-.75,2.79,2.79,0,0,1-.74-2.09V63.29H267.4V61.72H269V60.07l2.26-.27v1.92h2.46l-.22,1.57h-2.24v3.46a1.08,1.08,0,0,0,.26.81,1.19,1.19,0,0,0,.83.24,2.66,2.66,0,0,0,1.33-.34Zm2.05-7.18h4.36V67.8h1.94v1.55h-6.37V67.8h2.16V63.27H276.5Zm3.68-3.82a1.22,1.22,0,0,1,.47.46,1.33,1.33,0,0,1,0,1.3,1.21,1.21,0,0,1-.48.47,1.39,1.39,0,0,1-.68.16,1.47,1.47,0,0,1-.7-.16,1.35,1.35,0,0,1-.48-.47,1.33,1.33,0,0,1,0-1.3,1.32,1.32,0,0,1,.48-.46,1.48,1.48,0,0,1,.7-.17A1.41,1.41,0,0,1,280.18,57.9Zm11,4.62a5.54,5.54,0,0,1,.67,3,5.76,5.76,0,0,1-.35,2.11,3.17,3.17,0,0,1-1,1.45,2.44,2.44,0,0,1-1.57.52,2.3,2.3,0,0,1-1.81-.79v3.49l-2.27.24V61.72h2l.1.86a2.79,2.79,0,0,1,1-.84,2.46,2.46,0,0,1,1.12-.27A2.32,2.32,0,0,1,291.15,62.52Zm-3.5.85a2.23,2.23,0,0,0-.57.66v3.21a1.69,1.69,0,0,0,.51.52,1.12,1.12,0,0,0,.61.17,1,1,0,0,0,.95-.57,3.77,3.77,0,0,0,.33-1.82,6.08,6.08,0,0,0-.13-1.44,1.35,1.35,0,0,0-.39-.74.88.88,0,0,0-.63-.22A1.12,1.12,0,0,0,287.65,63.37ZM297.41,67a.78.78,0,0,0,.25.65,1.13,1.13,0,0,0,.73.2,2.73,2.73,0,0,0,1.08-.23l.54,1.52a4.7,4.7,0,0,1-2.2.5,2.5,2.5,0,0,1-2-.77,3.2,3.2,0,0,1-.66-2.15V60.24h-2.25V58.69h4.52Zm6.6-.75a2,2,0,0,0,.59,1.32,1.83,1.83,0,0,0,1.24.42,3.63,3.63,0,0,0,2-.63l.91,1.23a4.12,4.12,0,0,1-1.34.77,4.91,4.91,0,0,1-1.71.28,4.26,4.26,0,0,1-2.16-.51,3.25,3.25,0,0,1-1.35-1.42,4.76,4.76,0,0,1-.45-2.12,4.83,4.83,0,0,1,.44-2.07A3.49,3.49,0,0,1,303.42,62a3.6,3.6,0,0,1,2-.54,3.73,3.73,0,0,1,1.89.47,3.09,3.09,0,0,1,1.25,1.35,4.7,4.7,0,0,1,.44,2.09,6.32,6.32,0,0,1-.05.82Zm.42-2.75a2.45,2.45,0,0,0-.45,1.38h2.8c0-1.22-.47-1.84-1.36-1.84A1.18,1.18,0,0,0,304.43,63.45Zm21.44-2.37H322v2.39h3.45v1.65H322v2.54h4.16v1.69h-6.51V59.4h6.5Zm5.24,5.42-1.45,2.85H327.2l2.61-4-2.36-3.62H330l1.22,2.44,1.18-2.44h2.41l-2.24,3.53,2.63,4.1h-2.58Zm10.28,1.14a5.15,5.15,0,0,0,.86-.49l1,1.44a4.34,4.34,0,0,1-1.26.73,4.46,4.46,0,0,1-1.57.27,4.3,4.3,0,0,1-2.11-.5A3.36,3.36,0,0,1,337,67.68a4.38,4.38,0,0,1-.48-2.09,4.58,4.58,0,0,1,.49-2.13A3.62,3.62,0,0,1,338.36,62a4.13,4.13,0,0,1,2.11-.53,4.55,4.55,0,0,1,1.53.24,4.19,4.19,0,0,1,1.26.72l-1,1.36a3,3,0,0,0-1.72-.57,1.53,1.53,0,0,0-1.26.56,2.92,2.92,0,0,0-.45,1.81,2.51,2.51,0,0,0,.46,1.7,1.56,1.56,0,0,0,1.24.51A2.2,2.2,0,0,0,341.39,67.64Zm6-5.16a3,3,0,0,1,2.24-1,2,2,0,0,1,1.55.59,2.39,2.39,0,0,1,.55,1.69v5.6h-2.27v-5a2.8,2.8,0,0,0-.07-.73.6.6,0,0,0-.66-.51,1.1,1.1,0,0,0-.67.24,3.41,3.41,0,0,0-.67.69v5.28h-2.27V58.69l2.27-.22Zm12.77,4.67a1.25,1.25,0,0,0,.11.62.76.76,0,0,0,.39.3l-.47,1.49a3,3,0,0,1-1.15-.3,1.8,1.8,0,0,1-.72-.7,2.55,2.55,0,0,1-1.09.77,4,4,0,0,1-1.42.26,2.93,2.93,0,0,1-1.36-.3,2.24,2.24,0,0,1-.9-.85,2.45,2.45,0,0,1-.32-1.25,2.29,2.29,0,0,1,.44-1.4,2.74,2.74,0,0,1,1.27-.88,5.74,5.74,0,0,1,2-.31h1v-.29c0-.77-.5-1.17-1.51-1.17a5.53,5.53,0,0,0-.95.11,7,7,0,0,0-1.13.3L353.85,62a8.92,8.92,0,0,1,1.52-.42,7.85,7.85,0,0,1,1.45-.15,3.92,3.92,0,0,1,2.51.68,2.47,2.47,0,0,1,.83,2Zm-2.78.59a1.44,1.44,0,0,0,.59-.61V65.89h-.56a2.63,2.63,0,0,0-1.38.29,1,1,0,0,0-.46.86.87.87,0,0,0,.27.68,1,1,0,0,0,.75.25A1.62,1.62,0,0,0,357.38,67.74Zm5,1.61V61.72h2l.16.89a3.53,3.53,0,0,1,1.09-.86,2.77,2.77,0,0,1,1.28-.28,2,2,0,0,1,1.54.6,2.38,2.38,0,0,1,.56,1.68v5.6h-2.27V64.4a3.07,3.07,0,0,0-.07-.75.6.6,0,0,0-.66-.51,1.27,1.27,0,0,0-.68.22,3.63,3.63,0,0,0-.66.65v5.34Zm15.92-7.18a4.21,4.21,0,0,1-.93.23,9.41,9.41,0,0,1-1.27.07,2.82,2.82,0,0,1,1.11.78,1.86,1.86,0,0,1,.36,1.18,2.33,2.33,0,0,1-.39,1.32,2.67,2.67,0,0,1-1.14.91,4.48,4.48,0,0,1-2.58.24.47.47,0,0,0-.19.18.58.58,0,0,0-.06.26.42.42,0,0,0,.17.34,1.3,1.3,0,0,0,.67.12h1.25a3.83,3.83,0,0,1,1.53.29,2.4,2.4,0,0,1,1,.78,1.93,1.93,0,0,1,.36,1.14,2.1,2.1,0,0,1-.46,1.35,2.89,2.89,0,0,1-1.38.87,7.27,7.27,0,0,1-2.24.3,6.92,6.92,0,0,1-2.23-.29,2.17,2.17,0,0,1-1.14-.82,2.61,2.61,0,0,1-.32-1.34h2a1,1,0,0,0,.14.56.89.89,0,0,0,.51.3,4.81,4.81,0,0,0,1.08.1,3,3,0,0,0,1.39-.23.72.72,0,0,0,.38-.64.67.67,0,0,0-.27-.56,1.43,1.43,0,0,0-.83-.2H373.6a3.9,3.9,0,0,1-1.32-.2,1.74,1.74,0,0,1-.78-.55,1.27,1.27,0,0,1-.25-.77,1.53,1.53,0,0,1,.22-.8,1.87,1.87,0,0,1,.64-.64,2.66,2.66,0,0,1-1.05-.91,2.43,2.43,0,0,1-.32-1.28,2.53,2.53,0,0,1,.44-1.47,2.8,2.8,0,0,1,1.21-1,4.45,4.45,0,0,1,1.76-.33,7,7,0,0,0,1.44-.11A5.83,5.83,0,0,0,376.7,61a9.53,9.53,0,0,0,1-.54Zm-4.91,1.13a1.34,1.34,0,0,0-.32.94,1.37,1.37,0,0,0,.32,1,1.09,1.09,0,0,0,.85.34,1.12,1.12,0,0,0,.87-.33,1.48,1.48,0,0,0,.3-1,1.29,1.29,0,0,0-.3-.94,1.11,1.11,0,0,0-.87-.31A1.09,1.09,0,0,0,373.36,63.3Zm8.19,2.9a2,2,0,0,0,.59,1.32,1.81,1.81,0,0,0,1.24.42,3.57,3.57,0,0,0,1.95-.63l.91,1.23a4,4,0,0,1-1.33.77,5,5,0,0,1-1.71.28,4.33,4.33,0,0,1-2.17-.51,3.28,3.28,0,0,1-1.34-1.42,4.76,4.76,0,0,1-.45-2.12,4.69,4.69,0,0,1,.44-2.07A3.46,3.46,0,0,1,381,62a3.64,3.64,0,0,1,2-.54,3.73,3.73,0,0,1,1.89.47,3.07,3.07,0,0,1,1.24,1.35,4.57,4.57,0,0,1,.44,2.09,6.5,6.5,0,0,1,0,.82Zm.41-2.75a2.53,2.53,0,0,0-.44,1.38h2.8c0-1.22-.47-1.84-1.36-1.84A1.21,1.21,0,0,0,382,63.45Z" style="fill:#fff;opacity:0.65;mix-blend-mode:color-dodge"/></g></g></g></svg>