<svg xmlns="http://www.w3.org/2000/svg" xmlns:xlink="http://www.w3.org/1999/xlink" viewBox="0 0 501.78 528.77"><defs><linearGradient id="linear-gradient" y1="264.39" x2="501.78" y2="264.39" gradientUnits="userSpaceOnUse"><stop offset="0" stop-color="#2bc4f3"/><stop offset="0.02" stop-color="#34c1e8"/><stop offset="0.12" stop-color="#71aea3"/><stop offset="0.22" stop-color="#a49d69"/><stop offset="0.31" stop-color="#cb913b"/><stop offset="0.39" stop-color="#e7881b"/><stop offset="0.45" stop-color="#f98207"/><stop offset="0.5" stop-color="#ff8000"/><stop offset="0.55" stop-color="#f0810d"/><stop offset="0.64" stop-color="#c9842e"/><stop offset="0.76" stop-color="#8a8a64"/><stop offset="0.91" stop-color="#3491ae"/><stop offset="1" stop-color="#0095da"/></linearGradient></defs><g style="isolation:isolate"><g id="Layer_2" data-name="Layer 2"><g id="Layer_1-2" data-name="Layer 1"><g style="opacity:0.4"><path d="M20.74,430.7,0,452.35v76.36L121.21,402.26l26.61-27.75L20.74,485.29ZM137.51,209.24,74.7,154.42l42.07,43.94c35,36.62,35,95.45,0,132.08L74.45,374.62l63.06-55C172.51,289,172.51,239.84,137.51,209.24Zm10.6-54.72L0,0V76.41L20.74,98.07V43.48ZM481.49,97.61l20.29-21.2V0L351.39,156.9,481.49,43.48ZM424.9,156.73l-60.16,52.51c-35,30.6-35,79.76,0,110.37l60,52.38L385,330.49c-35-36.63-35-95.46,0-132.08ZM351.72,372.16,501.78,528.77V452.35l-20.29-21.17v54.16ZM481.49,107.33V97.61L424.9,156.73ZM348.36,160.06l3-3.16-23.32,20.33c-55.19,48.12-55.19,126.15,0,174.31l23.65,20.62-3.36-3.5C293.17,311,293.17,217.66,348.36,160.06ZM20.74,107.33l54,47.09-54-56.35ZM481.49,421.48,424.77,372l56.72,59.19ZM174.16,177.23l-26-22.71,5.31,5.54c55.19,57.58,55.19,151,0,208.6l-5.6,5.85,26.34-23C229.35,303.38,229.35,225.35,174.16,177.23ZM20.74,421.48v9.22l53.71-56.08Z" style="fill:#0cf"/></g><g style="opacity:0.25;mix-blend-mode:color-dodge"><g style="opacity:0.4"><path d="M148.11,154.52,0,0V76.41L20.74,98.07V43.48ZM20.74,430.7,0,452.35v76.36L121.21,402.26l26.61-27.75L20.74,485.29ZM481.49,97.61l20.29-21.2V0L351.39,156.9,481.49,43.48Zm-344,111.63L74.7,154.42l42.07,43.94c35,36.62,35,95.45,0,132.08L74.45,374.62l63.06-55C172.51,289,172.51,239.84,137.51,209.24ZM351.72,372.16,501.78,528.77V452.35l-20.29-21.17v54.16ZM424.9,156.73l-60.16,52.51c-35,30.6-35,79.76,0,110.37l60,52.38L385,330.49c-35-36.63-35-95.46,0-132.08ZM20.74,421.48v9.22l53.71-56.08ZM348.36,160.06l3-3.16-23.32,20.33c-55.19,48.12-55.19,126.15,0,174.31l23.65,20.62-3.36-3.5C293.17,311,293.17,217.66,348.36,160.06ZM20.74,107.33l54,47.09-54-56.35Zm460.75,0V97.61L424.9,156.73Zm-307.33,69.9-26-22.71,5.31,5.54c55.19,57.58,55.19,151,0,208.6l-5.6,5.85,26.34-23C229.35,303.38,229.35,225.35,174.16,177.23ZM481.49,421.48,424.77,372l56.72,59.19Z" style="fill:#0cf"/></g></g><g style="mix-blend-mode:color-dodge"><g style="opacity:0.4"><path d="M481.49,97.61l20.29-21.2V0L351.39,156.9,481.49,43.48ZM20.74,430.7,0,452.35v76.36L121.21,402.26l26.61-27.75L20.74,485.29ZM137.51,209.24,74.7,154.42l42.07,43.94c35,36.62,35,95.45,0,132.08L74.45,374.62l63.06-55C172.51,289,172.51,239.84,137.51,209.24Zm10.6-54.72L0,0V76.41L20.74,98.07V43.48Zm276.79,2.21-60.16,52.51c-35,30.6-35,79.76,0,110.37l60,52.38L385,330.49c-35-36.63-35-95.46,0-132.08ZM351.72,372.16,501.78,528.77V452.35l-20.29-21.17v54.16Zm-331,49.32v9.22l53.71-56.08Zm0-314.15,54,47.09-54-56.35Zm460.75,0V97.61L424.9,156.73Zm0,314.15L424.77,372l56.72,59.19ZM174.16,177.23l-26-22.71,5.31,5.54c55.19,57.58,55.19,151,0,208.6l-5.6,5.85,26.34-23C229.35,303.38,229.35,225.35,174.16,177.23Zm174.2-17.17,3-3.16-23.32,20.33c-55.19,48.12-55.19,126.15,0,174.31l23.65,20.62-3.36-3.5C293.17,311,293.17,217.66,348.36,160.06Z" style="fill:url(#linear-gradient)"/></g></g></g></g></g></svg>